<?xml version="1.0" encoding="UTF-8" standalone="no"?>
<svg width="271px" height="34px" viewBox="0 0 271 34" version="1.1" xmlns="http://www.w3.org/2000/svg" xmlns:xlink="http://www.w3.org/1999/xlink">
    <!-- Generator: Sketch 44.1 (41455) - http://www.bohemiancoding.com/sketch -->
    <title>Page 1</title>
    <desc>Created with Sketch.</desc>
    <defs>
        <polygon id="path-1" points="0.820873833 0.384 11.9553569 0.384 11.9553569 16.8543984 0.820873833 16.8543984"></polygon>
    </defs>
    <g id="Page-1" stroke="none" stroke-width="1" fill="none" fill-rule="evenodd">
        <g transform="translate(0.000000, -1.000000)">
            <path d="M46.7834,28.4035 C47.4024,28.6345 47.7754,28.3025 48.0864,27.8745 C48.4864,27.3255 48.8624,26.7585 49.2494,26.2005 C49.4754,25.8745 49.7144,25.5545 49.9284,25.2195 C50.2074,24.7815 50.2394,24.2225 49.9614,23.8745 C49.5444,23.3515 48.9524,22.8935 48.2574,22.8315 C47.3434,22.7485 46.4164,22.8045 45.4954,22.8135 C45.3424,22.8155 45.1864,22.8675 45.0374,22.9165 C44.5544,23.0755 44.0854,23.3115 43.5904,23.3935 C42.8534,23.5145 42.2694,23.1125 41.7514,22.6355 C41.6894,22.5795 41.6764,22.4075 41.7114,22.3155 C41.9924,21.5915 42.4474,20.9795 43.1164,20.5895 C43.8264,20.1725 44.5324,19.7575 45.0034,19.0675 C45.3264,18.5915 45.6204,18.0875 45.8554,17.5635 C46.0154,17.2085 46.0674,16.8005 46.1384,16.4115 C46.2744,15.6715 45.7584,15.1305 45.0284,15.2525 C44.4614,15.3465 43.9044,15.5295 43.3354,15.5715 C42.8324,15.6075 42.3484,15.6775 41.9734,16.0015 C41.5964,16.3275 41.0664,16.7015 41.0014,17.1175 C40.8854,17.8615 41.0554,18.6525 41.1334,19.4225 C41.1574,19.6585 41.3244,19.8845 41.3294,20.1185 C41.3684,21.9695 41.3574,23.8235 41.4254,25.6745 C41.4444,26.1685 41.6804,26.6565 41.8304,27.1425 C41.8524,27.2115 41.9464,27.2885 42.0204,27.3045 C42.5164,27.4175 42.8974,27.8755 43.4654,27.7785 C43.5524,27.7635 43.6534,27.8385 43.7494,27.8665 C44.3374,28.0465 44.9174,28.2705 45.5184,28.3875 C45.9334,28.4695 46.3764,28.4035 46.7834,28.4035 M37.8464,27.0645 C37.9724,26.6195 38.1064,26.1765 38.2204,25.7275 C38.2764,25.5075 38.3384,25.2755 38.3224,25.0535 C38.2814,24.4815 38.1964,23.9125 38.1344,23.3415 C38.0694,22.7455 37.9984,22.1495 37.9534,21.5525 C37.9034,20.8805 37.9144,20.2005 37.8294,19.5335 C37.7844,19.1765 37.6164,18.8285 37.4534,18.5015 C37.4044,18.4025 37.1874,18.3645 37.0414,18.3425 C36.3344,18.2365 35.8284,17.7995 36.0654,17.0535 C36.1774,16.6995 36.5154,16.4095 36.7774,16.1135 C36.9244,15.9465 37.1214,15.8215 37.3014,15.6855 C38.4064,14.8515 39.5964,14.1665 40.9104,13.7275 C41.5264,13.5225 42.2144,13.5075 42.8054,13.2565 C43.6964,12.8755 44.6394,12.8235 45.5624,12.6695 C46.2164,12.5595 46.9374,12.4825 47.5584,12.6495 C48.1584,12.8105 48.6764,13.2925 49.2144,13.6565 C49.3624,13.7575 49.5124,13.9245 49.5584,14.0895 C49.6204,14.3155 49.6864,14.6525 49.5704,14.7945 C49.3224,15.0965 49.2964,15.4065 49.2924,15.7555 C49.2874,16.2495 49.3174,16.7145 49.0144,17.1965 C48.7354,17.6395 48.6924,18.2315 48.5424,18.7575 C48.4964,18.9215 48.4604,19.0915 48.3894,19.2455 C48.1754,19.7075 48.4474,20.2325 48.9454,20.1645 C49.6374,20.0685 50.1594,20.4275 50.7344,20.6555 C51.2214,20.8485 51.6924,21.0875 52.1704,21.3035 C53.1154,21.7345 53.6314,23.0705 53.2504,24.0075 C53.1364,24.2915 53.0844,24.6265 53.1024,24.9305 C53.1504,25.7515 52.7694,26.3615 52.2564,26.9365 C52.1244,27.0855 52.0694,27.2995 51.9604,27.4715 C51.6744,27.9245 51.4184,28.4055 51.0744,28.8125 C50.6524,29.3115 50.1954,29.8005 49.6794,30.1995 C48.7204,30.9385 47.7134,31.5915 46.3874,31.3405 C45.9144,31.2505 45.3974,31.3495 44.9424,31.2185 C43.7424,30.8725 42.5464,30.4945 41.3844,30.0375 C40.3724,29.6395 39.3554,29.2435 38.4844,28.5285 C37.9794,28.1135 37.8814,27.6645 37.9684,27.0885 C37.9284,27.0805 37.8874,27.0725 37.8464,27.0645" id="Fill-1" fill="#032E4E"></path>
            <path d="M31.6189,27.3478 C31.4719,26.6088 31.3249,25.8688 31.1779,25.1298 C31.0269,24.3788 30.8819,23.6258 30.7229,22.8758 C30.6849,22.6968 30.5959,22.5288 30.5409,22.3508 C30.4749,22.1348 30.3839,21.9168 30.3699,21.6958 C30.3519,21.3758 30.3749,21.0638 30.0839,20.8338 C30.0269,20.7888 30.0129,20.6828 29.9909,20.6018 C29.9769,20.5468 29.9969,20.4838 29.9819,20.4298 C29.8089,19.8098 29.6679,19.1778 29.4449,18.5758 C29.2899,18.1578 29.0789,18.1848 28.7809,18.5208 C28.5439,18.7868 28.5239,19.0938 28.4249,19.4018 C28.2749,19.8708 28.1279,20.3438 27.9699,20.8058 C27.7729,21.3788 27.2709,21.8428 27.3069,22.5208 C27.3089,22.5748 27.2919,22.6558 27.2549,22.6788 C26.9849,22.8488 27.0029,23.1608 26.8769,23.3898 C26.5139,24.0468 26.2009,24.7838 25.5149,25.1808 C25.0529,25.4488 24.5309,25.6198 24.0249,25.8048 C23.7479,25.9058 23.5509,25.7578 23.3629,25.5338 C23.2089,25.3518 22.9629,25.2478 22.7619,25.1058 C22.5849,24.9808 22.3629,24.8838 22.2459,24.7158 C21.7919,24.0588 21.3489,23.3908 20.9469,22.7018 C20.7439,22.3528 20.6649,21.9348 20.4769,21.5758 C20.2629,21.1618 20.0269,20.7468 19.7299,20.3928 C19.5279,20.1518 19.1959,20.2608 19.0799,20.5768 C18.9169,21.0218 18.9019,21.4698 19.1519,21.9078 C19.2479,22.0748 19.3299,22.2778 19.3319,22.4648 C19.3459,24.5918 19.3579,26.7198 19.3269,28.8468 C19.3229,29.1588 19.0779,29.4598 18.9679,29.7758 C18.8129,30.2188 18.4489,30.0898 18.1339,30.1088 C18.0489,30.1138 17.9629,30.1298 17.8799,30.1518 C17.1179,30.3478 16.4949,29.7078 16.5969,28.9308 C16.7859,27.4888 16.7949,26.0398 16.5559,24.5948 C16.4499,23.9478 16.4079,23.2898 16.3329,22.6388 C16.2939,22.2968 16.2509,21.9558 16.2039,21.6158 C16.1209,21.0088 15.9769,20.4048 15.9599,19.7958 C15.9219,18.4588 15.9239,17.1188 15.9549,15.7828 C15.9719,15.0768 16.3319,14.4258 16.9379,14.1538 C17.5739,13.8688 18.3359,13.7788 18.9639,14.3558 C19.6279,14.9678 20.3399,15.5328 20.9609,16.1848 C21.3589,16.6038 21.6569,17.1278 21.9519,17.6328 C22.3359,18.2878 22.6719,18.9708 23.0279,19.6428 C23.0479,19.6808 23.0789,19.7228 23.0769,19.7608 C23.0309,20.5048 23.6589,20.8248 24.0439,21.2958 C24.1059,21.3728 24.1819,21.4398 24.2429,21.5178 C24.3379,21.6388 24.4249,21.7668 24.5149,21.8908 C24.6759,21.7338 24.8859,21.6018 24.9879,21.4118 C25.2549,20.9158 25.4749,20.3958 25.7119,19.8838 C25.7469,19.8068 25.7909,19.7228 25.7919,19.6408 C25.7999,19.0548 26.1839,18.6238 26.4079,18.1278 C26.4539,18.0248 26.5399,17.9208 26.5409,17.8168 C26.5529,17.1978 26.8739,16.7178 27.2129,16.2428 C27.2609,16.1748 27.3069,16.0858 27.3069,16.0068 C27.3129,15.6598 27.3559,15.3718 27.6449,15.0918 C27.8749,14.8688 27.8839,14.4338 28.0879,14.1658 C28.4129,13.7408 28.7759,13.3148 29.2089,13.0108 C29.4469,12.8438 29.8669,12.8698 30.1929,12.9088 C31.2249,13.0278 31.4319,13.2898 31.4849,14.3278 C31.4939,14.5088 31.5999,14.6968 31.6989,14.8588 C31.8389,15.0908 32.0769,15.2808 32.1609,15.5268 C32.3479,16.0828 32.4639,16.6628 32.6159,17.2318 C32.6489,17.3528 32.7059,17.4688 32.7639,17.5808 C32.8029,17.6578 32.8909,17.7138 32.9099,17.7908 C33.0699,18.4348 33.2189,19.0798 33.3689,19.7258 C33.3819,19.7808 33.3629,19.8448 33.3809,19.8968 C33.5769,20.4688 33.7889,21.0358 33.9719,21.6118 C34.0529,21.8668 34.0929,22.1368 34.1279,22.4038 C34.2439,23.2968 34.3489,24.1928 34.4569,25.0878 C34.4789,25.2728 34.5069,25.4578 34.5069,25.6438 C34.5129,27.0538 34.4929,28.4638 34.5229,29.8738 C34.5339,30.3618 34.2079,30.6248 33.8979,30.7508 C32.9829,31.1218 32.0349,30.5358 31.8269,29.7008 C31.6379,28.9428 31.5259,28.1648 31.3809,27.3958 C31.4599,27.3798 31.5389,27.3648 31.6189,27.3478" id="Fill-3" fill="#032E4E"></path>
            <g id="Group-7" transform="translate(0.000000, 11.616400)" fill="#032E4E">
                <path d="M7.2258,8.2724 C7.1948,8.4404 7.2268,8.7124 7.1058,8.8394 C6.8568,9.1004 6.8178,9.3784 6.8228,9.7034 C6.8238,9.8214 6.7448,9.9404 6.7028,10.0584 C6.6168,10.3044 6.5288,10.5494 6.4448,10.7954 C6.4098,10.9014 6.4188,11.0644 6.3498,11.1084 C5.9608,11.3584 6.0558,11.7344 6.0718,12.0824 C6.0958,12.5964 6.3588,12.8344 6.8308,12.6464 C7.3488,12.4394 7.8298,12.5014 8.3418,12.5684 C8.8298,12.6314 9.2218,12.4414 9.3638,12.0314 C9.5388,11.5244 9.5748,11.0044 9.3258,10.4854 C9.1058,10.0284 8.9088,9.5544 8.7528,9.0714 C8.5748,8.5174 8.4688,7.9404 8.3038,7.3804 C8.1978,7.0224 7.8828,6.9684 7.6098,7.2114 C7.2998,7.4874 7.1058,7.7954 7.2258,8.2724 M10.8778,6.5564 C11.0208,6.8764 11.1718,7.1924 11.3048,7.5164 C11.4628,7.9024 11.6018,8.2944 11.7558,8.6824 C11.8018,8.7994 11.8738,8.9064 11.9248,9.0224 C11.9978,9.1894 12.0698,9.3574 12.1278,9.5304 C12.2258,9.8214 12.3128,10.1174 12.4068,10.4104 C12.4338,10.4914 12.4878,10.5674 12.4968,10.6504 C12.5888,11.4604 12.9538,12.1344 13.5008,12.7254 C13.5828,12.8144 13.6218,12.9484 13.6648,13.0654 C13.7498,13.2914 13.8268,13.5194 13.9018,13.7484 C13.9498,13.8964 14.0258,14.0474 14.0238,14.1974 C14.0158,14.6234 14.0288,15.0284 14.3248,15.3784 C14.3908,15.4564 14.4098,15.5974 14.4028,15.7074 C14.3768,16.1204 14.4138,16.5034 14.6918,16.8454 C14.7718,16.9444 14.7848,17.1174 14.7868,17.2564 C14.7948,18.1204 14.7958,18.9824 14.7888,19.8454 C14.7868,20.2754 14.3198,20.6844 13.8318,20.7064 C13.3928,20.7254 12.9478,20.3614 12.9008,19.9314 C12.8358,19.3484 12.6658,18.8284 12.2738,18.3604 C12.0568,18.1014 11.9748,17.7274 11.8408,17.4014 C11.5488,16.6864 11.2568,15.9714 10.9758,15.2514 C10.7418,14.6534 10.1318,14.4674 9.6108,14.8464 C9.1158,15.2054 8.5938,15.4054 7.9548,15.4624 C7.2538,15.5264 6.5748,15.8304 5.8848,16.0234 C5.7338,16.0654 5.5768,16.1014 5.4208,16.1114 C4.5928,16.1624 4.3158,16.4784 4.1498,17.3274 C4.0578,17.7994 3.7928,18.2394 3.6008,18.6904 C3.5738,18.7544 3.4718,18.8124 3.4788,18.8614 C3.5738,19.5154 3.0488,20.0064 3.0228,20.6314 C3.0138,20.8354 2.9118,21.0364 2.8378,21.2334 C2.7938,21.3524 2.6598,21.4714 2.6748,21.5744 C2.7478,22.0614 2.3828,22.3354 2.1648,22.6714 C1.8788,23.1104 1.3878,22.9784 0.9738,22.9904 C0.6518,23.0004 0.4728,22.7614 0.3818,22.4524 C0.3378,22.3044 0.2328,22.1754 0.1618,22.0344 C-0.0232,21.6664 -0.1012,21.3014 0.2128,20.9564 C0.2518,20.9144 0.2978,20.8674 0.3098,20.8154 C0.4668,20.1554 0.6188,19.4944 0.7708,18.8324 C0.7958,18.7224 0.7768,18.5794 0.8408,18.5044 C1.4418,17.8064 1.1078,16.9924 1.1028,16.2314 C1.1018,15.9994 0.8068,15.7584 0.6278,15.5374 C0.3308,15.1694 0.2958,14.7804 0.5668,14.3944 C0.7718,14.1014 0.9898,13.8174 1.2158,13.5404 C1.4628,13.2364 1.7618,13.0464 2.1838,13.1034 C2.4458,13.1374 2.6108,13.0064 2.6818,12.7344 C2.7188,12.5904 2.8478,12.4744 2.9138,12.3354 C3.0798,11.9904 3.2458,11.6424 3.3908,11.2884 C3.6298,10.7074 3.8548,10.1204 4.0818,9.5344 C4.1268,9.4164 4.1778,9.2904 4.1808,9.1664 C4.1898,8.7904 4.3658,8.4614 4.4548,8.1224 C4.6098,7.5304 5.0638,7.0334 4.9668,6.3494 C4.8668,5.6514 4.9138,4.9364 5.3068,4.3084 C5.4548,4.0714 5.6828,3.8844 5.8478,3.6554 C5.9548,3.5054 6.0778,3.3234 6.0808,3.1524 C6.0908,2.6224 6.0558,2.0894 6.0218,1.5594 C5.9948,1.1094 6.1668,0.7734 6.5598,0.5614 C6.6688,0.5024 6.8208,0.4454 6.9278,0.4754 C7.3878,0.6044 7.8418,0.7564 8.2908,0.9214 C8.4028,0.9624 8.5108,1.0694 8.5788,1.1724 C8.9588,1.7524 9.3708,2.3184 9.6838,2.9344 C9.9348,3.4294 10.0488,3.9944 10.2488,4.5174 C10.3598,4.8084 10.4658,5.1354 10.6748,5.3484 C11.0168,5.6954 11.0078,6.0874 10.9878,6.5064 C10.9518,6.5234 10.9148,6.5404 10.8778,6.5564" id="Fill-5"></path>
            </g>
            <path d="M122.8806,12.4064 C122.8806,12.8094 122.9106,13.2154 122.8726,13.6144 C122.8316,14.0344 122.7156,14.4464 122.6516,14.8644 C122.5896,15.2724 122.5666,15.6874 122.5016,16.0944 C122.4566,16.3714 122.3546,16.6364 122.3026,16.9124 C122.2316,17.2894 122.1976,17.6744 122.1196,18.0504 C122.0696,18.2874 121.9826,18.5184 121.8866,18.7424 C121.7416,19.0774 121.5866,19.4084 121.4126,19.7294 C121.1736,20.1724 120.9256,20.6114 120.6576,21.0374 C120.4856,21.3114 120.2916,21.5784 120.0706,21.8144 C119.7706,22.1364 119.4716,22.4514 118.9816,22.5314 C118.1706,22.6634 117.3856,22.6904 116.6266,22.3164 C115.5096,21.7654 114.3456,21.2934 113.2916,20.6414 C112.6356,20.2364 112.1376,19.5714 111.5826,19.0094 C110.9676,18.3854 110.3606,17.7544 109.7626,17.1144 C109.2436,16.5594 108.7446,15.9864 108.2306,15.4274 C108.1336,15.3234 108.0146,15.2374 107.8976,15.1544 C107.4846,14.8594 107.0056,15.0894 106.9536,15.6034 C106.9526,15.6184 106.9516,15.6334 106.9526,15.6464 C107.0356,16.8714 106.8326,18.0754 106.7186,19.2884 C106.6156,20.3884 106.6176,21.4994 106.5836,22.6054 C106.5636,23.2644 106.1666,23.7154 105.6616,23.9944 C104.5416,24.6144 103.4466,23.8884 103.4866,22.6024 C103.5156,21.6834 103.5526,20.7644 103.5876,19.8454 C103.5906,19.7604 103.5786,19.6624 103.6136,19.5904 C104.1056,18.5954 103.8976,17.5304 103.9486,16.4904 C103.9586,16.2844 104.0416,16.0804 104.0936,15.8764 C104.1466,15.6704 104.2456,15.4654 104.2476,15.2594 C104.2556,14.3254 104.2376,13.3914 104.2276,12.4584 C104.2156,11.3384 104.7246,10.5164 105.7286,10.0594 C106.2636,9.8164 106.8336,10.0114 107.2756,10.3474 C108.2406,11.0784 109.1316,11.9104 110.1156,12.6134 C110.9446,13.2044 111.5116,13.9904 112.1216,14.7704 C112.6666,15.4694 113.3306,16.0734 113.9366,16.7234 C114.3276,17.1424 114.7426,17.5454 115.0866,18.0014 C115.3736,18.3844 115.7036,18.6264 116.1566,18.7904 C116.6576,18.9724 117.1096,19.2834 117.5906,19.5254 C117.6806,19.5704 117.8146,19.5944 117.9046,19.5614 C118.3446,19.4034 118.7016,18.8124 118.7456,18.3344 C118.7716,18.0654 118.9056,17.8054 118.9976,17.5444 C119.0256,17.4654 119.0956,17.3944 119.1086,17.3144 C119.2386,16.4874 119.3976,15.6624 119.4776,14.8294 C119.5676,13.8864 119.5866,12.9374 119.6326,11.9914 C119.6376,11.8784 119.6476,11.7504 119.6046,11.6504 C119.3206,11.0034 119.5866,10.4754 119.9576,9.9714 C120.4766,9.2694 121.6866,9.2274 122.3206,9.8024 C122.7766,10.2134 122.9476,10.6524 122.8876,11.2424 C122.8486,11.6264 122.8806,12.0184 122.8806,12.4064" id="Fill-8" fill="#032E4E"></path>
            <path d="M98.6608,18.5373 C98.6308,17.8563 98.6288,17.8583 98.0988,17.4053 C98.0138,17.3323 97.9498,17.2323 97.8758,17.1443 C97.3458,16.5063 96.7848,15.9113 96.0538,15.4803 C95.6538,15.2453 95.2908,14.9783 94.7968,15.0003 C94.6928,15.0043 94.5868,14.9123 94.4778,14.8813 C94.1428,14.7833 93.8038,14.6143 93.4688,14.6183 C92.6128,14.6283 91.9268,14.3723 91.4498,13.6343 C91.3838,13.5313 91.2768,13.4273 91.1658,13.3863 C90.4608,13.1273 89.7818,13.4243 89.4278,14.1163 C89.3108,14.3453 89.1818,14.5703 89.0338,14.7793 C88.3598,15.7233 87.6468,16.6423 87.5948,17.8773 C87.5878,18.0423 87.4738,18.2003 87.4528,18.3683 C87.3968,18.7903 87.2248,19.2663 87.3558,19.6293 C87.5788,20.2483 87.5978,20.9433 88.0328,21.4953 C88.2468,21.7663 88.3338,22.1363 88.5338,22.4223 C88.7018,22.6643 88.9788,22.8293 89.1578,23.0663 C89.9918,24.1783 91.2858,23.9863 92.4218,24.2403 C92.4598,24.2493 92.5068,24.2273 92.5478,24.2153 C93.3338,23.9743 94.1198,23.7313 94.9048,23.4863 C94.9728,23.4663 95.0328,23.4213 95.0938,23.3853 C96.0498,22.8123 96.9168,22.1273 97.6318,21.2733 C97.9128,20.9363 98.1558,20.5363 98.3028,20.1253 C98.4838,19.6173 98.5468,19.0683 98.6608,18.5373 M91.6138,27.0413 C90.9498,26.9653 90.3778,26.9593 89.8388,26.8243 C89.1358,26.6473 88.3728,26.4943 87.7908,26.1013 C87.1298,25.6553 86.6128,24.9793 86.0808,24.3623 C85.4308,23.6073 84.9608,22.7253 84.6868,21.7753 C84.5218,21.2043 84.4978,20.5823 84.4868,19.9823 C84.4728,19.2943 84.5408,18.6043 84.5798,17.9173 C84.6228,17.1703 84.8608,16.4953 85.2808,15.8683 C85.5348,15.4883 85.6838,15.0383 85.9388,14.6583 C86.3188,14.0913 86.7728,13.5733 87.1548,13.0073 C87.5358,12.4423 87.9508,11.9153 88.5738,11.6193 C89.0628,11.3873 89.5728,11.1803 90.0948,11.0363 C90.8728,10.8233 91.5238,11.1133 91.9838,11.7463 C92.2578,12.1243 92.5908,12.2163 93.0168,12.2203 C93.8048,12.2273 94.5948,12.2393 95.3788,12.3083 C95.6888,12.3353 95.9858,12.5183 96.2908,12.6253 C96.5498,12.7163 96.8078,12.8563 97.0718,12.8713 C97.4338,12.8913 97.7058,12.9803 97.9928,13.2313 C98.3968,13.5863 98.8908,13.8373 99.3468,14.1323 C99.4668,14.2093 99.6168,14.2623 99.7008,14.3673 C100.1728,14.9603 100.6298,15.5643 101.0928,16.1663 C101.1008,16.1773 101.1138,16.1893 101.1158,16.2023 C101.2728,17.2053 101.5928,18.1983 101.0358,19.2003 C100.6728,19.8513 100.4138,20.5593 100.0968,21.2363 C99.9818,21.4803 99.8698,21.7433 99.6908,21.9373 C98.7878,22.9163 97.8668,23.8793 96.9418,24.8383 C96.8378,24.9453 96.6758,24.9953 96.5428,25.0763 C96.3298,25.2063 96.1178,25.3383 95.9078,25.4723 C95.7058,25.5993 95.5208,25.7663 95.3038,25.8503 C95.0258,25.9603 94.7538,25.9993 94.5888,26.3283 C94.5238,26.4573 94.1508,26.5013 93.9368,26.4673 C93.5968,26.4113 93.2968,26.2823 93.1188,26.7353 C93.0778,26.8423 92.8578,26.9133 92.7098,26.9343 C92.3138,26.9923 91.9118,27.0143 91.6138,27.0413" id="Fill-10" fill="#032E4E"></path>
            <path d="M68.3825,23.4015 C68.2595,22.6855 68.0915,21.7875 67.9585,20.8845 C67.9045,20.5175 67.9535,20.1365 67.9105,19.7675 C67.8255,19.0585 67.7095,18.3535 67.6055,17.6475 C67.5845,17.5055 67.5445,17.3655 67.5365,17.2235 C67.4915,16.4035 67.0005,16.0825 66.2295,16.4865 C65.9755,16.6195 65.6785,16.6755 65.3955,16.7445 C65.0205,16.8365 64.6405,16.9035 64.2635,16.9825 C63.6595,17.1095 63.0615,17.2765 62.4525,17.3525 C61.8855,17.4235 61.2685,16.9095 61.1275,16.3405 C61.0285,15.9395 61.3665,15.3035 61.8505,15.0805 C62.5645,14.7515 63.3165,14.5005 64.0105,14.1375 C64.9345,13.6555 65.9395,13.5295 66.9305,13.3205 C67.2985,13.2425 67.6405,13.0135 68.0085,12.9655 C68.7575,12.8695 69.5175,12.8135 70.2735,12.8055 C71.0725,12.7985 71.8775,12.8325 72.6725,12.9175 C73.1795,12.9705 73.5555,13.4985 73.5845,14.0255 C73.6065,14.4305 73.2965,14.8195 72.8165,15.0005 C72.2665,15.2075 71.7135,15.4045 71.1775,15.6435 C71.0595,15.6965 70.9355,15.9155 70.9455,16.0475 C71.0125,16.8875 71.1135,17.7275 71.2075,18.5665 C71.2285,18.7515 71.2975,18.9345 71.2925,19.1165 C71.2705,19.8415 71.3345,20.5445 71.6065,21.2325 C71.7125,21.4985 71.6685,21.8275 71.6725,22.1285 C71.6815,22.9625 71.6915,23.7975 71.6735,24.6305 C71.6695,24.8325 71.5675,25.0345 71.4965,25.2305 C71.4455,25.3775 71.3375,25.5095 71.3135,25.6585 C71.2185,26.2545 70.7015,26.8325 70.1235,26.9575 C69.6685,27.0555 69.3205,26.8435 69.0185,26.4045 C68.4345,25.5525 68.1045,24.6505 68.3825,23.4015" id="Fill-12" fill="#032E4E"></path>
            <path d="M56.9694,25.4347 C56.8744,24.9607 56.7694,24.4887 56.6874,24.0117 C56.6214,23.6317 56.5284,23.2457 56.5434,22.8657 C56.6024,21.4467 56.4034,20.0557 56.1424,18.6697 C56.1324,18.6137 56.1364,18.5367 56.1014,18.5057 C55.6834,18.1457 55.7524,17.6417 55.7404,17.1837 C55.7264,16.6697 55.4534,16.2987 55.1924,15.9077 C54.8014,15.3197 54.9054,14.2287 55.4004,13.8037 C55.9454,13.3347 56.6224,13.4117 57.2444,13.4777 C57.6404,13.5197 57.9714,13.8897 58.0114,14.3217 C58.0714,14.9777 58.4234,15.4897 58.6844,16.0567 C58.9264,16.5807 59.0124,17.1757 59.1684,17.7397 C59.2394,17.9977 59.3174,18.2527 59.3844,18.5117 C59.4434,18.7437 59.4904,18.9777 59.5424,19.2097 C59.6474,19.6767 59.7544,20.1427 59.8554,20.6097 C59.8864,20.7477 59.9164,20.8897 59.9174,21.0297 C59.9244,21.5767 59.8964,22.1237 59.9264,22.6687 C59.9454,23.0087 59.9884,23.3687 60.1204,23.6767 C60.4474,24.4397 60.3274,25.1537 60.0014,25.8687 C59.9604,25.9577 59.9014,26.0677 59.9204,26.1527 C60.0924,26.9477 59.4494,27.3067 59.0224,27.7337 C58.5374,28.2187 57.4514,27.7617 57.2674,27.0577 C57.2264,26.9017 57.1214,26.7617 57.0574,26.6107 C56.9974,26.4707 56.9244,26.3277 56.9094,26.1807 C56.8854,25.9387 56.9024,25.6927 56.9024,25.4477 C56.9254,25.4437 56.9474,25.4397 56.9694,25.4347" id="Fill-14" fill="#032E4E"></path>
            <path d="M79.7526,22.9123 C79.6476,22.6083 79.5296,22.3083 79.4416,22.0003 C79.3726,21.7563 79.3376,21.5013 79.2926,21.2513 C79.1946,20.7063 79.0976,20.1613 79.0026,19.6163 C78.9686,19.4193 78.9406,19.2213 78.9106,19.0233 C78.8566,18.6703 78.8656,18.2913 78.7356,17.9693 C78.4136,17.1703 78.5046,16.3413 78.5656,15.5403 C78.5976,15.1083 78.7746,14.5473 79.3906,14.4293 C79.4706,14.4133 79.5416,14.3473 79.6126,14.2993 C80.2726,13.8543 80.6646,13.9173 81.0946,14.5813 C81.3746,15.0133 81.6226,15.4523 81.5596,16.0193 C81.5336,16.2563 81.7266,16.5113 81.7946,16.7653 C81.9266,17.2613 82.4096,17.6313 82.3036,18.2143 C82.2876,18.3043 82.3086,18.4553 82.3686,18.4963 C82.7476,18.7553 82.6916,19.1313 82.6816,19.5033 C82.6786,19.6013 82.6836,19.7213 82.7336,19.7973 C83.2306,20.5433 83.1456,21.4173 83.2416,22.2403 C83.3196,22.9063 83.1486,23.5603 82.8166,24.1713 C82.7016,24.3823 82.6656,24.6743 82.6926,24.9183 C82.7496,25.4153 82.5286,25.7973 82.2246,26.1163 C82.1106,26.2343 81.8136,26.2223 81.6086,26.1963 C81.3786,26.1683 81.1646,26.0243 80.9346,25.9913 C80.6416,25.9503 80.4806,25.8343 80.3906,25.5373 C80.2006,24.9053 79.9556,24.2903 79.7556,23.6613 C79.6836,23.4333 79.6766,23.1843 79.6396,22.9453 C79.6766,22.9343 79.7146,22.9233 79.7526,22.9123" id="Fill-16" fill="#032E4E"></path>
            <path d="M157.8757,13.383 C157.8697,13.383 157.8637,13.383 157.8567,13.384 C157.8767,13.828 157.8847,14.273 157.9267,14.715 C157.9367,14.818 158.0447,14.952 158.1407,14.99 C158.2117,15.019 158.3687,14.942 158.4297,14.864 C158.8797,14.307 159.3187,13.739 159.7517,13.168 C159.7987,13.108 159.8037,13.004 159.8037,12.921 C159.8047,12.648 159.8037,12.374 159.7847,12.103 C159.7417,11.482 159.6007,11.391 158.9867,11.559 C158.9057,11.581 158.8187,11.596 158.7357,11.593 C158.1757,11.571 157.8847,11.837 157.8767,12.392 C157.8717,12.722 157.8757,13.053 157.8757,13.383 L157.8757,13.383 Z M164.7307,23.545 C164.7307,23.387 164.7097,23.225 164.7337,23.071 C164.9087,21.957 163.7297,20.948 162.7587,20.902 C162.4447,20.887 162.1387,20.729 161.8277,20.645 C161.6477,20.596 161.4657,20.537 161.2837,20.528 C160.7517,20.502 160.2177,20.523 159.6897,20.478 C159.4197,20.454 159.1377,20.367 158.8977,20.239 C158.5127,20.034 158.4117,20.097 158.2687,20.518 C158.0977,21.022 158.2087,21.496 158.2467,21.992 C158.2987,22.679 158.2207,23.375 158.2677,24.063 C158.3047,24.617 158.0067,24.933 157.6047,25.171 C157.1717,25.428 156.7647,25.217 156.4027,24.963 C155.7417,24.498 155.3097,23.841 154.9397,23.139 C154.9077,23.076 154.8787,23.004 154.8747,22.935 C154.8127,22.035 154.7527,21.136 154.6977,20.236 C154.6807,19.963 154.6837,19.69 154.6727,19.417 C154.6127,17.924 154.5477,16.432 154.4937,14.939 C154.4777,14.512 154.4597,14.08 154.4977,13.656 C154.5617,12.932 154.2307,12.459 153.6377,12.108 C153.2577,11.883 153.1897,11.01 153.5127,10.579 C154.4867,9.282 155.7817,8.655 157.4107,8.719 C158.2107,8.75 159.0177,8.821 159.8107,8.754 C160.8337,8.669 161.5917,9.118 162.2537,9.785 C162.6957,10.229 163.0747,10.737 163.4497,11.24 C163.5497,11.374 163.5587,11.594 163.5657,11.776 C163.5817,12.163 163.5627,12.553 163.5697,12.941 C163.5767,13.258 163.6207,13.574 163.2957,13.791 C163.2307,13.835 163.2327,13.973 163.1977,14.065 C163.0977,14.326 163.0397,14.617 162.8837,14.841 C162.5177,15.371 162.2637,15.967 161.7867,16.441 C161.3107,16.911 161.6977,17.744 162.3497,17.871 C162.7457,17.948 163.1307,18.113 163.5037,18.279 C164.4717,18.705 165.4907,19.07 166.2317,19.861 C166.6567,20.314 166.9707,20.871 167.3337,21.382 C167.3677,21.429 167.3917,21.493 167.4367,21.519 C168.1507,21.912 168.1767,22.569 168.1257,23.267 C168.1007,23.596 168.0757,23.936 168.1307,24.257 C168.2587,25.006 167.8377,25.616 167.6647,26.286 C167.5677,26.662 166.6337,26.727 166.2787,26.448 C165.9597,26.199 165.5317,26.054 165.2867,25.753 C165.0227,25.429 164.8647,24.99 164.7577,24.576 C164.6747,24.252 164.7407,23.89 164.7407,23.545 L164.7307,23.545 Z" id="Fill-18" fill="#032E4E"></path>
            <path d="M179.6325,12.9572 C179.7525,12.9642 179.7825,12.9722 179.8085,12.9662 C180.0755,12.8982 180.3615,12.6992 180.5865,13.0262 C180.7375,13.2482 180.6595,13.9392 180.4335,14.1062 C179.9165,14.4872 179.3715,14.8302 178.8365,15.1852 C178.6825,15.2862 178.5195,15.3752 178.3635,15.4732 C177.9515,15.7302 177.5495,15.9572 177.0375,16.0412 C176.4235,16.1412 175.8415,16.4332 175.2375,16.6172 C174.9975,16.6902 174.7365,16.7302 174.4855,16.7282 C173.8025,16.7232 173.4275,17.0762 173.4265,17.7672 C173.4255,18.2282 173.4185,18.6882 173.4295,19.1482 C173.4465,19.7752 173.8095,19.9812 174.3675,19.7582 C174.8155,19.5782 175.2975,19.4842 175.7625,19.3472 C176.5055,19.1282 177.2615,18.9452 177.9845,18.6732 C178.9375,18.3112 179.8575,17.8072 180.9185,18.2022 C181.1095,18.2732 181.2605,18.4622 181.4175,18.6112 C181.7265,18.9052 182.0455,19.1942 182.3245,19.5162 C182.5185,19.7392 182.8485,20.1162 182.7795,20.2472 C182.5775,20.6312 182.2655,21.0872 181.8905,21.2232 C181.0905,21.5132 180.2645,21.7102 179.4655,22.0522 C178.5435,22.4462 177.5085,22.5722 176.5345,22.8532 C176.0455,22.9942 175.5835,23.2292 175.1035,23.4062 C174.8395,23.5032 174.5665,23.6132 174.2905,23.6372 C173.8045,23.6782 173.3135,23.6522 172.8245,23.6612 C172.4465,23.6682 172.1115,23.6392 171.7885,23.3572 C171.5095,23.1152 171.1265,22.9782 170.7705,22.8452 C170.0695,22.5832 169.7485,21.9682 169.6935,21.3532 C169.6205,20.5392 169.7895,19.7002 169.8685,18.8732 C169.9105,18.4312 170.0245,17.9912 170.0325,17.5492 C170.0545,16.3542 170.0645,15.1582 170.0225,13.9652 C170.0065,13.5032 169.8495,13.0432 169.7365,12.5872 C169.5835,11.9772 169.5045,11.3242 169.2225,10.7782 C168.9175,10.1862 168.9485,9.5882 168.8725,8.9822 C168.8085,8.4792 169.1535,8.1982 169.4615,7.9562 C169.5935,7.8532 169.9675,7.9552 170.1745,8.0692 C170.9065,8.4732 171.5905,8.5502 172.3005,8.0082 C172.5435,7.8232 172.8685,7.7332 173.1685,7.6402 C173.6665,7.4832 174.1755,7.3582 174.6795,7.2192 C175.4375,7.0092 176.1975,6.8092 176.9505,6.5842 C177.5115,6.4162 177.9705,6.4782 178.3805,6.9552 C178.6135,7.2282 178.9885,7.3762 179.2375,7.6402 C179.3825,7.7942 179.5095,8.0982 179.4555,8.2762 C179.3895,8.4952 179.1545,8.7092 178.9405,8.8272 C178.5055,9.0652 178.0125,9.2012 177.5815,9.4452 C176.6285,9.9842 175.7015,10.5692 174.7565,11.1222 C174.5505,11.2422 174.3185,11.3502 174.0875,11.3862 C173.4425,11.4852 172.9485,11.8592 172.9205,12.4922 C172.9065,12.7732 173.1775,13.0822 173.3575,13.3532 C173.5265,13.6062 173.7175,13.4872 173.9425,13.3612 C174.4425,13.0832 174.9705,12.8552 175.4875,12.6092 C175.5385,12.5862 175.5985,12.5612 175.6535,12.5652 C176.6405,12.6352 177.4725,12.1492 178.3545,11.8292 C178.6135,11.7342 178.9245,11.7222 179.2025,11.7522 C179.6575,11.8022 179.8545,12.1992 179.6875,12.6232 C179.6505,12.7182 179.6525,12.8282 179.6325,12.9572" id="Fill-20" fill="#032E4E"></path>
            <path d="M196.9621,9.2384 C197.2631,10.2434 196.3291,10.3444 195.6931,10.6514 C194.9411,11.0134 194.1611,11.3224 193.3871,11.6404 C192.7701,11.8944 192.1561,12.1694 191.5191,12.3584 C190.9041,12.5414 190.2651,12.7024 189.6291,12.7344 C188.7931,12.7764 188.3311,13.7624 188.7931,14.5174 C188.9421,14.7614 189.1471,14.9154 189.4761,14.8484 C190.1051,14.7224 190.7371,14.6174 191.3711,14.5144 C191.6101,14.4764 191.8581,14.4394 192.0991,14.4574 C192.9301,14.5164 193.7281,14.3434 194.5231,14.1444 C195.1461,13.9884 195.2761,14.0214 195.6521,14.5464 C196.0601,15.1144 196.4541,15.6924 196.8361,16.2784 C197.0911,16.6714 196.9351,17.0174 196.4771,17.1054 C195.7661,17.2424 195.1151,17.5974 194.3541,17.5794 C193.9941,17.5714 193.6361,17.8634 193.2631,17.9254 C191.8791,18.1534 190.4921,18.4054 189.0971,18.5144 C188.5181,18.5604 187.9041,18.3014 187.3231,18.1254 C186.9291,18.0054 186.5781,17.7414 186.1841,17.6214 C185.5721,17.4334 185.3711,16.9404 185.2071,16.4254 C185.0951,16.0704 185.0521,15.6934 184.9911,15.3244 C184.9691,15.1854 184.9701,15.0394 184.9861,14.8994 C185.0581,14.3044 185.2051,13.7114 185.2061,13.1164 C185.2091,11.1454 185.1571,9.1744 185.1341,7.2034 C185.1281,6.6934 185.0591,6.1624 185.1761,5.6784 C185.3461,4.9684 186.0711,4.5374 186.8091,4.5554 C186.9211,4.5584 187.0431,4.5494 187.1471,4.5084 C187.8781,4.2224 188.6001,3.9114 189.3381,3.6434 C189.6301,3.5374 189.9521,3.5094 190.2641,3.4674 C190.4621,3.4394 190.6781,3.4894 190.8651,3.4334 C191.5141,3.2424 191.9751,3.5084 192.5091,3.8714 C193.1491,4.3064 193.6221,4.8424 194.0461,5.4584 C194.4721,6.0784 194.2641,6.6144 193.5191,6.5964 C192.5861,6.5754 191.7511,6.8714 190.9051,7.1754 C190.7981,7.2144 190.6721,7.2594 190.5691,7.2364 C189.9401,7.0994 189.3931,7.3664 188.9391,7.7014 C188.6561,7.9104 188.4811,8.3504 188.4051,8.7184 C188.3641,8.9154 188.5871,9.2484 188.7841,9.3854 C188.9391,9.4934 189.2501,9.4394 189.4691,9.3794 C190.2191,9.1704 190.9621,8.9334 191.7031,8.6954 C192.3111,8.4994 192.9191,8.3014 193.5171,8.0784 C194.0321,7.8864 194.5291,7.6494 195.0401,7.4474 C195.9871,7.0734 197.0141,7.8104 196.9811,8.8344 C196.9771,8.9344 196.9711,9.0354 196.9621,9.2384" id="Fill-22" fill="#032E4E"></path>
            <path d="M206.8029,22.4191 C205.6469,22.4191 204.7299,22.4591 203.8179,22.4081 C202.9139,22.3571 202.1189,22.0151 201.5429,21.2681 C201.4489,21.1461 201.3419,20.9761 201.2149,20.9471 C200.7879,20.8541 200.6259,20.6161 200.6209,20.1891 C200.6179,19.8581 200.3769,19.5451 200.6209,19.1961 C200.8479,18.8721 200.9839,18.4801 201.2289,18.1741 C201.6089,17.7021 202.0059,17.7501 202.3429,18.2431 C202.5659,18.5701 202.8199,18.8771 203.0259,19.2141 C203.2069,19.5101 203.4409,19.5531 203.7239,19.4311 C204.5049,19.0971 205.3259,19.0131 206.1639,18.9891 C206.3849,18.9821 206.6079,18.8521 206.8199,18.7581 C207.3469,18.5221 207.8729,18.2801 208.3929,18.0281 C208.5959,17.9301 208.8169,17.8311 208.9699,17.6741 C209.3949,17.2361 209.7929,16.7781 209.9119,16.1391 C209.9489,15.9411 210.1569,15.7771 210.2019,15.5781 C210.3409,14.9681 209.6159,14.1271 208.9839,14.1721 C208.6239,14.1981 208.3439,14.1061 208.0779,13.8731 C207.9539,13.7651 207.7769,13.7151 207.6199,13.6471 C206.9249,13.3481 206.2319,13.0431 205.5299,12.7581 C204.9479,12.5221 204.3609,12.2931 203.7649,12.0921 C202.7629,11.7531 201.8509,11.2581 201.0739,10.5411 C200.5259,10.0351 199.9959,9.5081 199.4909,8.9601 C199.0779,8.5151 199.1579,7.6381 199.5049,7.1501 C199.9199,6.5661 200.3979,6.0701 200.9869,5.6691 C201.0849,5.6031 201.1169,5.4461 201.2059,5.3571 C201.5679,4.9941 201.9359,4.6391 202.3059,4.2871 C202.6689,3.9431 203.0849,3.6451 203.3919,3.2591 C203.8899,2.6351 204.4809,2.3671 205.2719,2.4841 C205.6079,2.5341 205.9749,2.4401 206.2929,2.5311 C206.8309,2.6881 207.4419,2.8331 207.8279,3.1911 C208.0529,3.4011 207.9099,4.0181 207.9039,4.4501 C207.9039,4.4971 207.7119,4.5921 207.6179,4.5811 C206.7449,4.4821 206.1479,5.0021 205.5869,5.5271 C204.8829,6.1891 204.1979,6.8801 203.5879,7.6281 C203.3649,7.9011 203.3549,8.3691 203.3099,8.7551 C203.2979,8.8681 203.4819,9.0331 203.6109,9.1261 C203.9329,9.3591 204.2749,9.5671 204.6119,9.7801 C204.6939,9.8321 204.7869,9.8821 204.8809,9.8981 C205.9999,10.0931 206.9509,10.6561 207.8879,11.2541 C208.3059,11.5221 208.7009,11.8181 209.2499,11.8201 C209.4599,11.8211 209.6759,12.0321 209.8779,12.1651 C209.9829,12.2341 210.0459,12.3811 210.1549,12.4271 C210.6019,12.6141 211.0869,12.7261 211.5039,12.9611 C211.9039,13.1861 212.3629,13.3381 212.5599,13.8791 C212.7359,14.3611 213.1039,14.7731 213.3769,15.2221 C213.4769,15.3861 213.6029,15.5651 213.6179,15.7451 C213.6559,16.2031 213.6989,16.6761 213.6219,17.1221 C213.5539,17.5171 213.3839,17.9221 213.1579,18.2531 C212.6129,19.0521 212.0299,19.8271 211.4219,20.5801 C210.9389,21.1781 210.1689,21.2871 209.5059,21.5721 C209.0749,21.7591 208.6459,21.9611 208.1989,22.0951 C207.6689,22.2541 207.1209,22.3481 206.8029,22.4191" id="Fill-24" fill="#032E4E"></path>
            <path d="M144.9826,24.1583 C144.9826,24.6333 144.9286,25.1153 144.9956,25.5813 C145.0796,26.1623 144.8306,26.6013 144.5416,27.0453 C144.3486,27.3433 143.4506,27.4713 143.1526,27.2033 C142.6196,26.7223 141.9196,26.3763 141.7476,25.5803 C141.6996,25.3603 141.6046,25.1423 141.6006,24.9223 C141.5856,24.0303 141.6026,23.1383 141.5966,22.2473 C141.5936,21.6903 141.2226,21.3323 140.6826,21.2813 C140.4826,21.2623 140.2736,21.1643 140.1016,21.0523 C139.7906,20.8483 139.4956,20.6173 139.2106,20.3773 C138.9006,20.1153 138.8376,19.6413 139.0436,19.3193 C139.3986,18.7643 140.0616,18.4533 140.6726,18.6543 C141.1386,18.8073 141.2436,18.5873 141.3726,18.2333 C141.7136,17.3033 141.4676,16.3863 141.3526,15.4643 C141.3066,15.0953 141.2716,14.7263 141.2136,14.3613 C141.1166,13.7573 140.9936,13.1563 140.9056,12.5513 C140.8586,12.2273 140.8526,11.8963 140.8436,11.5683 C140.8326,11.1253 140.8376,10.6813 140.8336,10.2383 C140.8316,9.9383 140.6986,9.7543 140.3826,9.7113 C139.6526,9.6133 139.1696,9.0873 138.6466,8.6553 C138.2566,8.3363 138.4626,7.2303 138.9196,7.0043 C139.0196,6.9533 139.1686,6.9613 139.2846,6.9873 C139.6146,7.0603 139.9396,7.1583 140.2676,7.2423 C140.3646,7.2673 140.4876,7.2473 140.5606,7.3013 C141.1066,7.7043 141.7346,7.5853 142.3456,7.6313 C143.0676,7.6843 143.7826,7.8243 144.5016,7.9293 C144.6436,7.9493 144.7836,7.9993 144.9256,8.0013 C145.8926,8.0093 146.7106,8.3963 147.4776,8.9513 C148.0886,9.3923 148.6976,9.8533 149.3656,10.1923 C149.6856,10.3543 149.9366,10.5003 150.1226,10.8043 C150.4126,11.2783 150.3516,11.7233 149.9056,12.0483 C149.8386,12.0953 149.7356,12.1573 149.6746,12.1373 C149.2686,12.0043 148.8596,11.8713 148.4696,11.6983 C147.9936,11.4873 147.5516,11.1853 147.0626,11.0163 C146.4546,10.8063 145.8146,10.6873 145.1856,10.5383 C144.7486,10.4343 144.3206,10.4323 143.9826,10.7913 C143.7886,10.9973 143.8156,11.7953 143.9546,12.1233 C144.0796,12.4173 144.1406,12.7373 144.2236,13.0483 C144.3106,13.3783 144.3966,13.7073 144.4706,14.0403 C144.5236,14.2753 144.5826,14.5133 144.5956,14.7533 C144.6486,15.6563 144.6576,16.5623 144.7386,17.4633 C144.7686,17.7913 144.9326,18.1153 145.0806,18.4193 C145.1256,18.5113 145.3216,18.5753 145.4476,18.5753 C146.4826,18.5743 147.5246,18.6283 148.5476,18.5183 C149.3736,18.4303 150.0316,18.6733 150.6846,19.0993 C150.8666,19.2193 151.0996,19.2563 151.3036,19.3443 C151.4746,19.4163 151.7656,19.4923 151.7776,19.5943 C151.8116,19.8733 151.8346,20.2823 151.6696,20.4343 C151.1276,20.9403 150.4456,21.1653 149.6916,20.9773 C149.3066,20.8823 148.9626,20.8573 148.6516,21.1693 C148.5596,21.2623 148.3976,21.2993 148.2596,21.3283 C147.4906,21.4913 146.7346,21.7683 145.9246,21.5823 C145.7936,21.5523 145.6416,21.6233 145.4986,21.6263 C145.1076,21.6363 144.9766,21.8543 144.9816,22.2153 C144.9886,22.8623 144.9826,23.5113 144.9826,24.1583" id="Fill-26" fill="#032E4E"></path>
            <path d="M247.7751,10.4162 C247.7751,11.2222 247.7771,12.0272 247.7721,12.8342 C247.7721,12.9602 247.7831,13.1322 247.7111,13.2052 C247.3411,13.5812 247.4521,14.0532 247.3721,14.4962 C247.2971,14.9152 247.0311,15.3012 246.8451,15.6982 C246.7961,15.8012 246.6871,15.8932 246.6791,15.9942 C246.6091,16.9692 245.7891,17.3042 245.1661,17.8162 C244.4901,18.3732 243.6491,18.2912 242.8751,18.3982 C242.5161,18.4492 242.0821,18.1892 241.7251,17.9912 C240.7701,17.4582 239.9841,16.7212 239.2581,15.9002 C238.9201,15.5192 238.4691,15.2372 238.3111,14.7132 C238.2621,14.5492 238.2561,14.3342 238.1461,14.2332 C237.4991,13.6402 237.3081,12.8112 236.9601,12.0612 C236.8241,11.7682 236.6061,11.5152 236.4371,11.2352 C236.0481,10.5922 235.7131,9.9402 235.6331,9.1592 C235.6011,8.8462 235.2641,8.5712 235.1071,8.2592 C234.8841,7.8162 234.7091,7.3502 234.4941,6.9022 C234.3521,6.6082 234.2001,6.3122 234.0081,6.0502 C233.6531,5.5652 233.6331,5.0242 233.7361,4.4852 C233.8521,3.8842 234.5051,3.6222 235.0161,3.9692 C235.3011,4.1622 235.5461,4.4342 235.7621,4.7062 C236.1771,5.2292 236.5981,5.7542 236.9421,6.3222 C237.2011,6.7512 237.3141,7.2662 237.5491,7.7122 C237.8121,8.2112 238.1371,8.6782 238.4381,9.1562 C238.4911,9.2402 238.5771,9.3082 238.6141,9.3972 C238.8991,10.0862 239.1451,10.7932 239.4621,11.4662 C239.7681,12.1142 240.1381,12.7322 240.4921,13.3572 C240.7861,13.8772 241.0531,14.4222 241.4211,14.8852 C241.5971,15.1052 241.9781,15.2532 242.2701,15.2612 C242.4541,15.2652 242.6681,14.9672 242.8281,14.7712 C242.9971,14.5662 243.1361,14.3312 243.2551,14.0922 C243.4931,13.6182 243.7201,13.1382 243.9251,12.6482 C243.9941,12.4832 243.9811,12.2832 244.0071,12.1002 C244.1031,11.4372 244.2441,10.7782 244.2851,10.1122 C244.3471,9.1252 244.3671,8.1322 244.3401,7.1442 C244.3331,6.8532 244.1471,6.5412 243.9741,6.2862 C243.6451,5.8032 243.6651,5.1612 243.1951,4.7302 C243.0321,4.5802 243.0411,4.2352 242.9861,3.9772 C242.9641,3.8672 243.0021,3.7452 242.9781,3.6362 C242.8511,3.0502 243.1891,2.5932 243.7921,2.5992 C244.2821,2.6042 244.7521,2.6642 245.1171,3.0862 C245.5301,3.5622 246.0351,3.9612 246.4281,4.4502 C246.6891,4.7752 246.8321,5.1972 247.0121,5.5832 C247.1191,5.8122 247.2201,6.0492 247.2821,6.2922 C247.4561,6.9732 247.6711,7.6522 247.7531,8.3462 C247.8331,9.0262 247.7701,9.7252 247.7701,10.4162 L247.7751,10.4162 Z" id="Fill-28" fill="#032E4E"></path>
            <g id="Group-32" transform="translate(251.000000, 0.616400)">
                <mask id="mask-2" fill="white">
                    <use xlink:href="#path-1"></use>
                </mask>
                <g id="Clip-31"></g>
                <path d="M11.9494,11.9267 C11.8654,12.1257 11.7704,12.5787 11.5164,12.9097 C10.8474,13.7867 10.3204,14.7757 9.3534,15.4267 C8.9354,15.7077 8.4974,15.9827 8.1064,16.2887 C7.1714,17.0227 6.1064,16.8217 5.0814,16.8477 C4.7784,16.8557 4.4404,16.5627 4.1664,16.3467 C3.7404,16.0107 3.2784,15.6767 2.9724,15.2417 C2.6964,14.8507 2.5924,14.3297 2.4554,13.8537 C2.4274,13.7527 2.5674,13.5047 2.6594,13.4877 C2.8804,13.4467 3.1654,13.4267 3.3424,13.5337 C3.8944,13.8647 4.4904,14.0307 5.0664,13.7907 C5.5094,13.6057 5.8784,13.2257 6.2524,12.9007 C6.5954,12.6027 6.8954,12.2527 7.2284,11.9407 C7.6324,11.5617 7.5884,10.7457 7.1204,10.4347 C6.8584,10.2607 6.5764,10.1147 6.2954,9.9717 C5.2994,9.4617 4.2744,9.0017 3.3124,8.4327 C2.8364,8.1517 2.4704,7.6797 2.0644,7.2827 C1.8394,7.0627 1.6594,6.7907 1.4194,6.5907 C0.8314,6.1047 0.7614,5.4327 0.8554,4.7837 C1.0034,3.7607 1.4904,2.8727 2.2264,2.1267 C2.6484,1.7007 3.0274,1.2327 3.4554,0.8137 C3.5944,0.6787 3.8244,0.6307 4.0194,0.5607 C5.1564,0.1437 6.2934,0.5977 7.4314,0.5737 C7.5454,0.5717 7.7194,0.6687 7.7694,0.7687 C8.1824,1.5967 7.7524,2.4637 6.9604,2.9477 C6.2454,3.3837 5.4044,3.7347 4.9634,4.5157 C4.7744,4.8497 4.6954,5.2647 4.6504,5.6537 C4.6324,5.8017 4.8124,6.0357 4.9654,6.1307 C6.0094,6.7807 7.0324,7.4797 8.2634,7.7577 C8.3644,7.7807 8.4504,7.8767 8.5364,7.9477 C9.0464,8.3577 9.5444,8.7767 10.2134,8.9227 C10.8024,9.0527 11.1944,9.5477 11.1894,10.1387 C11.1864,10.4847 11.2484,10.7387 11.6164,10.8877 C11.9194,11.0107 11.9764,11.2307 11.9494,11.9267" id="Fill-30" fill="#032E4E" mask="url(#mask-2)"></path>
            </g>
            <path d="M269.2516,14.2169 C269.7926,14.3499 270.4186,14.1379 270.6616,14.8659 C270.8666,15.4809 270.3876,16.2379 269.7276,16.2329 C269.3466,16.2309 268.9266,16.3079 268.5966,16.1719 C268.1976,16.0079 267.7836,15.7189 267.5466,15.3679 C267.3366,15.0569 267.6166,14.6559 267.9506,14.5239 C268.3736,14.3549 268.8446,14.3069 269.2516,14.2169" id="Fill-33" fill="#032E4E"></path>
        </g>
    </g>
</svg>