<?xml version="1.0" encoding="UTF-8" standalone="no"?>
<svg width="328px" height="35px" viewBox="0 0 328 35" version="1.1" xmlns="http://www.w3.org/2000/svg" xmlns:xlink="http://www.w3.org/1999/xlink">
    <!-- Generator: Sketch 44.1 (41455) - http://www.bohemiancoding.com/sketch -->
    <title>Group</title>
    <desc>Created with Sketch.</desc>
    <defs></defs>
    <g id="Page-1" stroke="none" stroke-width="1" fill="none" fill-rule="evenodd">
        <g id="Group" fill="#004461">
            <path d="M21.6978,20.3133 C21.6308,20.5173 21.5478,20.7183 21.4998,20.9263 C21.2538,21.9863 21.0468,23.0563 20.7658,24.1063 C20.5818,24.7983 20.3198,25.4743 20.0478,26.1373 C19.6348,27.1383 19.2218,28.1443 18.7288,29.1063 C18.4768,29.5983 18.0858,30.0383 17.6878,30.4313 C17.3518,30.7623 16.8378,30.5473 16.3018,30.1843 C15.7668,29.8223 15.7378,29.4763 15.9618,28.7583 C16.1278,28.2253 16.4108,27.7693 16.6948,27.2953 C16.9408,26.8863 17.0478,26.3823 17.1568,25.9073 C17.5588,24.1523 17.8858,22.3783 18.3408,20.6373 C18.6748,19.3553 19.1648,18.1143 19.5788,16.8533 C19.6678,16.5843 19.7408,16.3063 19.7968,16.0283 C19.9168,15.4333 20.2438,15.0783 20.7978,14.7723 C21.5068,14.3813 22.1698,14.4213 22.8358,14.6873 C23.1408,14.8093 23.3928,15.1263 23.6078,15.4023 C24.0768,16.0053 24.3978,16.6843 24.5658,17.4423 C24.6948,18.0253 24.9258,18.5853 25.0588,19.1673 C25.1298,19.4753 25.0888,19.8093 25.0968,20.1303 C25.1568,20.1553 25.2178,20.1783 25.2778,20.2023 C25.4048,20.0553 25.5498,19.9193 25.6568,19.7583 C25.8028,19.5403 25.9188,19.2993 26.0528,19.0713 C26.2958,18.6593 26.5428,18.2503 26.7868,17.8383 C27.0098,17.4603 27.2248,17.0783 27.4558,16.7053 C27.9278,15.9383 28.3998,15.1713 28.8888,14.4163 C29.0978,14.0943 29.3388,13.7913 29.5868,13.4983 C29.9098,13.1153 30.1358,12.6553 30.6248,12.4053 C31.0618,12.1803 31.4928,12.0933 31.9678,12.1763 C32.1588,12.2093 32.3618,12.2183 32.5358,12.2933 C32.7218,12.3753 32.9478,12.4833 33.0378,12.6453 C33.3238,13.1573 33.5688,13.6823 33.5938,14.3003 C33.6178,14.9163 33.7368,15.5273 33.8138,16.1393 C33.8148,16.1533 33.8158,16.1663 33.8148,16.1783 C33.7848,16.7763 33.7748,17.3753 33.7188,17.9703 C33.6588,18.6223 33.5238,19.2683 33.4848,19.9213 C33.4548,20.4233 33.5218,20.9323 33.5468,21.4383 C33.5498,21.5023 33.5588,21.5673 33.5518,21.6303 C33.4608,22.4693 33.3478,23.3073 33.2788,24.1483 C33.2208,24.8513 33.2148,25.5583 33.1778,26.2633 C33.1708,26.4303 33.1328,26.5953 33.1208,26.7623 C33.0718,27.4163 32.9528,28.0743 33.0028,28.7203 C33.0628,29.5003 32.7668,30.1953 32.6628,30.9333 C32.6558,30.9803 32.6248,31.0343 32.5878,31.0653 C32.2428,31.3643 31.9168,31.6903 31.5428,31.9473 C30.8268,32.4373 29.8048,31.9603 29.6288,31.1143 C29.4658,30.3323 29.6278,29.5673 29.6988,28.8013 C29.7958,27.7773 30.0668,26.7623 30.0948,25.7393 C30.1278,24.5803 30.3008,23.4433 30.4118,22.2963 C30.4688,21.7023 30.4118,21.0973 30.4098,20.4973 C30.4098,20.3813 30.4168,20.2653 30.4348,20.1523 C30.5068,19.7003 30.7278,19.2613 30.5268,18.7853 C30.4888,18.6953 30.5708,18.5603 30.5758,18.4453 C30.5968,17.9633 30.6268,17.4813 30.6208,17.0003 C30.6168,16.7513 30.3938,16.7673 30.2898,16.8833 C30.0188,17.1843 29.7648,17.5063 29.5488,17.8473 C29.2918,18.2513 29.0788,18.6833 28.8488,19.1053 C28.6978,19.3843 28.5568,19.6703 28.4028,19.9483 C28.0428,20.5963 27.6768,21.2413 27.3138,21.8863 C27.0638,22.3303 26.8048,22.7673 26.5658,23.2163 C26.3068,23.7003 25.9068,24.0293 25.4578,24.3193 C25.1978,24.4873 24.9418,24.6663 24.7098,24.8683 C24.4558,25.0903 24.2358,25.1543 23.9118,24.9683 C23.5718,24.7743 23.1138,24.7613 22.9418,24.3283 C22.6618,23.6243 22.3098,22.9393 22.3758,22.1393 C22.3878,21.9913 22.2788,21.8353 22.2438,21.6793 C22.1628,21.3223 22.1018,20.9603 22.0128,20.6063 C21.9858,20.4963 21.8958,20.4023 21.8348,20.3003 C21.7888,20.3043 21.7438,20.3093 21.6978,20.3133" id="Fill-1"></path>
            <path d="M38.7857,26.4071 C38.7647,26.4041 38.7447,26.4011 38.7247,26.3971 C38.6217,26.8651 38.5257,27.3351 38.4137,27.8011 C38.3427,28.0941 38.4167,28.2611 38.7307,28.3411 C39.2797,28.4801 39.8227,28.6451 40.3637,28.8141 C41.4487,29.1531 42.5357,29.4871 43.6117,29.8541 C44.1437,30.0361 44.5777,29.8771 44.9807,29.5671 C45.2027,29.3971 45.3897,29.1811 45.5867,28.9781 C45.7557,28.8031 45.9187,28.6221 46.0757,28.4361 C46.3947,28.0601 46.7337,27.6971 47.0167,27.2961 C47.2487,26.9681 47.2057,26.5661 46.9657,26.2761 C46.5597,25.7881 46.0977,25.3451 45.6467,24.8971 C45.1397,24.3941 44.5097,24.1011 43.8227,23.9521 C43.4127,23.8631 42.9857,23.8231 42.5647,23.8151 C41.8937,23.8031 41.5847,23.2771 41.1527,22.9091 C40.7287,22.5481 41.0007,21.6721 41.3847,21.4721 C41.9147,21.1971 42.4067,20.8451 42.9117,20.5221 C44.0507,19.7931 44.8407,18.7451 45.5627,17.6321 C45.6977,17.4241 45.7937,17.2041 45.6137,17.0401 C45.4757,16.9141 45.2317,16.8681 45.0307,16.8551 C44.3417,16.8101 43.6497,16.8111 42.9617,16.7611 C42.6707,16.7401 42.3977,16.6141 42.1067,16.8121 C41.9847,16.8951 41.7807,16.8791 41.6147,16.8751 C41.0007,16.8621 40.3857,16.8291 39.7707,16.8221 C39.6357,16.8201 39.4727,16.8581 39.3697,16.9381 C39.2817,17.0071 39.1857,17.2041 39.2227,17.2731 C39.6137,17.9961 39.1757,18.7471 39.3217,19.4831 C39.4117,19.9361 39.3167,20.4261 39.3177,20.8981 C39.3187,21.4701 39.3937,22.0491 39.3287,22.6131 C39.1827,23.8821 38.9717,25.1431 38.7857,26.4071 M35.3627,27.1271 C35.6037,25.6871 35.8937,24.1491 36.1067,22.6011 C36.2007,21.9121 36.1267,21.2011 36.1507,20.5011 C36.1697,19.9561 36.2357,19.4121 36.2547,18.8671 C36.2667,18.4871 36.2797,18.0971 36.2117,17.7271 C36.1047,17.1481 36.0117,16.5831 36.1907,16.0011 C36.2787,15.7181 36.3237,15.4211 36.3877,15.1301 C36.5427,14.4091 37.0267,14.1251 37.7447,14.2441 C38.4777,14.3651 39.2217,14.4451 39.9637,14.4821 C40.6487,14.5161 41.3377,14.4811 42.0237,14.4541 C42.4177,14.4381 42.8077,14.3491 43.2007,14.3441 C43.7017,14.3371 44.2057,14.3601 44.7047,14.4071 C45.2047,14.4551 45.7037,14.5351 46.1987,14.6241 C46.4887,14.6771 46.7697,14.7741 47.0547,14.8541 C47.3897,14.9481 47.7227,15.0601 48.0617,15.1371 C49.0867,15.3721 49.4587,16.1581 49.1447,17.1521 C48.9327,17.8221 48.6237,18.3851 48.1837,18.9211 C47.7967,19.3931 47.5347,19.9671 47.1657,20.4551 C46.9457,20.7471 46.6267,20.9651 46.3477,21.2121 C46.0087,21.5131 46.0387,21.8181 46.4787,21.9041 C47.1027,22.0261 47.5237,22.4571 48.0267,22.7651 C48.0697,22.7921 48.1107,22.8281 48.1397,22.8691 C48.7557,23.7691 49.3747,24.6691 49.9827,25.5741 C50.2957,26.0401 50.2307,26.5841 50.2707,27.1061 C50.3147,27.6671 50.0757,28.1011 49.7047,28.4901 C49.6287,28.5701 49.5847,28.6831 49.5327,28.7851 C49.4927,28.8651 49.4877,28.9871 49.4257,29.0281 C48.7647,29.4661 48.5507,30.2961 47.9077,30.7481 C47.1537,31.2761 46.4467,31.8931 45.6367,32.3111 C44.9727,32.6531 44.1817,32.6761 43.4247,32.4731 C42.3867,32.1961 41.3397,31.9501 40.3127,31.6341 C39.4667,31.3731 38.6477,31.0221 37.8107,30.7271 C37.5967,30.6511 37.3537,30.5751 37.1367,30.5991 C36.2157,30.7031 35.3177,30.2881 35.0157,29.3721 C34.9717,29.2351 34.9497,29.0771 34.9707,28.9371 C35.0137,28.6431 35.0927,28.3541 35.1567,28.0631 C35.2187,27.7851 35.2787,27.5071 35.3627,27.1271" id="Fill-3"></path>
            <path d="M7.7134,24.0194 C7.7144,24.0394 7.7154,24.0594 7.7164,24.0794 C8.1364,24.0764 8.5564,24.0824 8.9764,24.0634 C9.1504,24.0564 9.3354,23.9304 9.4914,23.9664 C10.1574,24.1194 10.8114,23.9584 11.4704,23.9494 C11.7604,23.9444 11.8854,23.8334 11.9014,23.5824 C11.9314,23.1404 11.9374,22.6974 11.9494,22.2534 C11.9624,21.7914 11.9804,21.3294 11.9794,20.8674 C11.9794,20.2984 11.9614,19.7314 11.9504,19.1644 C11.9424,18.6934 11.9394,18.2224 11.9214,17.7524 C11.9044,17.3214 11.9054,16.8854 11.8344,16.4614 C11.7914,16.2034 11.6284,15.9634 11.5194,15.7154 C11.3424,15.8844 11.1634,16.0504 10.9914,16.2244 C10.9584,16.2584 10.9574,16.3224 10.9344,16.3684 C10.7854,16.6544 10.6574,16.9544 10.4824,17.2224 C10.0574,17.8694 9.5994,18.4954 9.1754,19.1424 C8.9934,19.4194 8.8724,19.7364 8.7044,20.0244 C8.3744,20.5924 8.0264,21.1504 7.6934,21.7164 C7.4624,22.1104 7.2654,22.5264 7.0134,22.9064 C6.6804,23.4074 6.8054,23.8114 7.3714,23.9444 C7.4844,23.9704 7.5994,23.9944 7.7134,24.0194 M0.0944,32.1484 C0.4224,31.1834 0.7844,30.0854 1.1694,28.9954 C1.3924,28.3654 1.6354,27.7414 1.8944,27.1244 C2.1324,26.5534 2.4004,25.9954 2.6614,25.4334 C2.9304,24.8554 3.1884,24.2704 3.4844,23.7074 C3.7084,23.2814 3.9934,22.8884 4.2344,22.4714 C4.4144,22.1644 4.6234,21.8564 4.7204,21.5204 C4.9764,20.6374 5.6024,19.9724 6.0244,19.1894 C6.2364,18.7944 6.4464,18.3974 6.6694,18.0084 C6.7704,17.8334 6.8864,17.6654 7.0194,17.5144 C7.5074,16.9624 7.7074,16.2224 8.2774,15.7084 C8.5464,15.4654 8.6234,15.0114 8.7854,14.6524 C8.8124,14.5944 8.8054,14.5034 8.8474,14.4724 C9.6334,13.8734 9.9004,12.8694 10.6204,12.2144 C10.8294,12.0244 10.9274,11.7164 11.1124,11.4934 C11.2974,11.2704 11.4944,11.0134 11.7444,10.8984 C12.4374,10.5794 13.1944,10.5234 13.8654,10.8824 C14.1534,11.0374 14.3274,11.4764 14.4624,11.8224 C14.6334,12.2634 14.7344,12.7364 14.8224,13.2034 C14.8784,13.4964 14.8604,13.8034 14.8654,14.1054 C14.8724,14.4984 14.8544,14.8924 14.8764,15.2844 C14.8904,15.5374 14.9714,15.7864 15.0004,16.0394 C15.0254,16.2494 15.0144,16.4644 15.0254,16.6774 C15.0644,17.4504 15.1054,18.2224 15.1464,18.9954 C15.1494,19.0574 15.1824,19.1264 15.1654,19.1824 C14.9234,19.9624 15.0694,20.7534 15.0804,21.5424 C15.0884,22.1064 15.0004,22.6694 14.9724,23.2344 C14.9554,23.5764 14.9684,23.9184 14.9714,24.2614 C14.9774,24.8584 14.9874,25.4554 14.9914,26.0524 C14.9944,26.4484 15.0114,26.8454 14.9824,27.2394 C14.9304,27.9404 14.8374,28.6374 14.7794,29.3384 C14.7154,30.1314 14.6934,30.9284 14.6024,31.7184 C14.5724,31.9784 14.3974,32.2274 14.2614,32.4664 C14.1924,32.5854 14.0684,32.6744 13.9634,32.7694 C13.7144,32.9924 13.5324,33.4064 13.1184,33.2514 C12.4864,33.0154 11.7314,32.8814 11.6174,32.0124 C11.5844,31.7644 11.6054,31.5094 11.5994,31.2584 C11.5884,30.8644 11.5734,30.4694 11.5664,30.0754 C11.5614,29.8234 11.5434,29.5684 11.5684,29.3184 C11.6474,28.5444 11.7594,27.7734 11.8254,26.9984 C11.8584,26.6224 11.5674,26.4484 11.2024,26.5194 C10.8544,26.5864 10.4934,26.5984 10.1374,26.6154 C9.7954,26.6314 9.4504,26.6084 9.1094,26.6274 C8.1544,26.6834 7.2174,26.5574 6.3154,26.2834 C5.2344,25.9544 5.3974,26.1154 4.9944,26.9154 C4.5354,27.8254 4.2214,28.8074 3.8294,29.7514 C3.5264,30.4834 3.2014,31.2064 2.8814,31.9294 C2.6444,32.4664 2.3974,32.9984 2.1564,33.5354 C1.9214,34.0594 1.2364,34.2714 0.7634,33.9644 C0.0144,33.4804 -0.1256,33.1434 0.0944,32.1484" id="Fill-5"></path>
            <path d="M104.4644,21.4373 C104.2144,22.5763 103.9964,23.7223 103.6964,24.8473 C103.5854,25.2643 103.2934,25.6383 103.0614,26.0183 C102.8704,26.3303 102.7014,26.6933 102.4254,26.9063 C101.8714,27.3333 101.2514,27.6723 100.6574,28.0473 C100.6364,28.0613 100.6064,28.0763 100.5844,28.0713 C99.8064,27.8673 98.8834,27.9753 98.3474,27.2133 C97.3044,25.7343 96.2944,24.2313 95.2914,22.7243 C95.0664,22.3843 94.9484,21.9753 94.7354,21.6253 C94.6654,21.5103 94.4524,21.4823 94.3044,21.4153 C94.2594,21.5533 94.2074,21.6913 94.1724,21.8333 C94.1574,21.8923 94.1904,21.9613 94.1804,22.0233 C93.9934,23.2313 93.8254,24.4423 93.6094,25.6453 C93.4454,26.5493 93.2214,27.4433 93.0234,28.3413 C92.8654,29.0483 92.0324,29.5073 91.3534,29.3253 C90.6934,29.1473 90.3084,28.7583 90.1644,28.1063 C90.1524,28.0553 90.1264,28.0043 90.1314,27.9563 C90.1904,27.3173 90.2054,26.6703 90.3234,26.0423 C90.5704,24.7323 91.0054,23.4433 91.1144,22.1243 C91.2394,20.6263 91.6534,19.2023 91.8974,17.7383 C91.9334,17.5213 91.9774,17.3013 92.0564,17.0983 C92.1694,16.8093 92.3474,16.5813 92.7174,16.6323 C92.7904,16.6433 92.8824,16.6373 92.9434,16.6013 C93.6504,16.1983 94.2364,16.4873 94.7954,16.9163 C95.7034,17.6153 96.3944,18.5063 96.9504,19.4923 C97.4374,20.3533 97.8524,21.2543 98.3034,22.1353 C98.5544,22.6273 98.8044,23.1213 99.0734,23.6023 C99.3044,24.0153 99.5574,24.4163 99.8114,24.8153 C99.8794,24.9223 100.0164,25.0943 100.0764,25.0783 C100.2224,25.0373 100.4094,24.9293 100.4614,24.8003 C100.7184,24.1623 100.9864,23.5203 101.1574,22.8563 C101.4434,21.7403 101.6754,20.6083 101.8974,19.4773 C101.9854,19.0253 102.0084,18.5563 102.0194,18.0943 C102.0434,17.0593 102.6824,16.7193 103.5684,16.7463 C103.9574,16.7563 104.3624,16.9523 104.7194,17.1413 C105.1844,17.3893 105.2754,17.8223 105.1564,18.3273 C104.9164,19.3613 104.6964,20.4013 104.4684,21.4383 C104.4674,21.4383 104.4664,21.4383 104.4644,21.4373" id="Fill-8"></path>
            <path d="M86.6568,23.7645 C86.8778,22.8785 86.7908,22.1415 86.3448,21.4345 C85.8178,20.5965 85.2418,19.8085 84.4948,19.1505 C84.0748,18.7815 83.5308,18.6895 83.1038,19.0355 C82.8328,19.2555 82.6218,19.5605 82.4228,19.8535 C82.2358,20.1265 82.0958,20.4325 81.9428,20.7285 C81.7038,21.1895 81.4148,21.6355 81.2498,22.1215 C81.0578,22.6825 80.9428,23.2765 80.8618,23.8645 C80.8028,24.2995 80.7698,24.7695 80.8668,25.1915 C81.1358,26.3665 81.5438,27.4955 82.4488,28.3545 C82.6048,28.5025 82.8888,28.6455 83.0778,28.6075 C83.6988,28.4815 84.3138,28.3235 84.7588,27.7795 C85.4018,26.9915 86.1178,26.2575 86.3398,25.2125 C86.4488,24.6985 86.5648,24.1845 86.6568,23.7645 M78.0378,23.0715 C78.1348,22.6335 78.1728,22.2645 78.2998,21.9285 C78.4918,21.4205 78.7418,20.9345 78.9758,20.4435 C79.1628,20.0505 79.3588,19.6625 79.5588,19.2765 C79.6168,19.1645 79.6828,19.0005 79.7768,18.9765 C80.1778,18.8715 80.2538,18.5165 80.4558,18.2385 C80.7908,17.7765 81.2038,17.3705 81.5918,16.9495 C81.6858,16.8455 81.8428,16.7895 81.9168,16.6765 C82.1148,16.3755 82.3648,16.1755 82.7338,16.1845 C83.4478,16.2005 84.2188,15.9935 84.7728,16.6765 C84.8118,16.7235 84.8718,16.7635 84.9298,16.7845 C85.4198,16.9635 85.9348,17.0905 86.3958,17.3265 C86.8428,17.5525 87.2958,17.8295 87.6338,18.1905 C88.1098,18.7025 88.5228,19.2855 88.8878,19.8845 C89.1248,20.2715 89.4088,20.6795 89.3138,21.2015 C89.2918,21.3245 89.4198,21.4675 89.4248,21.6045 C89.4358,21.9845 89.3548,22.3785 89.4278,22.7435 C89.6128,23.6815 89.2658,24.5395 89.0238,25.3865 C88.7968,26.1865 88.3278,26.9185 87.9528,27.6745 C87.7908,28.0025 87.6228,28.3325 87.4118,28.6305 C87.2298,28.8875 87.0088,29.1305 86.7608,29.3255 C85.7888,30.0885 84.7158,30.6575 83.4938,30.9125 C83.4558,30.9215 83.4178,30.9495 83.3828,30.9435 C82.3228,30.7725 81.2588,30.7425 80.3448,29.9625 C79.4658,29.2115 78.9438,28.2755 78.4578,27.2855 C78.0628,26.4805 77.9588,25.6165 77.8518,24.7295 C77.7758,24.0975 78.0118,23.5685 78.0378,23.0715" id="Fill-10"></path>
            <path d="M294.8218,5.3455 C294.7628,5.6115 294.6988,5.8745 294.6478,6.1425 C294.4888,6.9855 294.1888,7.7705 293.7108,8.4865 C293.6478,8.5795 293.6088,8.7005 293.5958,8.8135 C293.5308,9.3665 293.1848,9.7765 292.8958,10.2165 C292.7998,10.3645 292.7368,10.5355 292.6648,10.6995 C292.6028,10.8395 292.5718,10.9985 292.4878,11.1225 C292.0418,11.7855 291.5868,12.4435 291.1268,13.0965 C290.6598,13.7585 289.7178,13.8695 289.0768,13.3945 C288.7088,13.1205 288.2598,12.9555 287.8878,12.6885 C287.1748,12.1725 286.4828,11.6245 285.7938,11.0765 C285.5368,10.8735 285.3198,10.6225 285.0658,10.4155 C284.9988,10.3615 284.8098,10.3465 284.7668,10.3935 C284.5978,10.5785 284.4598,10.7935 284.3208,11.0045 C283.9268,11.6055 283.5338,12.2065 283.1518,12.8155 C283.0658,12.9525 282.9848,13.1155 282.9708,13.2725 C282.9468,13.5505 282.8348,13.7365 282.5728,13.8295 C282.2358,13.9515 281.9038,14.0955 281.5578,14.1865 C281.1508,14.2925 280.9348,14.1565 280.7688,13.7665 C280.4698,13.0685 280.2958,12.3435 280.2418,11.5845 C280.1898,10.8615 280.1228,10.1385 280.0388,9.4175 C279.9718,8.8525 279.8328,8.2925 279.7898,7.7265 C279.7378,7.0345 279.7618,6.3385 279.7358,5.6455 C279.7228,5.3155 279.6828,4.9845 279.6288,4.6585 C279.5578,4.2345 279.4548,3.8165 279.3818,3.3925 C279.3688,3.3175 279.4258,3.2235 279.4688,3.1485 C279.5068,3.0815 279.6078,3.0315 279.6118,2.9705 C279.6498,2.3125 280.2018,2.1985 280.6498,1.9775 C281.2878,1.6635 281.9818,2.1115 282.0048,2.8235 C282.0138,3.1145 282.1178,3.4015 282.1528,3.6935 C282.1738,3.8655 282.1728,4.0495 282.1318,4.2175 C282.0448,4.5675 281.9908,4.8915 282.2408,5.2125 C282.3198,5.3135 282.3368,5.5145 282.2978,5.6455 C282.1048,6.2935 282.1508,6.9355 282.2438,7.5925 C282.3048,8.0365 282.2628,8.4945 282.2968,8.9455 C282.3078,9.1085 282.4048,9.2645 282.4638,9.4235 C282.5958,9.3195 282.7718,9.2415 282.8528,9.1065 C283.2468,8.4515 283.6108,7.7795 283.9938,7.1165 C284.2358,6.6965 284.9438,6.4235 285.4258,6.4845 C285.9408,6.5495 286.2788,6.7745 286.5588,7.2275 C287.1228,8.1375 287.7548,9.0045 288.3618,9.8875 C288.4198,9.9705 288.4918,10.0555 288.5778,10.1055 C288.9628,10.3245 289.3488,10.5465 289.7498,10.7355 C289.8508,10.7825 290.0708,10.7575 290.1308,10.6835 C290.7568,9.8955 291.3738,9.1085 291.6648,8.1085 C291.8038,7.6245 292.1878,7.2035 292.2848,6.7195 C292.4568,5.8575 292.4898,4.9665 292.5908,4.0895 C292.6448,3.6035 292.6858,3.1125 292.7958,2.6375 C292.8708,2.3105 293.4708,2.0395 293.8138,2.1095 C293.8518,2.1165 293.8898,2.1335 293.9278,2.1325 C294.7898,2.1195 295.0448,2.7155 295.1958,3.4055 C295.2178,3.4995 295.1858,3.6095 295.1648,3.7085 C295.0478,4.2535 294.9258,4.7975 294.8058,5.3415 C294.8118,5.3425 294.8168,5.3435 294.8218,5.3455" id="Fill-12"></path>
            <path d="M212.2437,15.9549 C212.4727,16.7989 213.1577,17.3569 213.6057,18.0629 C213.6467,18.1279 213.9287,18.1279 214.0147,18.0569 C214.1527,17.9409 214.2767,17.7539 214.3137,17.5769 C214.6187,16.1469 214.9087,14.7149 215.1867,13.2789 C215.2907,12.7469 215.3507,12.2059 215.4307,11.6679 C215.5977,10.5479 215.7577,9.4259 215.9317,8.3069 C216.0117,7.7959 216.1317,7.3129 216.5487,6.9309 C216.8847,6.6219 217.4717,6.4769 217.9327,6.7029 C218.1867,6.8269 218.4197,7.4359 218.3457,7.7979 C218.0937,9.0159 217.7157,10.2219 217.6127,11.4509 C217.4427,13.4789 216.8317,15.4069 216.4457,17.3839 C216.3017,18.1179 215.9277,18.8089 215.6567,19.5179 C215.5737,19.7339 215.4357,19.9409 215.4077,20.1639 C215.3577,20.5509 215.1187,20.7509 214.8187,20.9239 C214.6957,20.9949 214.5697,21.0599 214.4537,21.1419 C214.0897,21.3969 213.7837,21.3879 213.5027,21.0479 C212.9397,20.3669 212.3967,19.6709 211.8527,18.9759 C211.3937,18.3899 210.9437,17.7959 210.4917,17.2029 C210.3487,17.0169 210.1897,16.9879 210.0507,17.1839 C209.8157,17.5159 209.5987,17.8589 209.3777,18.1989 C209.0387,18.7179 208.6867,19.2279 208.3707,19.7609 C208.0897,20.2329 207.8887,20.7569 207.5797,21.2089 C207.3467,21.5499 207.0287,21.8529 206.6947,22.1009 C206.3767,22.3359 205.4957,21.9739 205.4327,21.5839 C205.3467,21.0359 205.3377,20.4759 205.3037,19.9209 C205.2837,19.6039 205.2877,19.2859 205.2727,18.9689 C205.2497,18.4719 205.2067,17.9759 205.1957,17.4779 C205.1857,17.0309 205.2087,16.5829 205.2137,16.1359 C205.2207,15.4639 205.2187,14.7919 205.2297,14.1209 C205.2397,13.6359 205.2957,13.1489 205.2777,12.6659 C205.2517,11.9599 205.2037,11.2509 205.1147,10.5499 C205.0467,10.0079 204.8587,9.4689 205.3177,9.0029 C205.5337,8.7829 206.2557,8.6129 206.4917,8.7269 C206.8587,8.9029 207.0817,9.3839 207.0557,9.8329 C207.0397,10.1069 207.0387,10.4049 207.1267,10.6589 C207.2997,11.1559 207.3157,11.6379 207.2547,12.1569 C207.2077,12.5519 207.3287,12.9649 207.3507,13.3699 C207.3617,13.5589 207.3477,13.7619 207.2907,13.9399 C207.1347,14.4329 207.1797,14.9049 207.3417,15.3829 C207.3767,15.4869 207.3727,15.6089 207.3687,15.7229 C207.3547,16.1919 207.3277,16.6629 207.3247,17.1339 C207.3237,17.2149 207.4167,17.2969 207.4677,17.3779 C207.5457,17.3239 207.6487,17.2869 207.6967,17.2129 C208.0357,16.6869 208.3667,16.1569 208.6917,15.6239 C208.7647,15.5039 208.8317,15.3719 208.8627,15.2369 C209.0587,14.3959 209.6337,13.9529 210.4307,13.7749 C210.6107,13.7349 210.8447,13.8019 211.0197,13.8869 C211.7147,14.2239 212.0797,14.8839 212.4857,15.4899 C212.5387,15.5689 212.3907,15.7829 212.3367,15.9339 C212.3057,15.9409 212.2737,15.9479 212.2437,15.9549" id="Fill-14"></path>
            <path d="M158.1831,17.62 C158.4971,16.191 158.8071,14.763 159.1281,13.336 C159.2451,12.818 159.7481,12.672 160.1071,12.4 C160.4521,12.139 160.8501,12.112 161.2721,12.291 C161.5991,12.429 161.7471,12.657 161.7131,12.976 C161.6791,13.297 161.6451,13.648 161.4911,13.917 C161.0321,14.715 160.9731,15.62 160.7311,16.474 C160.6281,16.835 160.5531,17.205 160.4871,17.574 C160.2561,18.854 159.7781,20.05 159.2621,21.234 C159.1031,21.601 158.9901,21.987 158.8261,22.351 C158.7331,22.558 158.5801,22.738 158.4551,22.932 C158.1191,23.451 157.5671,23.719 157.0941,24.075 C156.7631,24.325 155.8261,24.104 155.5841,23.752 C155.3661,23.432 155.1731,23.095 154.9471,22.781 C154.4681,22.116 153.9821,21.456 153.4831,20.807 C153.3711,20.66 153.2031,20.543 153.0371,20.455 C152.9661,20.418 152.7821,20.457 152.7451,20.519 C152.4471,21.01 152.2141,21.546 151.8801,22.008 C151.4831,22.558 151.4451,23.293 150.9221,23.771 C150.8331,23.852 150.8001,23.994 150.7401,24.106 C150.6221,24.322 150.5511,24.589 150.3781,24.741 C149.9891,25.086 149.5801,25.438 149.1201,25.67 C148.6051,25.93 147.8031,25.1 147.8891,24.491 C147.9771,23.87 148.0081,23.242 148.0531,22.616 C148.0601,22.518 147.9971,22.419 147.9791,22.318 C147.8201,21.466 147.6971,20.618 147.7671,19.737 C147.8091,19.206 147.6571,18.659 147.5961,18.119 C147.5781,17.947 147.5341,17.763 147.5741,17.602 C147.7001,17.091 147.6741,16.61 147.4941,16.108 C147.4221,15.91 147.4741,15.536 147.6171,15.417 C148.0371,15.063 148.3591,14.518 149.0051,14.516 C149.2231,14.515 149.4491,14.528 149.6561,14.587 C149.7731,14.62 149.9381,14.75 149.9501,14.85 C150.0161,15.432 150.0411,16.017 150.0841,16.602 C150.1191,17.057 150.1551,17.512 150.1931,17.966 C150.2201,18.296 150.2481,18.626 150.2811,18.955 C150.2921,19.068 150.2931,19.192 150.3441,19.289 C150.4001,19.394 150.5061,19.473 150.5901,19.563 C150.6731,19.474 150.7541,19.385 150.8391,19.299 C151.2511,18.882 151.4081,18.304 151.7691,17.833 C152.1281,17.364 152.5081,17.185 152.9931,17.031 C153.5951,16.84 154.1711,17.087 154.4971,17.624 C155.1331,18.671 155.7821,19.711 156.6361,20.602 C156.8851,20.862 157.1621,20.808 157.3001,20.474 C157.3051,20.461 157.3101,20.449 157.3141,20.436 C157.5781,19.492 157.8421,18.548 158.1061,17.602 C158.1321,17.608 158.1581,17.614 158.1831,17.62" id="Fill-16"></path>
            <path d="M252.4624,8.575 C253.1084,9.002 253.1004,9.388 252.4704,9.688 C252.1074,9.861 251.6914,9.936 251.2924,10.019 C250.6964,10.144 250.0944,10.244 249.4924,10.341 C249.0904,10.405 248.8854,10.654 248.8014,11.025 C248.4414,12.613 248.0854,14.201 247.7294,15.79 C247.7204,15.828 247.7204,15.871 247.7004,15.902 C247.2674,16.599 247.1774,17.361 247.1954,18.168 C247.2064,18.615 246.4394,19.386 246.0334,19.392 C245.7604,19.397 245.4394,19.106 245.2224,18.871 C245.1024,18.74 245.0894,18.436 245.1384,18.239 C245.3344,17.453 245.3104,16.646 245.5704,15.849 C246.0344,14.428 246.2704,12.931 246.5994,11.466 C246.6564,11.206 246.5224,11.054 246.2784,11.039 C246.0254,11.022 245.7554,11.012 245.5134,11.076 C245.0544,11.197 244.7944,10.963 244.5874,10.625 C244.4084,10.334 244.3494,10.084 244.5764,9.715 C245.0534,8.941 245.8284,8.795 246.5764,8.576 C247.0184,8.447 247.0804,8.354 247.0424,7.906 C246.9994,7.397 247.0554,6.881 247.0374,6.369 C247.0244,5.958 246.9674,5.548 246.9274,5.138 C246.9204,5.063 246.8924,4.989 246.8914,4.915 C246.8884,4.47 246.7104,4.362 246.2604,4.416 C245.5644,4.5 244.8614,4.547 244.1604,4.568 C243.9794,4.573 243.7474,4.467 243.6154,4.334 C243.1374,3.854 243.2164,3.479 243.8444,2.964 C244.4514,2.464 245.1484,2.212 245.9304,2.165 C246.1324,2.153 246.3364,2.097 246.5324,2.04 C247.4534,1.775 248.4114,1.708 249.3274,1.365 C250.1994,1.038 251.1544,0.933 252.0724,0.73 C252.1734,0.709 252.2734,0.681 252.3724,0.659 C252.6984,0.587 253.0224,0.479 253.3524,0.452 C254.0134,0.398 254.6794,0.357 255.3414,0.373 C255.8244,0.384 256.3084,0.482 256.7864,0.572 C256.8814,0.59 257.0254,0.748 257.0214,0.834 C256.9864,1.43 256.9674,2.036 256.8524,2.62 C256.7134,3.319 256.3104,3.45 255.7434,3.027 C255.0494,2.509 254.3134,2.431 253.5164,2.748 C253.3144,2.829 253.0884,2.928 252.8844,2.908 C252.3514,2.855 251.9184,3.122 251.4414,3.26 C250.8584,3.429 250.2474,3.5 249.6514,3.625 C249.2264,3.715 249.0364,4.071 249.1714,4.491 C249.1974,4.575 249.2464,4.676 249.2224,4.748 C249.0324,5.315 249.2574,5.868 249.2594,6.428 C249.2604,6.632 249.1884,6.837 249.1934,7.04 C249.2014,7.316 249.2414,7.594 249.2944,7.866 C249.3054,7.923 249.4384,8.005 249.5004,7.994 C249.9634,7.912 250.4284,7.83 250.8824,7.707 C251.4204,7.562 251.9444,7.401 252.5164,7.532 C252.8404,7.605 253.1244,7.758 253.1124,8.079 C253.1084,8.234 252.7994,8.38 252.6244,8.525 C252.5984,8.548 252.5544,8.548 252.4624,8.575" id="Fill-18"></path>
            <path d="M60.4761,28.3934 C60.5501,27.6684 60.7081,26.9394 60.6661,26.2204 C60.6411,25.7974 60.7211,25.4134 60.7461,25.0104 C60.7651,24.6964 60.7031,24.3774 60.6891,24.0614 C60.6771,23.7984 60.6811,23.5354 60.6831,23.2714 C60.6871,22.6474 60.6951,22.0234 60.7011,21.3984 C60.7011,21.3084 60.6741,21.2124 60.6971,21.1294 C60.8821,20.4594 60.8121,19.7894 60.7041,19.1204 C60.7021,19.1074 60.7031,19.0934 60.7031,19.0804 C60.6591,18.3314 60.6621,18.3524 59.9241,18.4824 C58.9721,18.6514 58.0371,18.5354 57.1591,18.1354 C56.4001,17.7904 56.3471,16.8664 56.9971,16.3454 C57.4261,16.0024 57.8701,16.0214 58.3851,16.0294 C59.2171,16.0404 60.0531,15.9004 60.8851,15.7984 C61.9201,15.6724 62.9521,15.5044 63.9881,15.3864 C64.5341,15.3244 65.0871,15.3394 65.6351,15.2954 C65.9121,15.2734 66.1831,15.1854 66.4591,15.1484 C66.8111,15.0994 67.1701,15.0964 67.5181,15.0284 C67.8151,14.9684 68.0961,14.8304 68.3911,14.7534 C68.6951,14.6744 69.0041,14.6114 69.3161,14.5744 C69.5451,14.5464 69.8001,14.6304 70.0101,14.5614 C70.5191,14.3944 70.6731,14.7674 70.8731,15.0684 C71.0791,15.3764 70.9431,15.6834 70.7441,15.9154 C70.1631,16.5934 69.3701,16.9644 68.5801,17.3334 C68.0511,17.5804 67.4891,17.6314 66.9181,17.6514 C66.7781,17.6564 66.6391,17.7044 66.4981,17.7164 C65.9171,17.7734 65.3361,17.8474 64.7531,17.8674 C64.4141,17.8774 64.0631,17.8054 63.8381,18.1294 C63.7521,18.2534 63.7421,18.4324 63.7111,18.5894 C63.6981,18.6624 63.7251,18.7404 63.7251,18.8164 C63.7251,19.1694 63.7241,19.5224 63.7201,19.8754 C63.7161,20.2574 63.6921,20.6404 63.7091,21.0214 C63.7291,21.4464 63.7861,21.8704 63.8271,22.2934 C63.8311,22.3454 63.8461,22.3964 63.8431,22.4474 C63.8101,22.9634 63.7491,23.4794 63.7471,23.9964 C63.7471,24.4324 63.8141,24.8704 63.8511,25.3064 C63.8551,25.3444 63.8771,25.3824 63.8741,25.4194 C63.8291,26.0054 63.7921,26.5924 63.7261,27.1754 C63.6711,27.6644 63.5611,28.1454 63.5101,28.6324 C63.4501,29.2084 63.2351,29.6644 62.7231,29.9824 C62.4891,30.1274 62.2971,30.3464 62.1011,30.5474 C61.9241,30.7284 61.1671,30.6664 61.0111,30.4104 C60.7931,30.0544 60.5801,29.6834 60.4521,29.2904 C60.3621,29.0164 60.4181,28.6954 60.4101,28.3954 C60.4321,28.3944 60.4551,28.3944 60.4761,28.3934" id="Fill-20"></path>
            <path d="M170.1529,23.244 C170.0059,23.867 169.8599,24.474 169.2709,24.824 C169.0959,24.928 168.8249,24.973 168.6299,24.923 C167.7989,24.704 167.5699,24.32 167.7419,23.485 C167.8699,22.862 167.8329,22.251 167.7329,21.628 C167.6449,21.075 167.6189,20.512 167.5769,19.953 C167.5549,19.652 167.5439,19.348 167.5559,19.048 C167.5729,18.632 167.3229,18.469 166.8599,18.598 C166.5429,18.687 166.2219,18.798 165.8979,18.82 C165.5789,18.844 165.4619,19.007 165.4219,19.273 C165.3349,19.861 165.2719,20.454 165.1729,21.04 C165.0909,21.519 164.9899,21.998 164.8629,22.468 C164.7249,22.976 164.5609,23.479 164.3769,23.973 C164.3219,24.12 164.1819,24.292 164.0429,24.342 C163.5729,24.508 163.0979,24.6 162.5969,24.376 C162.2409,24.216 162.1009,24.032 162.1519,23.643 C162.3109,22.404 162.4539,21.163 162.6109,19.924 C162.6539,19.583 162.7409,19.248 162.7799,18.907 C162.8659,18.155 162.9539,17.402 163.0059,16.647 C163.0599,15.864 163.1169,15.075 163.0889,14.292 C163.0639,13.6 163.4839,12.909 164.1939,12.725 C164.5649,12.629 164.9279,12.38 165.3329,12.688 C165.6129,12.903 165.7719,13.271 165.7489,13.621 C165.6989,14.387 165.6919,15.156 165.6639,15.924 C165.6579,16.065 165.6259,16.206 165.6119,16.347 C165.5859,16.615 165.7269,16.739 165.9789,16.722 C166.3619,16.695 166.7419,16.637 167.1239,16.614 C167.3819,16.599 167.4769,16.465 167.5269,16.232 C167.7559,15.181 167.7419,14.111 167.7629,13.045 C167.7719,12.638 167.7439,12.217 167.8389,11.828 C167.9019,11.571 168.1089,11.293 168.3319,11.142 C168.8089,10.819 169.6479,10.868 170.0129,11.285 C170.2399,11.543 170.3619,11.958 170.3849,12.313 C170.4219,12.857 170.3119,13.409 170.2989,13.958 C170.2729,14.989 170.2769,16.022 170.2579,17.054 C170.2489,17.559 170.1939,18.064 170.1989,18.569 C170.2039,19.095 170.2659,19.62 170.2829,20.146 C170.2969,20.55 170.2899,20.956 170.2709,21.359 C170.2409,21.988 170.1929,22.616 170.1529,23.244" id="Fill-22"></path>
            <path d="M219.7124,18.537 C219.9134,17.196 220.1284,15.856 220.2994,14.512 C220.3254,14.303 220.1944,14.035 220.0604,13.851 C219.5424,13.147 219.7274,12.61 220.4184,12.125 C220.4294,12.118 220.4424,12.117 220.4544,12.11 C220.7404,11.952 221.0514,10.49 220.8424,10.25 C220.8004,10.201 220.7184,10.173 220.6504,10.165 C220.2614,10.115 219.8594,10.116 219.4834,10.02 C219.0584,9.914 218.9474,9.376 219.1434,8.997 C219.3574,8.582 219.7004,8.387 220.0834,8.188 C220.5054,7.969 220.9124,7.714 221.3054,7.445 C221.6304,7.222 221.9694,7.092 222.3604,7.026 C222.6914,6.972 223.0064,6.813 223.3194,6.682 C223.8014,6.477 224.2754,6.256 224.7554,6.046 C224.8604,6 224.9714,5.943 225.0824,5.937 C225.6414,5.906 226.2014,5.893 226.7604,5.869 C226.9004,5.863 227.0424,5.848 227.1804,5.822 C227.7374,5.718 228.2724,6.14 228.2654,6.694 C228.2644,6.773 228.1904,6.85 228.1564,6.931 C228.1194,7.021 228.0664,7.114 228.0624,7.208 C228.0544,7.377 228.1494,7.639 228.0714,7.7 C227.8594,7.871 227.5734,8.074 227.3304,8.057 C226.5904,8.005 225.9194,8.17 225.2414,8.438 C224.6404,8.677 224.0024,8.821 223.3874,9.028 C223.2754,9.066 223.1364,9.187 223.1084,9.295 C222.9984,9.733 222.9004,10.179 222.8474,10.628 C222.7954,11.067 222.9884,11.174 223.4054,11.03 C224.1574,10.771 224.9114,10.514 225.6794,10.313 C225.8764,10.263 226.1654,10.381 226.3504,10.51 C226.5764,10.667 226.4164,10.885 226.3374,11.098 C226.2544,11.319 226.2674,11.577 226.2394,11.819 C226.2174,12.014 226.1524,12.122 225.9234,12.183 C225.6444,12.255 225.3994,12.449 225.1344,12.582 C224.6644,12.818 224.1984,13.064 223.7164,13.273 C223.4134,13.404 223.0544,13.425 222.7794,13.591 C222.5904,13.706 222.4444,13.971 222.3804,14.197 C222.2904,14.515 222.3094,14.86 222.2554,15.189 C222.1434,15.876 221.9964,16.558 221.9064,17.247 C221.8864,17.402 222.0034,17.623 222.1284,17.73 C222.1914,17.784 222.4204,17.665 222.5644,17.6 C222.7754,17.504 222.9774,17.389 223.1814,17.277 C223.5644,17.068 223.9434,16.856 224.3254,16.645 C224.9414,16.304 225.5524,15.95 226.1774,15.626 C226.5624,15.426 227.2224,15.624 227.4044,15.974 C227.4614,16.082 227.5264,16.297 227.4874,16.326 C227.0314,16.665 227.6754,17.397 226.9884,17.656 C226.6534,17.782 226.3484,17.987 226.0344,18.166 C225.3324,18.565 224.6134,18.94 223.9384,19.381 C222.9204,20.045 221.8474,20.605 220.7194,21.035 C220.4134,21.152 219.9454,21.029 219.6244,20.87 C219.3154,20.717 219.2684,20.343 219.3684,19.974 C219.4984,19.501 219.5864,19.016 219.6914,18.534 L219.7124,18.537 Z" id="Fill-24"></path>
            <path d="M175.5699,16.0799 C175.4739,16.2229 175.3659,16.3229 175.3329,16.4449 C175.0989,17.3059 174.8759,18.1689 174.6609,19.0339 C174.5799,19.3579 174.7619,19.5729 175.0929,19.5079 C175.4659,19.4339 175.8349,19.3179 176.1809,19.1659 C176.2959,19.1159 176.4119,18.8889 176.3959,18.7579 C176.3519,18.3809 176.2549,18.0089 176.1539,17.6419 C176.0259,17.1789 175.8759,16.7219 175.7299,16.2639 C175.7159,16.2209 175.6669,16.1889 175.5699,16.0799 M180.3719,22.6309 C180.3559,22.7459 180.3779,22.8919 180.3149,22.9699 C180.2249,23.0829 180.0199,23.2499 179.9569,23.2179 C179.6519,23.0579 179.4779,23.2459 179.2639,23.3859 C179.1659,23.4499 179.0059,23.5049 178.9059,23.4709 C178.4259,23.3069 177.9659,23.0939 177.7749,22.5679 C177.6319,22.1759 177.5059,21.7759 177.3839,21.3759 C177.2839,21.0429 176.9539,20.9209 176.5989,21.0789 C176.0169,21.3379 175.4259,21.5469 174.7659,21.4979 C174.2279,21.4579 173.7309,21.8509 173.5909,22.3759 C173.4379,22.9399 173.3059,23.0199 172.7279,22.8959 C172.3859,22.8219 172.0449,22.7499 171.7039,22.6719 C171.3989,22.6009 171.3159,22.4079 171.4019,22.1189 C171.5449,21.6359 171.6749,21.1489 171.8249,20.6689 C171.8929,20.4489 172.0159,20.2459 172.0749,20.0249 C172.1799,19.6339 172.2529,19.2319 172.3459,18.8369 C172.5109,18.1359 172.6779,17.4339 172.8519,16.7359 C172.9219,16.4599 173.0029,16.1859 173.0909,15.9169 C173.3899,15.0169 173.6799,14.1119 174.2849,13.3529 C174.3469,13.2749 174.4069,13.1699 174.4099,13.0749 C174.4329,12.3919 174.9229,12.0119 175.4249,11.7629 C175.9129,11.5209 176.5489,11.3339 177.0449,11.6479 C177.3529,11.8439 177.5039,12.3269 177.6639,12.7069 C177.8149,13.0639 177.8879,13.4559 177.9909,13.8339 C178.1459,14.4059 178.2769,14.9869 178.4579,15.5529 C178.6739,16.2319 178.6849,16.9759 179.0839,17.5989 C179.1109,17.6409 179.1419,17.7009 179.1319,17.7409 C178.9519,18.4229 179.4559,18.9279 179.6049,19.5219 C179.8179,20.3719 180.1649,21.1879 180.4259,22.0269 C180.4829,22.2099 180.4189,22.4299 180.4099,22.6329 C180.3969,22.6319 180.3839,22.6319 180.3719,22.6309" id="Fill-26"></path>
            <path d="M275.2378,8.2537 C275.5048,7.4417 275.4348,6.6647 275.1458,5.8837 C274.9028,5.2287 274.6358,4.6227 273.9378,4.3187 C273.7268,4.2277 273.6328,4.2587 273.5478,4.4527 C273.4818,4.6047 273.4358,4.7877 273.3208,4.8887 C272.5548,5.5537 271.7458,6.1707 271.0098,6.8667 C270.6708,7.1877 270.3988,7.6227 270.2188,8.0567 C270.0288,8.5157 269.9798,9.0337 269.8798,9.5277 C269.8568,9.6387 269.8428,9.7667 269.8758,9.8707 C270.1618,10.7987 271.1958,11.3387 272.1308,11.0337 C272.5298,10.9027 272.9078,10.7097 273.2988,10.5517 C274.3558,10.1227 275.1488,9.4737 275.2378,8.2537 M267.5268,8.8007 C267.7878,8.2457 267.9758,7.6397 268.3258,7.1477 C268.8178,6.4577 269.1668,5.6497 269.8758,5.1227 C270.3288,4.7857 270.8068,4.4737 271.2128,4.0837 C271.5118,3.7967 271.6788,3.3737 271.9658,3.0667 C272.2208,2.7947 272.5298,2.5367 272.8658,2.3827 C273.7628,1.9717 274.7008,1.9567 275.6288,2.2977 C275.8378,2.3737 276.0348,2.5237 276.1958,2.6827 C276.6528,3.1357 277.0378,3.6377 277.2518,4.2647 C277.5158,5.0427 277.6628,5.8197 277.6958,6.6527 C277.7358,7.6377 277.2888,8.4617 277.0468,9.3477 C276.9178,9.8217 276.5258,10.2207 276.2788,10.6687 C275.9448,11.2737 275.3998,11.6597 274.8738,12.0607 C274.6128,12.2587 274.2858,12.3657 274.0068,12.5427 C273.3748,12.9407 272.6638,13.1157 271.9688,13.3597 C271.2688,13.6067 270.6038,13.4477 269.9508,13.3837 C269.3268,13.3227 268.7278,12.9797 268.3788,12.3777 C268.1298,11.9487 267.8238,11.5347 267.6758,11.0717 C267.4448,10.3507 267.4468,9.5907 267.6168,8.8417 C267.5878,8.8277 267.5568,8.8147 267.5268,8.8007" id="Fill-28"></path>
            <path d="M314.2505,1.2606 C314.4555,1.3536 314.6775,1.4226 314.8615,1.5466 C314.9765,1.6236 315.0715,1.7766 315.0985,1.9096 C315.1085,1.9666 314.9275,2.1006 314.8145,2.1316 C314.5365,2.2076 314.2485,2.2546 313.9625,2.2966 C313.5105,2.3616 313.0555,2.4066 312.6025,2.4706 C312.1195,2.5376 311.6385,2.6146 311.1575,2.6946 C310.7845,2.7556 310.6785,2.9366 310.6915,3.3036 C310.7085,3.7456 310.6645,4.1916 310.6705,4.6346 C310.6765,5.0916 310.7215,5.5466 310.7295,6.0036 C310.7405,6.6126 310.8695,7.2616 310.7025,7.8206 C310.4255,8.7466 310.4665,9.6706 310.4355,10.6026 C310.4315,10.7316 310.4035,10.8586 310.3945,10.9876 C310.3535,11.5496 310.3465,12.1156 310.2655,12.6726 C310.1895,13.1986 309.8285,13.5956 309.4055,13.8586 C309.2045,13.9836 308.8265,13.9246 308.5705,13.8326 C308.2995,13.7366 308.2895,13.4696 308.3095,13.1566 C308.3615,12.3006 308.3265,11.4396 308.3135,10.5796 C308.3035,9.7886 308.2865,8.9976 308.2535,8.2076 C308.2215,7.4316 308.1435,6.6576 308.1255,5.8826 C308.1135,5.3636 308.1185,4.8316 308.2145,4.3236 C308.3395,3.6596 308.0425,3.2126 307.2795,3.3676 C306.3685,3.5526 305.4375,3.6386 304.5155,3.7736 C304.4015,3.7896 304.2925,3.8366 304.1855,3.8786 C303.5785,4.1196 302.9875,3.9256 302.4015,3.8006 C301.9845,3.7116 301.7765,3.1266 301.9395,2.7386 C302.2785,1.9306 302.9485,1.7656 303.7235,1.7026 C304.0995,1.6726 304.4585,1.4836 304.8345,1.4146 C305.2195,1.3446 305.6155,1.3346 306.0065,1.2976 C306.1055,1.2876 306.2065,1.2826 306.3045,1.2636 C306.5915,1.2056 306.8765,1.1416 307.1625,1.0786 C307.2505,1.0606 307.3575,1.0626 307.4225,1.0116 C307.9685,0.5846 308.6255,0.7166 309.2395,0.6156 C309.9865,0.4946 310.7205,0.2876 311.4625,0.1266 C311.9505,0.0216 312.4315,-0.0694 312.9435,0.0746 C313.5365,0.2426 314.1585,0.3096 314.7545,0.4716 C314.9045,0.5126 315.0005,0.7526 315.1215,0.9016 C314.9755,0.9696 314.8335,1.0576 314.6805,1.1006 C314.5445,1.1396 314.3965,1.1276 314.2525,1.1396 C314.2515,1.1796 314.2505,1.2206 314.2505,1.2606" id="Fill-30"></path>
            <path d="M316.0894,5.9139 C316.3374,5.2659 316.5554,4.6039 316.8434,3.9739 C317.0124,3.6029 317.2764,3.2699 317.5264,2.9429 C317.8344,2.5379 318.1144,2.0749 318.5154,1.7879 C318.8464,1.5509 319.3284,1.4999 319.7544,1.4309 C319.9944,1.3909 320.2354,1.8719 320.2074,2.1819 C320.1514,2.8309 319.7834,3.2979 319.3464,3.7299 C319.2904,3.7849 319.2114,3.8319 319.1884,3.8979 C318.9314,4.6179 318.6354,5.3289 318.4484,6.0659 C318.3074,6.6239 318.9674,7.2959 319.6464,7.4009 C320.0914,7.4719 320.5334,7.5829 320.9814,7.6119 C321.5834,7.6509 322.1634,7.5139 322.7164,7.2589 C322.8724,7.1859 323.0514,7.1629 323.2174,7.1069 C323.4314,7.0369 323.6844,7.0069 323.8464,6.8699 C324.1534,6.6109 324.4424,6.3129 324.6774,5.9869 C324.9314,5.6369 324.8884,5.2469 324.6874,4.8559 C324.3584,4.2169 323.7854,3.8229 323.2864,3.3449 C322.7574,2.8359 322.2144,2.3679 321.5694,2.0219 C321.2354,1.8439 320.8784,1.7099 320.5474,1.5259 C320.2734,1.3749 320.2914,1.0719 320.4234,0.8829 C320.5514,0.6989 320.8194,0.4999 321.0194,0.5069 C321.3184,0.5179 321.5594,0.4029 321.8204,0.3639 C322.2734,0.2979 322.7544,0.3879 323.2184,0.4509 C323.9184,0.5479 324.4074,1.0299 324.9194,1.4559 C325.3594,1.8219 325.8294,2.1649 326.2074,2.5899 C326.5844,3.0139 326.9364,3.4819 326.9454,4.1129 C326.9494,4.3889 327.0584,4.6609 327.1014,4.9369 C327.1244,5.0859 327.1594,5.2629 327.1034,5.3879 C326.8294,5.9939 326.5894,6.6319 326.2134,7.1729 C325.9234,7.5889 325.4554,7.8839 325.0564,8.2209 C324.2294,8.9209 323.2384,9.3149 322.2194,9.6029 C321.1414,9.9069 320.0164,10.0089 318.9064,9.8179 C318.1074,9.6819 317.3684,9.3489 316.7634,8.7599 C315.9284,7.9469 315.8474,6.9859 316.0894,5.9139" id="Fill-33"></path>
            <path d="M257.3472,14.2782 C257.9602,11.3122 258.5812,8.3482 259.1812,5.3812 C259.3402,4.5972 259.4382,3.8012 259.5512,3.0082 C259.6212,2.5222 259.9072,2.2532 260.3622,2.1292 C260.5692,2.0712 260.7742,1.9702 260.9842,1.9622 C261.3522,1.9472 261.6182,2.2082 261.5822,2.5702 C261.4892,3.5612 261.5102,4.5522 261.3342,5.5502 C260.9912,7.4982 260.6872,9.4512 260.2462,11.3822 C260.0772,12.1252 259.9532,12.8802 259.8362,13.6332 C259.7522,14.1742 259.9762,14.3432 260.5072,14.4062 C261.6472,14.5412 262.6672,14.1032 263.7272,13.8392 C263.9962,13.7712 264.2712,13.7272 264.5422,13.6662 C264.6172,13.6492 264.7022,13.6252 264.7532,13.5732 C265.2592,13.0632 265.9312,13.1812 266.5372,13.1422 C267.2352,13.0982 267.4862,13.5422 267.2012,14.1742 C267.1752,14.2322 267.1302,14.3012 267.1432,14.3532 C267.2712,14.8792 266.8702,15.0502 266.5382,15.2572 C266.2412,15.4432 265.9352,15.6192 265.6222,15.7772 C265.4792,15.8492 265.3092,15.8692 265.1512,15.9102 C264.9752,15.9562 264.7742,15.9572 264.6282,16.0492 C263.9682,16.4612 263.2072,16.5372 262.4792,16.7002 C261.8172,16.8482 261.1372,16.9712 260.4622,16.9882 C259.5622,17.0102 258.6412,17.1212 257.7712,16.7272 C257.1942,16.4662 256.9262,15.9772 257.0652,15.3702 C257.1482,15.0042 257.2272,14.6362 257.3072,14.2692 C257.3212,14.2722 257.3332,14.2752 257.3472,14.2782" id="Fill-35"></path>
            <path d="M126.7076,27.0487 C126.0106,26.7777 125.4346,26.5697 124.8726,26.3287 C124.4586,26.1517 124.4176,25.6287 124.7746,25.3527 C124.8556,25.2897 124.9446,25.2297 125.0076,25.1497 C125.2636,24.8207 125.5946,24.7747 125.9446,24.9287 C126.3066,25.0867 126.6456,25.0137 127.0056,24.9447 C127.2456,24.8977 127.5066,24.8867 127.7486,24.9227 C128.3666,25.0157 128.9426,24.9717 129.4966,24.6357 C129.8576,24.4167 130.0026,24.1417 130.0256,23.7237 C130.0896,22.5857 129.4776,22.0647 128.6426,21.6407 C128.2436,21.4377 127.7896,21.3407 127.3936,21.1337 C126.8086,20.8267 126.2446,20.4777 125.6866,20.1237 C125.3356,19.9027 125.0256,19.6137 124.6706,19.4027 C124.1176,19.0727 124.0406,18.5257 123.9956,17.9857 C123.9326,17.2217 124.2166,16.5707 124.5726,15.8767 C125.1626,14.7277 126.2826,14.3977 127.2336,13.7967 C127.5626,13.5897 127.9496,13.4487 128.3286,13.3567 C128.6306,13.2817 128.9666,13.2917 129.2766,13.3367 C129.3866,13.3527 129.5136,13.5697 129.5486,13.7147 C129.6316,14.0667 129.3556,14.5867 129.0356,14.7577 C128.6406,14.9697 128.2596,15.2207 127.8436,15.3777 C127.2996,15.5827 127.1076,16.0687 126.8226,16.4867 C126.7866,16.5397 126.7726,16.6067 126.7446,16.6647 C126.3846,17.3907 126.5566,17.9337 127.2776,18.3677 C127.3536,18.4137 127.4226,18.4797 127.4736,18.5517 C127.8936,19.1477 128.5486,19.3507 129.1776,19.6157 C129.7046,19.8397 130.2116,20.1167 130.7096,20.4027 C131.0706,20.6097 131.5186,20.7947 131.7246,21.1187 C132.2976,22.0177 132.6796,23.0027 132.3486,24.1077 C132.2336,24.4877 132.1536,24.9017 131.9416,25.2237 C131.7366,25.5337 131.4066,25.7837 131.0886,25.9937 C130.4106,26.4407 129.6686,26.8047 128.8736,26.9387 C128.1316,27.0637 127.3606,27.0217 126.7076,27.0487" id="Fill-37"></path>
            <path d="M52.9663,28.367 C52.9913,27.483 53.0183,26.6 53.0423,25.717 C53.0553,25.229 53.0713,24.741 53.0723,24.254 C53.0723,23.965 53.0433,23.676 53.0323,23.387 C53.0133,22.842 52.9873,22.297 52.9833,21.752 C52.9793,21.284 53.0143,20.815 53.0093,20.347 C53.0043,19.794 52.9773,19.239 52.9553,18.685 C52.9433,18.358 52.9363,18.03 52.9023,17.705 C52.8643,17.344 52.8243,16.978 52.7403,16.626 C52.6003,16.036 53.0953,15.091 53.6813,14.906 C53.7733,14.877 53.8833,14.889 53.9823,14.902 C54.3243,14.947 54.6643,15.005 55.0073,15.052 C55.2713,15.088 55.4333,15.146 55.5403,15.475 C55.7183,16.018 55.7883,16.552 55.8163,17.114 C55.8453,17.721 55.9853,18.322 56.0373,18.929 C56.0723,19.343 56.0313,19.762 56.0423,20.179 C56.0563,20.73 56.0993,21.282 56.1083,21.834 C56.1133,22.273 56.0773,22.713 56.0753,23.152 C56.0713,23.633 56.0873,24.114 56.0913,24.596 C56.0963,25.126 56.0953,25.657 56.1003,26.188 C56.1063,26.771 56.1383,27.355 56.1183,27.937 C56.0873,28.887 55.8763,29.755 54.9113,30.221 C54.7873,30.28 54.6753,30.378 54.5773,30.477 C54.1333,30.927 53.6843,30.92 53.2003,30.489 C52.7173,30.057 52.5263,29.564 52.7383,28.932 C52.8013,28.75 52.8253,28.554 52.8673,28.364 C52.9003,28.365 52.9333,28.366 52.9663,28.367" id="Fill-39"></path>
            <path d="M184.189,21.408 C184.162,20.803 184.122,20.196 184.112,19.59 C184.104,19.116 184.094,18.637 184.155,18.169 C184.222,17.644 184.357,17.126 184.485,16.611 C184.533,16.417 184.629,16.228 184.732,16.054 C184.891,15.783 184.835,15.604 184.521,15.554 C184.335,15.526 184.139,15.546 183.95,15.565 C183.606,15.6 183.263,15.65 182.921,15.699 C182.821,15.714 182.723,15.747 182.623,15.766 C182.024,15.884 181.426,16.014 180.824,16.108 C180.587,16.145 179.793,15.576 179.764,15.344 C179.744,15.176 179.799,14.944 179.911,14.824 C180.352,14.349 180.907,14.082 181.557,13.978 C181.971,13.912 182.372,13.762 182.778,13.647 C182.815,13.637 182.849,13.608 182.886,13.605 C183.622,13.532 184.359,13.471 185.094,13.387 C185.447,13.346 185.793,13.246 186.147,13.201 C186.568,13.147 186.999,13.155 187.414,13.079 C187.936,12.982 188.448,12.829 188.964,12.7 C188.989,12.694 189.015,12.68 189.04,12.682 C189.699,12.732 190.36,12.771 191.016,12.847 C191.135,12.862 191.284,13.012 191.336,13.135 C191.559,13.653 191.202,14.268 190.662,14.405 C190.336,14.487 190.036,14.662 189.713,14.764 C189.348,14.882 188.972,14.969 188.599,15.06 C188.453,15.096 188.294,15.15 188.153,15.128 C187.501,15.024 187.422,15.558 187.289,15.946 C186.935,16.978 186.85,18.054 186.891,19.142 C186.908,19.559 186.822,19.988 186.882,20.396 C187.028,21.366 186.631,22.248 186.503,23.172 C186.465,23.441 186.314,23.496 186.046,23.517 C185.628,23.552 185.222,23.614 184.815,23.465 C184.501,23.348 184.285,23.177 184.27,22.804 C184.262,22.615 184.168,22.431 184.138,22.242 C184.097,21.97 184.081,21.693 184.053,21.419 C184.098,21.415 184.144,21.412 184.189,21.408" id="Fill-41"></path>
            <path d="M74.4634,16.2528 C75.3394,16.5288 75.5704,16.8978 75.5074,17.7998 C75.4774,18.2448 75.5674,18.6978 75.6044,19.1488 C75.6084,19.1988 75.6184,19.2498 75.6204,19.3018 C75.6444,19.9038 75.6794,20.5078 75.6834,21.1098 C75.6864,21.5448 75.6314,21.9798 75.6324,22.4138 C75.6324,22.9168 75.6644,23.4208 75.6834,23.9238 C75.6874,24.0138 75.7024,24.1038 75.6994,24.1918 C75.6894,24.5718 75.6974,24.9548 75.6534,25.3308 C75.5374,26.3108 75.4534,27.2998 75.2354,28.2588 C75.1604,28.5918 74.7354,28.8488 74.4614,29.1318 C74.3444,29.2508 74.2024,29.3468 74.0724,29.4528 C73.4244,29.9868 72.3134,29.5438 72.1404,28.7028 C72.0624,28.3238 72.1094,27.9998 72.1834,27.6538 C72.3034,27.0968 72.4784,26.5458 72.5354,25.9818 C72.6094,25.2738 72.5864,24.5548 72.6074,23.8398 C72.6094,23.7368 72.6004,23.6288 72.6294,23.5328 C72.7974,22.9828 72.6504,22.4468 72.5904,21.9028 C72.5474,21.5148 72.5744,21.1168 72.5604,20.7248 C72.5404,20.1718 72.4924,19.6188 72.4894,19.0658 C72.4864,18.3228 72.4424,17.5648 72.7154,16.8588 C72.7964,16.6488 73.0524,16.4288 73.2704,16.3688 C73.6514,16.2668 74.0644,16.2848 74.4634,16.2528" id="Fill-43"></path>
            <path d="M117.7574,22.1981 C117.7874,21.6621 117.7884,21.1221 117.8554,20.5901 C117.9314,19.9871 118.0114,19.3911 117.8324,18.7951 C117.8254,18.7711 117.8224,18.7411 117.8304,18.7181 C118.0824,17.9271 117.9994,17.1111 118.0524,16.3041 C118.0674,16.0851 118.3554,15.8311 118.5784,15.6861 C119.0454,15.3851 119.5554,15.1331 120.1384,15.3381 C120.2884,15.3901 120.4904,15.5171 120.5234,15.6461 C120.6684,16.2181 120.7394,16.7941 120.6504,17.3981 C120.5604,18.0001 120.5834,18.6191 120.5654,19.2301 C120.5474,19.8421 120.5574,20.4541 120.5214,21.0631 C120.4834,21.7051 120.4114,22.3441 120.3434,22.9841 C120.2814,23.5511 120.2254,24.1181 120.1224,24.6771 C120.0924,24.8411 119.9374,25.0131 119.7924,25.1161 C119.5434,25.2941 119.2674,25.4411 118.9864,25.5641 C118.3404,25.8461 117.8094,25.4451 117.6604,24.7961 C117.5604,24.3581 117.6094,23.8821 117.6234,23.4241 C117.6364,23.0131 117.6924,22.6051 117.7294,22.1961 C117.7384,22.1971 117.7474,22.1981 117.7574,22.1981" id="Fill-45"></path>
        </g>
    </g>
</svg>