<?xml version="1.0" encoding="UTF-8" standalone="no"?>
<svg width="243px" height="34px" viewBox="0 0 243 34" version="1.1" xmlns="http://www.w3.org/2000/svg" xmlns:xlink="http://www.w3.org/1999/xlink">
    <!-- Generator: Sketch 44.1 (41455) - http://www.bohemiancoding.com/sketch -->
    <title>Page 1</title>
    <desc>Created with Sketch.</desc>
    <defs>
        <polygon id="path-1" points="3.81449429e-16 23.9998627 3.81449429e-16 0.176125101 11.0532595 0.176125101 11.0532595 23.9998627"></polygon>
    </defs>
    <g id="Page-1" stroke="none" stroke-width="1" fill="none" fill-rule="evenodd">
        <g>
            <path d="M18.0165,19.0802 C18.3055,18.6772 18.5675,18.3722 18.7575,18.0352 C19.0415,17.5312 19.2985,17.0132 19.5255,16.4852 C19.7515,15.9582 19.9065,15.4062 20.1295,14.8772 C20.4055,14.2252 20.6865,13.5712 21.0265,12.9442 C21.5055,12.0582 22.4215,12.0082 23.3565,12.0602 C24.0915,12.1022 24.3495,12.6642 24.6175,13.1312 C25.0435,13.8762 25.2485,14.6712 25.2915,15.5412 C25.3445,16.6182 25.6515,17.6852 25.8495,18.7582 C25.8555,18.7902 25.8735,18.8212 25.8775,18.8532 C25.9925,19.8562 26.0805,20.8622 26.2255,21.8622 C26.3935,23.0342 26.6115,24.2012 26.8025,25.3712 C26.8345,25.5672 26.8575,25.7662 26.8595,25.9642 C26.8665,26.8462 26.8455,27.7272 26.8725,28.6082 C26.8835,28.9512 26.9335,29.3122 27.0705,29.6282 C27.3365,30.2422 26.9725,30.7192 26.6285,31.1202 C26.2385,31.5782 25.5905,31.6542 24.9555,31.5182 C24.8355,31.4932 24.6865,31.4332 24.6295,31.3462 C24.4025,31.0002 24.1765,30.6952 23.6965,30.5672 C23.5585,30.5302 23.4655,30.1732 23.4575,29.9592 C23.4235,28.9332 23.4775,27.9022 23.4015,26.8792 C23.3015,25.5432 23.1315,24.2112 22.9485,22.8822 C22.7995,21.7992 22.5965,20.7222 22.3935,19.6452 C22.3615,19.4752 22.2005,19.3232 22.0985,19.1632 C21.9595,19.2792 21.7465,19.3742 21.6965,19.5172 C21.4635,20.1792 21.2675,20.8522 21.0735,21.5252 C20.9165,22.0692 20.8135,22.6262 20.6275,23.1602 C20.4955,23.5422 20.3335,23.9472 20.0615,24.2512 C19.4605,24.9212 17.7955,24.9132 17.0855,24.3512 C16.3465,23.7672 15.9825,23.0072 15.6485,22.2162 C15.6355,22.1852 15.6395,22.1432 15.6185,22.1212 C15.3935,21.8892 15.1645,21.6602 14.9375,21.4302 C14.8445,21.6942 14.6605,21.9632 14.6745,22.2232 C14.7295,23.2282 14.8735,24.2302 14.9355,25.2362 C14.9815,25.9992 14.9735,26.7662 14.9385,27.5292 C14.9305,27.6882 14.7325,27.9252 14.5625,27.9792 C14.0315,28.1522 13.4795,28.2962 12.9215,28.3722 C12.4595,28.4342 12.1355,28.1892 12.0685,27.7612 C11.9595,27.0792 11.9365,26.3832 11.7815,25.7102 C11.3605,23.8892 11.4355,22.0482 11.4615,20.2102 C11.4725,19.4682 11.6415,18.7272 11.6835,17.9832 C11.7395,17.0062 11.7275,16.0252 11.7705,15.0472 C11.8155,14.0032 12.5005,13.3372 13.3925,12.9972 C14.0625,12.7422 15.2775,13.4492 15.6325,14.2022 C15.9025,14.7742 16.2825,15.3052 16.5755,15.8702 C16.8185,16.3392 17.0235,16.8262 17.2135,17.3152 C17.3755,17.7302 17.4785,18.1642 17.6355,18.5802 C17.6905,18.7252 17.8305,18.8432 18.0165,19.0802" id="Fill-1" fill="#004461"></path>
            <g id="Group-5" transform="translate(0.000000, 9.502200)">
                <mask id="mask-2" fill="white">
                    <use xlink:href="#path-1"></use>
                </mask>
                <g id="Clip-4"></g>
                <path d="M6.0595,9.4003 C5.9295,9.5533 5.7465,9.6733 5.7155,9.8203 C5.5605,10.5803 5.4485,11.3473 5.3125,12.1103 C5.2505,12.4593 5.1585,12.8023 5.1055,13.1513 C5.0865,13.2693 5.1005,13.4563 5.1815,13.5083 C5.4025,13.6533 5.7055,13.8713 5.9045,13.8233 C6.1695,13.7583 6.4135,13.4983 6.5875,13.2723 C6.9645,12.7823 6.6365,12.2453 6.6015,11.7383 C6.5505,11.0123 6.3505,10.2943 6.2075,9.5733 C6.2005,9.5323 6.1455,9.4983 6.0595,9.4003 M-0.0005,21.5853 C0.2615,20.4773 0.5345,19.3723 0.7815,18.2613 C0.9285,17.6013 1.0435,16.9363 1.1585,16.2703 C1.3135,15.3723 1.4595,14.4723 1.5985,13.5713 C1.7795,12.3983 1.9295,11.2203 2.1265,10.0493 C2.2825,9.1253 2.5125,8.2113 2.6615,7.2863 C2.7635,6.6473 2.7955,6.0003 2.8375,5.3553 C2.9275,3.9823 3.0075,2.6103 3.0805,1.2373 C3.1085,0.7253 3.4645,0.2993 4.0185,0.2193 C5.0645,0.0673 5.5765,0.2903 6.2985,1.3123 C6.4045,1.4623 6.5195,1.6323 6.6785,1.7213 C7.6175,2.2433 7.9595,3.0883 8.2575,3.9703 C8.3265,4.1723 8.4345,4.3663 8.5435,4.5553 C8.8795,5.1373 8.8145,5.7693 8.8755,6.3923 C8.9215,6.8573 9.1605,7.3063 9.2955,7.7663 C9.3795,8.0493 9.4625,8.3383 9.4915,8.6293 C9.5415,9.1493 9.3725,9.6993 9.7775,10.1673 C9.7885,10.1783 9.7925,10.1973 9.7955,10.2133 C9.9115,10.9593 10.0465,11.7023 10.1325,12.4513 C10.1895,12.9543 10.0385,13.4803 10.4185,13.9413 C10.4935,14.0313 10.4635,14.1983 10.4615,14.3303 C10.4405,16.0483 10.7995,17.7333 11.0215,19.4293 C11.1265,20.2333 10.9965,20.9613 10.2455,21.4793 C9.5665,21.9483 8.7465,21.9233 8.4815,21.0723 C8.0655,19.7313 7.6675,18.3923 7.5895,16.9943 C7.5705,16.6533 7.3865,16.4703 6.9995,16.4723 C6.3045,16.4763 5.5415,16.3913 4.9935,16.8123 C4.6615,17.0663 4.5125,17.5463 4.3585,17.9483 C4.1295,18.5413 3.9705,19.1553 3.7805,19.7593 C3.7655,19.8063 3.7305,19.8503 3.7225,19.8983 C3.6095,20.5883 3.5365,21.2853 3.3795,21.9673 C3.1855,22.8213 2.8595,23.6093 1.8185,23.9493 C1.1305,24.1723 0.2655,23.6303 0.1905,22.8613 C0.1495,22.4493 0.1825,22.0313 0.1825,21.6163 C0.1225,21.6053 0.0615,21.5943 -0.0005,21.5853" id="Fill-3" fill="#004461" mask="url(#mask-2)"></path>
            </g>
            <path d="M35.08,16.3146 C35.024,16.2986 34.97,16.2836 34.914,16.2676 C34.914,15.9546 34.945,15.6366 34.907,15.3286 C34.837,14.7546 34.404,14.5576 33.892,14.8256 C33.785,14.8806 33.647,14.8806 33.527,14.9156 C33.049,15.0536 32.505,15.1046 32.106,15.3576 C31.464,15.7666 31.085,16.2886 31.314,17.1746 C31.598,18.2646 31.597,19.4186 31.778,20.5376 C31.821,20.7996 32.102,21.0286 32.274,21.2726 C32.508,21.1236 32.802,21.0176 32.963,20.8176 C33.534,20.1046 34.162,19.4276 34.376,18.5016 C34.548,17.7586 34.841,17.0426 35.08,16.3146 M35.78,27.7246 C35.784,27.7006 35.788,27.6756 35.791,27.6516 C36.05,27.6516 36.309,27.6416 36.565,27.6536 C37.474,27.6916 38.674,26.6536 38.796,25.8116 C38.97,24.6246 38.545,23.6466 37.757,22.7716 C37.684,22.6916 37.501,22.6586 37.376,22.6686 C36.961,22.7056 36.547,22.8266 36.137,22.8106 C35.608,22.7916 35.161,22.9196 34.755,23.2166 C34.191,23.6286 33.588,23.6866 32.944,23.4136 C32.594,23.2646 32.34,23.4226 32.358,23.7236 C32.425,24.8486 32.543,25.9706 32.674,27.0906 C32.687,27.2036 32.91,27.3606 33.055,27.3816 C33.96,27.5136 34.871,27.6146 35.78,27.7246 M38.483,15.8976 C38.359,16.8226 38.298,17.7596 38.083,18.6656 C37.986,19.0736 37.585,19.4886 37.883,19.8726 C38.117,20.1746 38.582,20.3196 38.947,20.5296 C39.984,21.1266 40.871,21.9266 41.508,22.8606 C42.195,23.8706 42.616,25.0096 42.1,26.3116 C41.842,26.9596 41.833,27.7176 41.36,28.2836 C41.034,28.6726 40.588,28.9766 40.172,29.2906 C39.991,29.4266 39.739,29.4766 39.54,29.5956 C38.777,30.0476 38.01,30.4466 37.05,30.3006 C36.055,30.1486 35.036,30.1026 34.059,29.8836 C33.244,29.7006 32.478,29.3246 31.683,29.0556 C31.508,28.9976 31.284,28.9946 31.102,29.0376 C30.083,29.2766 29.152,28.6206 29.114,27.6096 C29.072,26.4776 29.065,25.3426 28.988,24.2126 C28.943,23.5576 28.788,22.9086 28.688,22.2546 C28.617,21.7926 28.55,21.3286 28.493,20.8636 C28.368,19.8296 28.365,18.7666 28.088,17.7706 C27.909,17.1296 27.872,16.5236 27.868,15.8856 C27.862,15.0126 28.649,13.9096 29.534,13.5806 C30.39,13.2616 31.222,12.8676 32.103,12.6386 C33.104,12.3796 34.145,12.2536 35.173,12.0956 C35.875,11.9876 36.424,12.4086 36.906,12.7526 C37.977,13.5196 38.576,14.5626 38.483,15.8976" id="Fill-6" fill="#004461"></path>
            <path d="M132.1942,13.881 C131.9512,14.451 131.7332,15.032 131.4592,15.587 C131.1432,16.224 130.8172,16.862 130.4242,17.452 C130.0252,18.053 129.5612,18.614 129.0882,19.158 C128.6562,19.653 128.3612,19.649 127.7732,19.345 C127.4042,19.154 126.9892,19.055 126.6042,18.89 C126.4832,18.837 126.3622,18.721 126.3012,18.602 C125.9022,17.819 125.5272,17.023 125.1272,16.239 C124.6812,15.367 124.2322,14.496 123.7512,13.644 C123.6512,13.467 123.3732,13.246 123.2252,13.277 C123.0512,13.314 122.8412,13.585 122.8032,13.784 C122.6522,14.581 122.5862,15.393 122.4402,16.191 C122.3572,16.647 122.1762,17.084 122.0542,17.533 C121.9612,17.879 121.8152,18.232 121.8232,18.577 C121.8472,19.618 121.3582,20.453 120.8082,21.256 C120.6972,21.42 120.3392,21.506 120.1112,21.48 C119.6682,21.427 119.2022,21.34 118.8092,21.139 C118.2652,20.861 118.1962,20.465 118.3652,19.869 C118.4832,19.45 118.5032,19.003 118.6212,18.583 C118.7372,18.168 118.9212,17.772 119.0782,17.368 C119.1242,17.248 119.2092,17.135 119.2242,17.013 C119.3502,16 119.5222,14.987 119.5652,13.97 C119.6082,12.967 119.9502,12.041 120.1182,11.079 C120.3422,9.799 121.3442,9.425 122.2152,8.887 C122.4572,8.736 122.9162,8.878 123.2572,8.961 C123.5152,9.025 123.7342,9.237 123.9892,9.332 C125.5082,9.896 126.4022,11.028 126.9962,12.485 C127.2762,13.174 127.6692,13.819 128.0332,14.47 C128.0922,14.578 128.3302,14.712 128.3782,14.679 C128.5662,14.549 128.7882,14.385 128.8612,14.184 C129.2322,13.159 129.5632,12.12 129.9042,11.084 C130.2012,10.183 131.5142,9.164 132.4572,9.175 C132.7392,9.178 133.0652,9.303 133.2932,9.475 C133.8892,9.925 134.4822,10.394 135.0022,10.927 C135.5442,11.482 135.8582,12.165 135.9902,12.964 C136.0672,13.425 136.4222,13.836 136.6252,14.282 C136.8342,14.742 137.0492,15.205 137.1902,15.688 C137.3602,16.272 137.4522,16.879 137.5822,17.476 C137.7062,18.046 137.8822,18.61 137.9512,19.186 C138.0482,20.014 137.9892,20.831 137.5632,21.593 C137.3062,22.053 136.9542,22.148 136.4952,21.986 C136.2692,21.906 136.0612,21.758 135.8312,21.716 C135.0342,21.571 134.7052,21.048 134.7102,20.308 C134.7162,19.12 134.3822,18.026 133.9222,16.953 C133.5562,16.105 133.2142,15.246 132.8352,14.403 C132.7382,14.19 132.5432,14.021 132.3932,13.831 L132.1942,13.881 Z" id="Fill-8" fill="#004461"></path>
            <path d="M82.6913,21.5314 C82.9413,20.4174 83.2283,19.3104 83.4283,18.1874 C83.5963,17.2514 83.6703,16.2974 83.7693,15.3484 C83.8053,15.0014 83.7893,14.6474 83.8013,14.2984 C83.8233,13.7084 84.1293,13.3524 84.7083,13.2274 C85.1023,13.1424 85.4913,13.0034 85.8883,12.9714 C86.1793,12.9494 86.5043,13.0114 86.7743,13.1294 C87.3083,13.3604 87.8373,13.6244 88.3283,13.9364 C88.6613,14.1494 88.9803,14.4284 89.2103,14.7484 C89.9403,15.7624 90.6153,16.8174 91.3323,17.8434 C91.8023,18.5174 92.3123,19.1664 92.7983,19.8314 C93.0593,20.1884 93.3803,20.2284 93.7393,19.9364 C94.2183,19.5464 94.4653,19.0004 94.6983,18.4554 C94.9443,17.8794 95.0833,17.2514 95.3783,16.7054 C96.0433,15.4744 96.4133,14.1874 96.4503,12.7874 C96.4723,11.9424 96.6953,11.1384 97.1423,10.4024 C97.3043,10.1354 97.4713,10.0194 97.7683,10.1444 C97.8363,10.1734 97.9123,10.2084 97.9803,10.2034 C99.3853,10.0974 99.6283,11.1544 99.8993,12.1494 C100.0383,12.6574 100.2193,13.2094 100.1463,13.7074 C100.0263,14.5134 99.7293,15.2984 99.4743,16.0804 C99.3163,16.5674 99.0873,17.0304 98.9053,17.5104 C98.7083,18.0314 98.5293,18.5584 98.3403,19.0824 C97.9903,20.0564 97.6953,21.0574 97.2573,21.9914 C97.0723,22.3864 96.6303,22.7354 96.2223,22.9344 C95.8083,23.1354 95.2773,23.2404 94.8243,23.1824 C94.1853,23.1014 93.5703,22.8364 92.9473,22.6434 C91.6793,22.2534 90.9153,21.2144 89.9813,20.3814 C89.1073,19.6004 88.5993,18.5834 87.9523,17.6524 C87.8093,17.4464 87.5073,17.3504 87.2793,17.2044 C87.1583,17.4284 86.9733,17.6404 86.9273,17.8804 C86.8103,18.4864 86.7753,19.1084 86.6703,19.7184 C86.4673,20.8964 86.2553,22.0734 86.0143,23.2454 C85.9163,23.7244 85.4353,24.0054 84.9353,23.9994 C84.2533,23.9914 83.6943,23.8554 83.1833,23.2874 C82.6783,22.7234 82.9443,22.1344 82.6913,21.5314" id="Fill-10" fill="#004461"></path>
            <path d="M216.6649,9.673 C216.4919,8.589 216.3339,7.503 216.1419,6.423 C216.0079,5.673 215.8429,4.928 215.6529,4.19 C215.5979,3.974 215.4269,3.778 215.2799,3.596 C214.7219,2.9 214.7279,2.103 215.2089,1.481 C215.7659,0.762 217.1639,0.954 217.6989,1.627 C218.4789,2.608 219.1399,3.658 219.5669,4.844 C219.9079,5.787 220.0389,6.782 220.2719,7.745 C220.5729,8.984 220.3389,10.139 220.1619,11.295 C220.0089,12.299 219.5659,13.242 218.9719,14.131 C218.2769,15.168 217.4879,16.119 216.5059,16.817 C215.0819,17.826 212.7489,17.637 211.4859,15.942 C210.7429,14.945 210.0559,13.94 209.6189,12.772 C209.4549,12.33 209.2129,11.916 209.0659,11.47 C208.9909,11.241 209.1059,10.953 209.0389,10.72 C208.8799,10.167 208.6989,9.613 208.4609,9.092 C207.8279,7.707 207.6589,6.249 207.6169,4.747 C207.5999,4.091 208.1029,3.868 208.4339,3.534 C208.9909,2.972 209.8909,3.24 210.4009,3.832 C210.8699,4.377 210.8479,4.944 210.8979,5.567 C210.9439,6.124 211.1349,6.67 211.2769,7.218 C211.3919,7.656 211.5009,8.1 211.6619,8.523 C211.8589,9.04 212.1069,9.539 212.3329,10.046 C212.3779,10.147 212.4489,10.246 212.4589,10.35 C212.5999,11.898 213.6489,13.06 214.1999,14.434 C214.3519,14.814 214.7169,14.599 214.9229,14.364 C215.4439,13.773 215.8469,13.13 216.1079,12.357 C216.4059,11.477 216.6599,10.62 216.6649,9.673" id="Fill-12" fill="#004461"></path>
            <path d="M173.2138,20.1554 C172.5368,20.2344 171.8608,20.3274 171.1828,20.3904 C170.3028,20.4714 169.5168,20.2764 168.9038,19.5744 C168.6678,19.3024 168.5678,19.0634 168.6778,18.6794 C168.8708,18.0054 168.8788,17.2664 169.1348,16.6234 C169.5068,15.6874 169.2368,14.7054 169.4588,13.8004 C169.9448,11.8074 169.5898,9.8524 169.4348,7.8834 C169.3568,6.8894 170.2748,6.0094 171.2598,6.1694 C171.6658,6.2354 171.9158,6.5024 171.9868,6.9594 C172.0588,7.4184 172.2058,7.8724 172.3738,8.3064 C172.4148,8.4124 172.6868,8.5094 172.8258,8.4814 C173.7228,8.3024 174.6138,8.0954 175.5028,7.8824 C176.0028,7.7604 176.4898,7.5854 176.9928,7.4764 C177.5178,7.3644 178.3538,7.7774 178.4878,8.1744 C178.6498,8.6484 178.2928,9.2154 177.6728,9.5254 C176.8598,9.9324 176.0498,10.3004 175.1448,10.5094 C174.4498,10.6714 173.8168,11.1174 173.1738,11.4684 C172.7018,11.7264 172.5338,12.1614 172.6318,12.6884 C172.6968,13.0484 172.9178,13.1994 173.2688,13.0834 C174.0608,12.8184 174.8398,12.5144 175.6388,12.2744 C176.0708,12.1434 176.5398,12.1364 176.9788,12.0214 C177.3638,11.9204 177.7458,11.7754 178.1028,11.5954 C178.7218,11.2814 179.3848,11.3904 179.6718,11.8974 C179.9338,12.3584 179.6938,13.0144 179.1648,13.3624 C178.7528,13.6334 178.3928,14.0044 177.9518,14.2044 C177.2648,14.5154 176.5238,14.7084 175.8128,14.9734 C174.7698,15.3644 173.5448,15.3264 172.7208,16.2284 C172.5448,16.4224 172.3288,16.8094 172.4078,16.9534 C172.5528,17.2134 172.9208,17.5354 173.1698,17.5154 C173.9258,17.4564 174.6748,17.2634 175.4168,17.0874 C175.8788,16.9764 176.3248,16.7994 176.7788,16.6544 C177.2048,16.5184 177.6508,16.3484 177.9938,16.7944 C178.2758,17.1594 178.1908,17.9324 177.8838,18.3004 C177.2218,19.0934 176.3048,19.4614 175.3678,19.7644 C174.6758,19.9884 173.9518,20.1154 173.2418,20.2864 C173.2328,20.2424 173.2228,20.1994 173.2138,20.1554" id="Fill-14" fill="#004461"></path>
            <path d="M224.3593,14.2375 C225.4763,14.4315 226.7063,14.6455 227.9343,14.8615 C228.7643,15.0085 229.5383,14.9065 230.0713,14.1895 C230.4353,13.7015 230.8833,13.2415 230.8653,12.5395 C230.8573,12.2315 231.1553,11.8285 231.0383,11.6365 C230.9193,11.4415 230.4583,11.4625 230.1513,11.3725 C229.4503,11.1655 228.7453,10.9675 228.0543,10.7285 C227.5883,10.5675 227.1513,10.3265 226.6893,10.1525 C226.3603,10.0295 226.0133,9.8925 225.6713,9.8815 C225.2203,9.8665 224.8993,9.7255 224.5373,9.4415 C224.0573,9.0655 223.4523,8.8495 222.8973,8.5715 C222.7843,8.5145 222.6103,8.5235 222.5433,8.4395 C221.9403,7.6855 221.2273,6.9715 221.3963,5.8775 C221.4233,5.7015 221.4913,5.5025 221.6063,5.3755 C222.1383,4.7935 222.6833,4.2205 223.2453,3.6675 C223.8083,3.1115 224.4433,2.6225 224.9633,2.0315 C225.6263,1.2805 226.5273,0.9205 227.3863,0.5805 C228.2883,0.2245 229.2993,0.0945 230.2763,0.0075 C230.9813,-0.0565 231.3943,0.3125 231.4643,0.7645 C231.5553,1.3455 231.1313,1.9185 230.5313,1.9485 C229.7323,1.9885 229.0983,2.3595 228.5383,2.8725 C227.6863,3.6545 226.8593,4.4635 226.0233,5.2615 C225.9303,5.3495 225.8253,5.4365 225.7623,5.5455 C225.3513,6.2595 225.4073,6.6935 226.1133,7.1385 C227.3343,7.9095 228.5643,8.6815 230.0573,8.8415 C230.2443,8.8625 230.4203,8.9905 230.5993,9.0695 C230.9683,9.2335 231.3373,9.4005 231.7083,9.5615 C232.3243,9.8285 232.9833,10.0255 233.5523,10.3715 C234.7633,11.1045 234.8713,11.8855 234.6523,13.0395 C234.6493,13.0575 234.6483,13.0785 234.6383,13.0915 C234.0783,13.8455 233.5663,14.6435 232.9393,15.3375 C232.4543,15.8725 231.8273,16.2805 231.2583,16.7385 C231.1753,16.8055 231.0693,16.8685 230.9653,16.8835 C229.5433,17.0955 228.1113,17.3075 226.6863,16.9635 C225.6933,16.7215 224.6653,16.5325 223.8413,15.8335 C223.7113,15.7215 223.4633,15.7445 223.3393,15.6305 C223.1283,15.4345 222.8173,15.1685 222.8333,14.9525 C222.8503,14.7285 223.1723,14.4655 223.4223,14.3405 C223.6523,14.2255 223.9633,14.2725 224.3593,14.2375" id="Fill-16" fill="#004461"></path>
            <path d="M71.8808,20.5793 C71.8808,20.9303 71.8328,21.2343 71.8898,21.5173 C72.0208,22.1623 72.1468,22.8913 72.7918,23.1913 C73.9018,23.7083 75.0258,23.4803 76.0328,22.8673 C76.6178,22.5113 77.1418,22.0293 77.4198,21.3633 C77.9748,20.0343 77.7938,18.7253 77.1378,17.5103 C76.4698,16.2693 75.1268,15.9563 73.9438,15.4593 C73.8498,15.4203 73.6048,15.5523 73.5398,15.6673 C73.2548,16.1743 72.7328,16.5783 72.8308,17.2663 C72.8488,17.3883 72.7358,17.5353 72.6698,17.6633 C72.1848,18.5963 71.7778,19.5473 71.8808,20.5793 L71.8808,20.5793 Z M80.2428,20.5633 C80.2428,21.2463 80.2938,21.9333 80.2298,22.6093 C80.1628,23.3143 79.6848,23.8433 79.1158,24.1733 C77.6048,25.0533 76.0398,25.8193 74.2298,25.8793 C72.2078,25.9453 70.7078,25.0753 69.4558,23.5173 C68.5488,22.3873 68.2508,21.1623 68.3768,19.7953 C68.4338,19.1823 68.5768,18.5623 68.7828,17.9823 C69.1238,17.0253 69.5068,16.0783 69.9478,15.1643 C70.3058,14.4263 70.8538,13.8653 71.7928,13.9503 C71.9178,13.9613 72.0518,13.9333 72.1758,13.9013 C73.8578,13.4643 75.5198,13.7283 77.1038,14.2553 C77.8978,14.5183 78.7548,14.9333 79.0638,15.9373 C79.2368,16.5043 79.6518,16.9923 79.8858,17.5463 C80.0668,17.9743 80.1908,18.4433 80.2398,18.9043 C80.3008,19.4513 80.2548,20.0103 80.2548,20.5633 L80.2428,20.5633 Z" id="Fill-18" fill="#004461"></path>
            <path d="M148.8837,17.883 C148.8277,16.435 148.4927,15.392 148.0287,14.337 C147.7527,13.714 147.4137,13.198 146.9877,12.702 C146.9307,12.635 146.9047,12.54 146.8667,12.456 C146.5997,11.86 145.5197,11.6 145.1127,12.098 C144.6647,12.647 144.3547,13.306 143.9407,13.886 C143.4437,14.581 143.0047,16.544 143.0457,17.271 C143.0747,17.787 143.2567,18.294 143.3507,18.809 C143.5187,19.735 144.0727,20.51 144.9137,20.659 C145.7097,20.802 146.7567,20.698 147.3967,20.264 C148.2307,19.697 149.1257,18.881 148.8837,17.883 M144.8597,9.719 C144.8297,9.719 144.8697,9.728 144.9037,9.718 C145.9917,9.398 147.0317,9.721 148.0187,10.081 C148.5437,10.274 149.0127,10.746 149.3857,11.195 C149.8937,11.803 150.3757,12.428 150.5117,13.291 C150.6057,13.884 151.0437,14.415 151.2557,14.999 C151.6867,16.188 151.9267,17.434 151.6847,18.678 C151.5737,19.239 151.1937,19.82 150.7787,20.235 C150.1527,20.862 149.4017,21.371 148.6737,21.888 C148.4477,22.049 148.1257,22.077 147.8467,22.16 C146.5207,22.554 145.2587,23.012 143.7827,22.551 C142.6017,22.182 141.5607,21.725 140.7567,20.805 C140.5057,20.518 140.3577,20.12 140.2337,19.75 C139.8457,18.597 139.5877,17.436 140.0697,16.228 C140.2607,15.746 140.3137,15.21 140.4887,14.721 C140.6827,14.183 140.8927,13.638 141.1887,13.153 C141.6287,12.43 142.1627,11.765 142.6327,11.059 C142.7777,10.841 142.8017,10.541 142.9517,10.33 C143.4087,9.692 144.0927,9.663 144.8597,9.719" id="Fill-20" fill="#004461"></path>
            <path d="M51.0468,16.2238 C50.7108,16.1938 50.3078,16.1418 49.9028,16.1228 C49.0928,16.0838 48.6268,15.4898 48.1438,14.9828 C47.7258,14.5418 48.1158,13.7588 48.7098,13.6008 C49.4088,13.4138 50.0848,13.3788 50.8078,13.4828 C51.2438,13.5448 51.7728,13.4478 52.1638,13.2408 C52.9118,12.8458 53.7018,12.9098 54.4798,12.8658 C55.5648,12.8048 56.6538,12.8278 57.7418,12.8098 C58.1728,12.8028 58.9978,13.5118 58.9948,13.9488 C58.9938,14.1208 58.8718,14.3518 58.7318,14.4548 C58.1038,14.9168 57.4618,15.3648 56.8008,15.7778 C55.8728,16.3568 55.8128,16.4728 56.0938,17.5478 C56.1208,17.6538 56.1198,17.7668 56.1258,17.8768 C56.1968,19.1258 56.2848,20.3748 56.3338,21.6258 C56.3888,23.0398 56.3988,24.4568 56.4518,25.8718 C56.4678,26.2708 56.5478,26.6718 56.6388,27.0618 C56.7368,27.4878 56.3408,28.1548 55.8328,28.3478 C54.7928,28.7448 54.4138,28.4898 53.7128,27.6058 C52.9608,26.6568 53.1288,25.5688 53.0358,24.5598 C52.8598,22.6548 52.9498,20.7258 52.8898,18.8088 C52.8688,18.1508 52.7168,17.4978 52.6508,16.8408 C52.5948,16.2888 52.2708,16.1328 51.7778,16.1728 C51.5578,16.1908 51.3368,16.2028 51.0468,16.2238" id="Fill-22" fill="#004461"></path>
            <path d="M160.0507,15.5236 C160.3847,15.0436 160.7787,14.5926 161.0397,14.0756 C161.3937,13.3776 161.6557,12.6326 161.9377,11.9006 C162.0917,11.4966 162.2627,11.0846 162.3227,10.6616 C162.4467,9.7956 162.8637,9.1596 163.5747,8.6676 C164.0927,8.3076 165.0767,8.3536 165.5057,8.8276 C165.8277,9.1816 166.3277,9.4446 166.1897,10.0586 C166.1687,10.1476 166.1917,10.2506 166.1557,10.3306 C165.7667,11.2266 165.3707,12.1206 164.9727,13.0126 C164.6357,13.7666 164.3297,14.5376 163.9447,15.2666 C163.2477,16.5846 162.4997,17.8726 161.1767,18.6906 C160.4317,19.1506 159.1357,19.0706 158.4217,18.5696 C157.4067,17.8576 156.9607,16.7996 156.5277,15.7086 C156.3287,15.2076 156.0077,14.7546 155.7347,14.2846 C155.2007,13.3666 154.6827,12.4386 154.1207,11.5386 C153.7167,10.8916 153.2707,10.2686 152.8107,9.6606 C152.4077,9.1286 152.5677,8.4586 153.1907,8.2266 C154.0767,7.8966 155.1367,8.1446 155.7757,8.8556 C156.3017,9.4416 156.8817,9.9986 157.3017,10.6556 C158.0357,11.8046 158.6837,13.0106 159.3267,14.2156 C159.5307,14.5966 159.6067,15.0466 159.7397,15.4646 L160.0507,15.5236 Z" id="Fill-24" fill="#004461"></path>
            <path d="M186.3407,20.1545 C185.6177,19.9115 184.5587,19.5715 183.5127,19.1935 C183.2087,19.0845 182.8417,18.1005 182.9257,17.7845 C182.9997,17.5015 183.6127,17.2335 184.0097,17.3245 C184.2967,17.3895 184.6197,17.4115 184.8577,17.5635 C185.7727,18.1485 186.3497,17.5065 186.8977,16.9845 C187.3127,16.5895 187.7567,16.1955 187.8657,15.5215 C187.9727,14.8605 187.7347,14.2755 187.0787,14.0685 C186.7597,13.9675 186.4627,13.7935 186.1537,13.6585 C186.0367,13.6075 185.9147,13.5425 185.7937,13.5385 C184.8047,13.5135 183.9667,13.0315 183.1137,12.6245 C182.5437,12.3515 181.9867,12.0135 181.4947,11.6175 C180.4287,10.7565 180.2307,9.0715 181.5547,8.2425 C182.2127,7.8295 182.8087,7.3145 183.4677,6.9015 C184.0027,6.5675 184.5697,6.2645 185.1597,6.0435 C185.6947,5.8415 186.3747,6.1625 186.5907,6.5995 C186.7947,7.0145 186.5787,7.5905 186.1237,7.9975 C185.6467,8.4255 185.1427,8.8455 184.7597,9.3525 C184.1817,10.1195 184.6317,10.9715 185.5737,11.0915 C185.9597,11.1415 186.3247,11.3495 186.7027,11.4745 C187.0227,11.5805 187.3447,11.6745 187.6687,11.7645 C187.7737,11.7945 187.9107,11.7625 187.9907,11.8195 C189.0207,12.5515 190.3137,12.8765 191.1237,13.9625 C191.6527,14.6715 191.7817,15.7385 191.2977,16.4895 C190.7157,17.3915 190.1967,18.3685 189.3007,18.9825 C188.5227,19.5155 187.7597,20.1745 186.3407,20.1545" id="Fill-26" fill="#004461"></path>
            <path d="M62.5663,16.213 C62.5663,15.752 62.6003,15.287 62.5573,14.83 C62.5053,14.275 62.3683,13.728 62.3063,13.173 C62.2543,12.698 62.2933,12.211 62.2203,11.74 C62.1743,11.438 62.0613,11.108 61.8753,10.87 C60.9793,9.731 60.9973,9.498 62.2123,8.724 C63.1753,8.109 64.8153,8.433 65.1833,9.865 C65.4943,11.071 65.7283,12.262 65.7993,13.513 C65.8733,14.795 66.1743,16.065 66.3713,17.34 C66.3993,17.521 66.4133,17.706 66.4133,17.89 C66.4163,19.921 66.4163,21.952 66.4153,23.984 C66.4143,24.841 65.4653,26.02 64.6413,26.208 C64.4833,26.244 64.3373,26.342 64.1793,26.366 C64.0313,26.389 63.8083,26.414 63.7293,26.332 C63.0633,25.645 62.3813,24.974 62.5413,23.86 C62.6703,22.955 62.7573,22.035 62.7583,21.121 C62.7583,20.076 62.6303,19.031 62.5833,17.985 C62.5553,17.396 62.5783,16.804 62.5783,16.213 L62.5663,16.213 Z" id="Fill-28" fill="#004461"></path>
            <path d="M48.3261,20.8468 C48.4291,21.1708 48.5331,21.4938 48.6361,21.8198 C48.6681,21.9238 48.7121,22.0298 48.7201,22.1368 C48.8011,23.2378 48.9521,24.3418 48.9241,25.4408 C48.9041,26.1858 48.6301,26.9258 48.4671,27.6668 C48.4121,27.9138 48.3971,28.1868 48.2771,28.3988 C47.8851,29.0878 47.1721,29.2948 46.4671,29.4308 C45.9551,29.5298 45.7301,29.1028 45.4581,28.7268 C44.6351,27.5898 44.9911,26.3538 45.0261,25.1228 C45.0621,23.8598 45.0321,22.5848 44.9101,21.3268 C44.7421,19.6108 44.4471,17.9058 44.2331,16.1928 C44.1481,15.5078 44.4411,15.2128 45.1361,15.1798 C45.2271,15.1748 45.3201,15.1718 45.4121,15.1608 C46.6911,15.0198 47.1561,15.2928 47.5011,16.5638 C47.7581,17.5108 47.8851,18.4928 48.0961,19.4528 C48.1951,19.9068 48.3561,20.3448 48.4891,20.7898 C48.4341,20.8088 48.3811,20.8278 48.3261,20.8468" id="Fill-30" fill="#004461"></path>
            <path d="M240.4345,13.4367 C241.0355,13.5837 241.7315,13.3477 242.0005,14.1587 C242.2285,14.8407 241.6975,15.6807 240.9625,15.6757 C240.5395,15.6727 240.0735,15.7587 239.7055,15.6087 C239.2625,15.4257 238.8025,15.1057 238.5395,14.7157 C238.3075,14.3697 238.6175,13.9247 238.9895,13.7767 C239.4575,13.5887 239.9815,13.5367 240.4345,13.4367" id="Fill-32" fill="#004461"></path>
        </g>
    </g>
</svg>