<?xml version="1.0" encoding="UTF-8" standalone="no"?>
<svg width="814px" height="114px" viewBox="0 0 814 114" version="1.1" xmlns="http://www.w3.org/2000/svg" xmlns:xlink="http://www.w3.org/1999/xlink">
    <!-- Generator: Sketch 44.1 (41455) - http://www.bohemiancoding.com/sketch -->
    <title>Page 1</title>
    <desc>Created with Sketch.</desc>
    <defs>
        <polygon id="path-1" points="1.28156872e-15 81.1760063 1.28156872e-15 0.595717254 37.1360149 0.595717254 37.1360149 81.1760063"></polygon>
    </defs>
    <g id="Page-1" stroke="none" stroke-width="1" fill="none" fill-rule="evenodd">
        <g>
            <path d="M60.5306527,64.5359706 C61.5016159,63.1728824 62.3818663,62.1412647 63.0202158,61.0014118 C63.9743803,59.2967059 64.837832,57.5446471 65.6004917,55.7587647 C66.3597916,53.9762647 66.8805505,52.1092059 67.6297712,50.3199412 C68.5570579,48.1146471 69.5011432,45.9025882 70.6434529,43.7818529 C72.2527656,40.7850882 75.3302822,40.6159706 78.4716337,40.7918529 C80.9410384,40.9339118 81.8078499,42.8347941 82.7082587,44.4143529 C84.1395055,46.9342059 84.828251,49.6231765 84.9727196,52.5658235 C85.1507855,56.2086176 86.1822239,59.8175882 86.8474513,63.4468529 C86.8676097,63.5550882 86.9280849,63.6599412 86.9415239,63.7681765 C87.3278933,67.1606765 87.6235499,70.5633235 88.1107114,73.9456765 C88.6751467,77.9097941 89.4075688,81.857 90.0492781,85.8143529 C90.1567896,86.4772941 90.2340635,87.1503824 90.2407829,87.8200882 C90.2643011,90.8033235 90.1937466,93.7831765 90.2844595,96.7630294 C90.3214165,97.9231765 90.4894033,99.1442059 90.9496869,100.213029 C91.8433762,102.289794 90.6204329,103.903176 89.4646843,105.2595 C88.1543879,106.808618 85.9772801,107.065676 83.8438488,106.605676 C83.4406807,106.521118 82.9400803,106.318176 82.7485755,106.023912 C81.9859158,104.853618 81.2266158,103.822 79.6139434,103.389059 C79.1503001,103.263912 78.8378448,102.056412 78.8109669,101.332588 C78.6967359,97.8622941 78.8781616,94.3750882 78.6228218,90.9149412 C78.2868483,86.3961176 77.7156935,81.8908235 77.1008621,77.3956765 C76.6002617,73.7325882 75.9182357,70.0897941 75.2362096,66.447 C75.1286981,65.872 74.5877809,65.3578824 74.245088,64.8167059 C73.7780849,65.2090588 73.0624615,65.5303824 72.8944748,66.0140588 C72.1116567,68.2531765 71.4531488,70.5295 70.8013604,72.8058235 C70.2738821,74.6458235 69.9278295,76.5297941 69.3029189,78.3359706 C68.859434,79.6280294 68.315157,80.9978824 67.4013093,82.0261176 C65.382109,84.2922941 59.7881514,84.2652353 57.4027401,82.3643529 C54.9198964,80.3890588 53.6969531,77.8184706 52.5748019,75.1430294 C52.5311253,75.0381765 52.5445643,74.8961176 52.4740099,74.8217059 C51.7180697,74.037 50.9486905,73.2624412 50.1860308,72.4845 C49.8735755,73.3774412 49.2553844,74.2872941 49.3024207,75.1667059 C49.4872061,78.5659706 49.9710078,81.9550882 50.1793114,85.3577353 C50.3338591,87.9384706 50.3069813,90.5327353 50.1893906,93.1134706 C50.1625127,93.6512647 49.4972853,94.4528824 48.9261305,94.6355294 C47.1421116,95.2206765 45.2875382,95.7077353 43.4128065,95.9647941 C41.8606093,96.1745 40.7720554,95.3458235 40.5469532,93.8981765 C40.1807421,91.5914118 40.1034682,89.2372941 39.5827094,86.9609706 C38.1682613,80.8017059 38.4202414,74.5747941 38.5075945,68.3580294 C38.5445515,65.8483235 39.1123466,63.342 39.2534555,60.8255294 C39.4416006,57.5209706 39.4012838,54.2028824 39.5457524,50.8949412 C39.6969404,47.3637647 41.9983584,45.1111176 44.9952414,43.9611176 C47.2462633,43.0986176 51.3283405,45.4899412 52.5210461,48.0368529 C53.4281744,49.9715588 54.7048734,51.7675882 55.6892756,53.6786176 C56.505691,55.2649412 57.1944365,56.9121471 57.832786,58.5661176 C58.377063,59.9697941 58.7231156,61.4377353 59.2505939,62.8447941 C59.4353793,63.3352353 59.9057421,63.7343529 60.5306527,64.5359706" id="Fill-1" fill="#D9B073"></path>
            <g id="Group-5" transform="translate(0.000000, 32.139794)">
                <mask id="mask-2" fill="white">
                    <use xlink:href="#path-1"></use>
                </mask>
                <g id="Clip-4"></g>
                <path d="M20.3583099,31.7951324 C19.9215444,32.3126324 19.306713,32.7185147 19.2025613,33.2157206 C18.6818025,35.7863088 18.3055122,38.3805735 17.8485884,40.9613088 C17.6402848,42.14175 17.3311893,43.3018971 17.1531234,44.4823382 C17.0892884,44.8814559 17.1363247,45.5139559 17.4084632,45.6898382 C18.1509645,46.1802794 19.1689639,46.9176324 19.8375511,46.7552794 C20.7278806,46.5354265 21.5476558,45.6560147 22.1322496,44.8916029 C23.3988694,43.23425 22.2968766,41.4179265 22.1792859,39.7030735 C22.0079394,37.2474853 21.3359926,34.8189559 20.8555505,32.3802794 C20.8320324,32.2416029 20.647247,32.1266029 20.3583099,31.7951324 M-0.00167986714,73.0091029 C0.878570514,69.2614559 1.79577797,65.5239559 2.62563234,61.7661618 C3.11951328,59.5338088 3.50588272,57.2845441 3.89225216,55.0318971 C4.41301098,51.9945441 4.90353218,48.9504265 5.37053525,45.9029265 C5.97864715,41.9354265 6.4826073,37.9510147 7.14447495,33.9902794 C7.6685935,30.8649853 8.44133238,27.7735147 8.94193279,24.6448382 C9.28462569,22.4835147 9.39213718,20.2951324 9.53324602,18.1135147 C9.83562211,13.4695441 10.1044008,8.82895588 10.3496615,4.18498529 C10.443734,2.45322059 11.6397994,1.01233824 13.5010922,0.74175 C17.0153743,0.227632353 18.7355582,0.981897059 21.1612864,4.43866176 C21.5174182,4.94601471 21.9037876,5.52101471 22.4379854,5.82204412 C25.5927759,7.58763235 26.741805,10.4457206 27.7430058,13.4289559 C27.9748275,14.1121912 28.3376788,14.7683676 28.7038898,15.4076324 C29.8327605,17.3761618 29.6143778,19.5138088 29.8193216,21.6210147 C29.9738694,23.1938088 30.7768459,24.7124853 31.23041,26.2683676 C31.5126277,27.2255735 31.7914856,28.2030735 31.8889179,29.1873382 C32.0569046,30.9461618 31.4891095,32.8064559 32.8498019,34.3893971 C32.886759,34.4266029 32.9001979,34.4908676 32.9102771,34.5449853 C33.3000063,37.0682206 33.7535705,39.5813088 34.0425076,42.1146912 C34.2340125,43.8160147 33.7266926,45.5951324 35.0033916,47.1543971 C35.2553717,47.4588088 35.1545796,48.0236618 35.1478602,48.4701324 C35.0773058,54.2810147 36.2834504,59.9802794 37.0293114,65.71675 C37.3820835,68.4361618 36.945318,70.8985147 34.4221576,72.6505735 C32.140898,74.2368971 29.3859159,74.1523382 28.4955863,71.2739559 C27.0979368,66.7382206 25.7607626,62.20925 25.4987033,57.4807206 C25.4348684,56.3273382 24.8166773,55.7083676 23.5164601,55.7151324 C21.1814448,55.7286618 18.6179675,55.4411618 16.7768331,56.8651324 C15.6614014,57.72425 15.1608009,59.3477794 14.6434019,60.7074853 C13.8740227,62.7132206 13.339825,64.7899853 12.7014754,66.8329265 C12.6510794,66.9918971 12.5334887,67.1407206 12.5066109,67.3030735 C12.1269609,69.6368971 11.8817003,71.9943971 11.354222,74.3011618 C10.7024336,77.1896912 9.60716018,79.8549853 6.10967679,81.0049853 C3.7981796,81.75925 0.892009452,79.9260147 0.640029381,77.3249853 C0.502280275,75.9314559 0.613151506,74.5176324 0.613151506,73.1139559 C0.411567449,73.07675 0.206623658,73.0395441 -0.00167986714,73.0091029" id="Fill-3" fill="#D9B073" mask="url(#mask-2)"></path>
            </g>
            <path d="M117.859479,55.1817353 C117.671333,55.1276176 117.489908,55.0768824 117.301763,55.0227647 C117.301763,53.9640882 117.405914,52.8885 117.278245,51.8467353 C117.043063,49.9052647 115.588298,49.2389412 113.868114,50.1454118 C113.508623,50.3314412 113.044979,50.3314412 112.641811,50.4498235 C111.035858,50.9165882 109.208163,51.0890882 107.867629,51.9448235 C105.710679,53.3282059 104.43734,55.0937941 105.206719,58.0905588 C106.160884,61.7773235 106.157524,65.6805588 106.765636,69.4654118 C106.910105,70.3515882 107.85419,71.1261471 108.432064,71.9514412 C109.218242,71.4474706 110.206004,71.0889412 110.746921,70.4124706 C112.665329,68.0008529 114.775243,65.711 115.494226,62.5789412 C116.0721,60.0658529 117.056502,57.6440882 117.859479,55.1817353 M120.211293,93.7743824 C120.224732,93.6932059 120.23817,93.6086471 120.24825,93.5274706 C121.118421,93.5274706 121.988592,93.4936471 122.848684,93.5342353 C125.902682,93.6627647 129.934364,90.1518824 130.344251,87.3039412 C130.928845,83.2890882 129.500958,79.9811471 126.853487,77.0215882 C126.608227,76.751 125.993395,76.6393824 125.573428,76.6732059 C124.179139,76.7983529 122.788209,77.2076176 121.410718,77.1535 C119.633418,77.0892353 118.131617,77.5221765 116.767565,78.5267353 C114.872675,79.9202647 112.846755,80.1164412 110.683086,79.1930588 C109.507179,78.6890882 108.653807,79.2235 108.714282,80.2415882 C108.939384,84.0467353 109.335833,87.8417353 109.775958,91.6299706 C109.819634,92.0121765 110.568855,92.5432059 111.056017,92.6142353 C114.096576,93.0607059 117.157294,93.4023235 120.211293,93.7743824 M129.292654,53.7712941 C128.876047,56.8999706 128.671103,60.0692353 127.948761,63.1336471 C127.622866,64.5136471 126.275613,65.9173235 127.276814,67.2161471 C128.062992,68.2376176 129.625268,68.7280588 130.851571,69.4383529 C134.335615,71.4576176 137.3157,74.1635 139.455851,77.3226176 C141.763988,80.7387941 143.178436,84.5912941 141.444813,88.9951176 C140.578002,91.1868824 140.547764,93.7507059 138.95861,95.6651176 C137.863336,96.9808529 136.364895,98.0090882 134.967246,99.0711471 C134.359134,99.5311471 133.512481,99.7002647 132.843893,100.102765 C130.280416,101.631588 127.7035,102.981147 124.478155,102.487324 C121.135219,101.973206 117.71165,101.817618 114.42919,101.076882 C111.691006,100.457912 109.11745,99.1861471 106.446461,98.2762941 C105.858508,98.0801176 105.105927,98.0699706 104.494456,98.2154118 C101.070886,99.0237941 97.9429738,96.8049706 97.8153039,93.3854118 C97.674195,89.5565882 97.6506769,85.7176176 97.3919773,81.8955588 C97.2407893,79.6801176 96.7200305,77.4849706 96.3840571,75.2729118 C96.1455159,73.7102647 95.9204137,72.1408529 95.7289089,70.5680588 C95.3089421,67.0707059 95.2988629,63.4752647 94.3682165,60.1064412 C93.766824,57.9383529 93.6425139,55.8886471 93.6290749,53.7307059 C93.6089165,50.7779118 96.2530274,47.0471765 99.2263923,45.9343824 C102.102325,44.8554118 104.897624,43.5227647 107.85755,42.7482059 C111.220644,41.8721765 114.718127,41.446 118.171934,40.9115882 C120.530467,40.5462941 122.374961,41.9702647 123.994353,43.1337941 C127.592629,45.7280588 129.60511,49.2558529 129.292654,53.7712941" id="Fill-6" fill="#D9B073"></path>
            <path d="M444.137385,46.9504412 C443.32097,48.8783824 442.588548,50.8435294 441.667981,52.7207353 C440.606305,54.8752941 439.511031,57.0332353 438.190656,59.0288235 C436.850122,61.0616176 435.291205,62.9591176 433.702051,64.7991176 C432.250646,66.4733824 431.259524,66.4598529 429.284,65.4316176 C428.044258,64.7855882 426.649969,64.4507353 425.356471,63.8926471 C424.949943,63.7133824 424.543415,63.3210294 424.338471,62.9185294 C422.997937,60.2701471 421.738037,57.5777941 420.394143,54.9260294 C418.895702,51.9766176 417.387181,49.0305882 415.771149,46.1488235 C415.435176,45.5501471 414.501169,44.8026471 414.003929,44.9075 C413.419335,45.0326471 412.713791,45.9492647 412.586121,46.6223529 C412.078801,49.3180882 411.857059,52.0645588 411.366537,54.7636765 C411.087679,56.3060294 410.479567,57.7841176 410.06968,59.3027941 C409.757225,60.4730882 409.266703,61.6670588 409.293581,62.8339706 C409.374215,66.355 407.731305,69.1792647 405.883451,71.8952941 C405.51052,72.45 404.307736,72.7408824 403.541716,72.6529412 C402.053354,72.4736765 400.487718,72.1794118 399.167342,71.4995588 C397.339647,70.5592647 397.107825,69.2198529 397.67562,67.2039706 C398.072069,65.7867647 398.139263,64.2748529 398.535712,62.8542647 C398.925441,61.4505882 399.543632,60.1111765 400.071111,58.7447059 C400.225658,58.3388235 400.511236,57.9566176 400.561632,57.5439706 C400.984958,54.1176471 401.562833,50.6913235 401.707301,47.2514706 C401.85177,43.8589706 403.000799,40.7269118 403.565234,37.4730882 C404.317815,33.1436765 407.684269,31.8786765 410.610597,30.0589706 C411.423653,29.5482353 412.965771,30.0285294 414.11144,30.3092647 C414.978252,30.5257353 415.714033,31.2427941 416.570766,31.5641176 C421.674202,33.4717647 424.677805,37.3005882 426.673487,42.2286765 C427.614212,44.5591176 428.934588,46.7407353 430.157531,48.9426471 C430.355755,49.3079412 431.155372,49.7611765 431.316639,49.6495588 C431.94827,49.2098529 432.694131,48.6551471 432.939391,47.9752941 C434.185853,44.5083824 435.297925,40.9941176 436.443594,37.49 C437.441435,34.4425 441.852766,30.9958824 445.020996,31.0330882 C445.968441,31.0432353 447.063714,31.4660294 447.829733,32.0477941 C449.832135,33.5698529 451.824458,35.1561765 453.571519,36.9589706 C455.392495,38.8361765 456.447452,41.1463235 456.890937,43.8488235 C457.149636,45.4080882 458.342342,46.7982353 459.024368,48.3067647 C459.726553,49.8626471 460.448895,51.4286765 460.922618,53.0623529 C461.493773,55.0376471 461.802868,57.0907353 462.239634,59.11 C462.656241,61.0379412 463.247554,62.9455882 463.479376,64.8938235 C463.80527,67.6944118 463.607046,70.4577941 462.175799,73.0351471 C461.312347,74.5910294 460.129721,74.9123529 458.587603,74.3644118 C457.828303,74.0938235 457.129478,73.5932353 456.356739,73.4511765 C453.679031,72.9607353 452.573678,71.1917647 452.590477,68.6888235 C452.610635,64.6705882 451.488484,60.9702941 449.943006,57.3410294 C448.713344,54.4727941 447.564314,51.5673529 446.290975,48.7160294 C445.965081,47.9955882 445.309933,47.4239706 444.805973,46.7813235 L444.137385,46.9504412 Z" id="Fill-8" fill="#D9B073"></path>
            <path d="M277.820795,72.8267941 C278.660729,69.0588529 279.624973,65.3145882 280.29692,61.5162059 C280.861355,58.3503235 281.109975,55.1235588 281.442589,51.9137059 C281.563539,50.7400294 281.509784,49.5426765 281.5501,48.3622353 C281.624015,46.3666471 282.652093,45.1625294 284.597379,44.7397353 C285.921115,44.4522353 287.228051,43.9820882 288.561866,43.8738529 C289.539549,43.7994412 290.631462,44.0091471 291.53859,44.4082647 C293.332689,45.1895882 295.109988,46.0825294 296.759617,47.1378235 C297.878409,47.8582647 298.950164,48.8019412 299.722903,49.8842941 C302.175509,53.314 304.44333,56.8823824 306.852259,60.3526765 C308.431334,62.6323824 310.144799,64.8275294 311.77763,67.0767941 C312.65452,68.2842941 313.732995,68.4195882 314.93914,67.4319412 C316.548452,66.1128235 317.378307,64.2660588 318.161125,62.4226765 C318.987619,60.4744412 319.454623,58.3503235 320.445744,56.5035588 C322.679967,52.3398824 323.923069,47.9867941 324.047379,43.2515 C324.121293,40.3934118 324.870514,37.674 326.372315,35.1845882 C326.916592,34.2815 327.477668,33.8891471 328.475509,34.3119412 C328.703971,34.4100294 328.959311,34.5284118 329.187773,34.5115 C333.908199,34.1529706 334.724615,37.7281176 335.635103,41.0935588 C336.102106,42.8117941 336.710218,44.6788529 336.464957,46.3632647 C336.061789,49.0894412 335.063948,51.7445882 334.207216,54.3895882 C333.676378,56.0367941 332.906999,57.6028235 332.295527,59.2263529 C331.633659,60.9885588 331.032267,62.7710588 330.397277,64.5434118 C329.22137,67.8378235 328.230248,71.2235588 326.758685,74.3826765 C326.137134,75.7187059 324.652131,76.8991471 323.28136,77.5722353 C321.89043,78.2520882 320.106411,78.6072353 318.584451,78.4110588 C316.437581,78.1370882 314.371345,77.2407647 312.27823,76.5879706 C308.018087,75.2688529 305.45125,71.7545882 302.313258,68.9370882 C299.37685,66.2954706 297.670105,62.8556176 295.496357,59.7066471 C295.015915,59.0098824 294.001276,58.6851765 293.235256,58.1913529 C292.828728,58.949 292.207178,59.6660588 292.05263,60.4778235 C291.659541,62.5275294 291.54195,64.6313529 291.189178,66.6945882 C290.507152,70.679 289.794888,74.6600294 288.985192,78.6241471 C288.655938,80.2442941 287.039906,81.1947353 285.360039,81.1744412 C283.0687,81.1473824 281.190609,80.6873824 279.473785,78.7662059 C277.777119,76.8585588 278.670808,74.8663529 277.820795,72.8267941" id="Fill-10" fill="#D9B073"></path>
            <path d="M727.936492,32.7175 C727.355258,29.0510294 726.82442,25.3777941 726.179351,21.7248529 C725.729147,19.1880882 725.17479,16.6682353 724.536441,14.1720588 C724.351656,13.4414706 723.777141,12.7785294 723.28326,12.1629412 C721.408528,9.80882353 721.428687,7.11308824 723.044719,5.00926471 C724.916091,2.57735294 729.612999,3.22676471 731.410457,5.50308824 C734.03105,8.82117647 736.251834,12.3726471 737.686441,16.3841176 C738.83211,19.5736765 739.272235,22.9391176 740.055054,26.1963235 C741.066334,30.3870588 740.280156,34.2936765 739.685483,38.2036765 C739.171443,41.5995588 737.683081,44.7891176 735.687399,47.7960294 C733.352384,51.3035294 730.701553,54.5201471 727.402294,56.8810294 C722.618033,60.2938235 714.779773,59.6545588 710.536428,53.9214706 C708.040146,50.5492647 705.732008,47.15 704.263804,43.1994118 C703.712808,41.7044118 702.899752,40.3041176 702.405871,38.7955882 C702.153891,38.0210294 702.540261,37.0469118 702.315158,36.2588235 C701.780961,34.3883824 701.172849,32.5145588 700.373232,30.7523529 C698.24652,26.0677941 697.678725,21.1363235 697.537616,16.0560294 C697.480501,13.8372059 699.170447,13.0829412 700.282519,11.9532353 C702.153891,10.0523529 705.177652,10.9588235 706.891116,12.9611765 C708.466832,14.8045588 708.392918,16.7223529 708.560904,18.8295588 C708.715452,20.7135294 709.357161,22.5602941 709.834244,24.4138235 C710.220613,25.8952941 710.586824,27.3970588 711.127741,28.8277941 C711.789609,30.5764706 712.622823,32.2642647 713.382123,33.9791176 C713.533311,34.3207353 713.771852,34.6555882 713.80545,35.0073529 C714.279172,40.2432353 717.803533,44.1735294 719.654747,48.8208824 C720.165427,50.1061765 721.39173,49.3789706 722.083835,48.5841176 C723.834256,46.5851471 725.188229,44.4102941 726.06512,41.7957353 C727.066321,38.8192647 727.919693,35.9205882 727.936492,32.7175" id="Fill-12" fill="#D9B073"></path>
            <path d="M581.952342,68.1726765 C579.677802,68.4398824 577.406621,68.7544412 575.128721,68.9675294 C572.172155,69.2415 569.531404,68.5819412 567.471887,66.2075294 C566.67899,65.2875294 566.343016,64.4791471 566.712587,63.1803235 C567.361016,60.9006176 567.387894,58.4010588 568.247986,56.2262059 C569.497807,53.0603235 568.590679,49.7388529 569.33654,46.6778235 C570.96937,39.9367941 569.776665,33.3242941 569.255906,26.6644412 C568.993847,23.3023824 572.078083,20.3259118 575.387421,20.8670882 C576.751473,21.0903235 577.591407,21.9934118 577.829948,23.5391471 C578.071849,25.0916471 578.56573,26.6272353 579.130165,28.0951765 C579.267914,28.4537059 580.181762,28.7817941 580.648765,28.6870882 C583.662447,28.0816471 586.65597,27.3815 589.642774,26.6610588 C591.322641,26.2484118 592.958831,25.6565 594.648778,25.2878235 C596.412638,24.909 599.221376,26.3059118 599.67158,27.6487059 C600.215857,29.2519412 599.016432,31.1697353 596.933397,32.2182647 C594.201933,33.5948824 591.480548,34.8395882 588.439989,35.5465 C586.104973,36.0944412 583.978262,37.6029706 581.817952,38.7901765 C580.232158,39.6628235 579.667722,41.1341471 579.996976,42.9166471 C580.215359,44.1342941 580.95786,44.6450294 582.137127,44.2526765 C584.798037,43.3563529 587.41527,42.3281176 590.099697,41.5163529 C591.551103,41.0732647 593.126818,41.0495882 594.601741,40.6606176 C595.895239,40.319 597.178658,39.8285588 598.378083,39.2197353 C600.457758,38.1576765 602.685262,38.5263529 603.649506,40.2412059 C604.529756,41.8004706 603.72342,44.0192941 601.94612,45.1963529 C600.56191,46.1129706 599.352406,47.3678235 597.870763,48.0442941 C595.562625,49.0962059 593.073062,49.749 590.684291,50.6453235 C587.180088,51.9678235 583.064414,51.8392941 580.295993,54.8901765 C579.70468,55.5463529 578.978977,56.8553235 579.244396,57.3423824 C579.731557,58.2217941 580.96794,59.3109118 581.804513,59.2432647 C584.344473,59.0437059 586.860914,58.3909118 589.353836,57.7956176 C590.906034,57.4201765 592.404475,56.8215 593.929795,56.3310588 C595.361041,55.8710588 596.859483,55.2960588 598.011872,56.8045882 C598.959317,58.0391471 598.673739,60.6537059 597.642301,61.8984118 C595.418157,64.5806176 592.33728,65.8253235 589.189209,66.8501765 C586.864273,67.6078235 584.431826,68.0373824 582.046414,68.6157647 C582.016177,68.4669412 581.982579,68.3215 581.952342,68.1726765" id="Fill-14" fill="#D9B073"></path>
            <path d="M753.787631,48.15625 C757.540455,48.8124265 761.672928,49.53625 765.798682,50.2668382 C768.587261,50.7640441 771.187695,50.4190441 772.978434,47.9938971 C774.201377,46.3433088 775.706538,44.7874265 775.646063,42.4130147 C775.619185,41.37125 776.620386,40.0081618 776.227297,39.35875 C775.827488,38.6991912 774.278651,38.7702206 773.247212,38.4658088 C770.892039,37.7656618 768.523426,37.0959559 766.20185,36.2875735 C764.636213,35.7430147 763.16801,34.9278676 761.615812,34.3393382 C760.51046,33.9233088 759.344632,33.4599265 758.195603,33.4227206 C756.680363,33.3719853 755.601888,32.8950735 754.385664,31.9344853 C752.772992,30.6627206 750.740352,29.9321324 748.8757,28.9918382 C748.49605,28.7990441 747.911456,28.8294853 747.686354,28.5453676 C745.660434,25.9950735 743.264944,23.5800735 743.832739,19.8797794 C743.923452,19.2844853 744.151914,18.6113971 744.538283,18.1818382 C746.325662,16.2133088 748.156717,14.2752206 750.044887,12.4047794 C751.936418,10.5241912 754.069849,8.87022059 755.816911,6.87125 C758.044415,4.33110294 761.071535,3.11345588 763.957547,1.96345588 C766.988027,0.759338235 770.384719,0.319632353 773.667179,0.0253676471 C776.035792,-0.191102941 777.423362,1.05698529 777.658544,2.58580882 C777.964279,4.55095588 776.539752,6.48904412 774.523911,6.59051471 C771.839484,6.72580882 769.709412,7.98066176 767.827961,9.71580882 C764.965467,12.3608088 762.186967,15.0971324 759.378229,17.79625 C759.065774,18.0938971 758.713002,18.3881618 758.501339,18.7568382 C757.120488,21.1718382 757.308633,22.6397794 759.680605,24.1449265 C763.782841,26.7527206 767.915314,29.3638971 772.931397,29.9050735 C773.559668,29.9761029 774.150981,30.4090441 774.752373,30.67625 C775.992115,31.2309559 777.231857,31.7958088 778.478319,32.3403676 C780.547915,33.2434559 782.76198,33.9097794 784.673669,35.0800735 C788.742307,37.5593382 789.105158,40.2009559 788.369376,44.1041912 C788.359297,44.1650735 788.355937,44.2361029 788.32234,44.2800735 C786.440889,46.8303676 784.720705,49.5294853 782.614152,51.8768382 C780.98468,53.6863971 778.878127,55.0663971 776.966438,56.6155147 C776.68758,56.8421324 776.331448,57.0552206 775.982036,57.1059559 C771.204494,57.8230147 766.393354,58.5400735 761.605733,57.3765441 C758.269517,56.5580147 754.81571,55.91875 752.047289,53.5544853 C751.610524,53.1756618 750.77731,53.2534559 750.360702,52.8678676 C749.651799,52.2049265 748.606921,51.3052206 748.660677,50.5746324 C748.717792,49.8169853 749.799627,48.9274265 750.63956,48.5046324 C751.412299,48.1156618 752.457177,48.2746324 753.787631,48.15625" id="Fill-16" fill="#D9B073"></path>
            <path d="M241.500388,69.6064559 C241.500388,70.7936618 241.339121,71.8218971 241.530626,72.7791029 C241.970751,74.9607206 242.394077,77.4264559 244.561106,78.4411618 C248.290411,80.1898382 252.066752,79.4186618 255.450005,77.3452794 C257.415449,76.1411618 259.17595,74.5108676 260.109956,72.2582206 C261.974609,67.7630735 261.366497,63.3355735 259.162511,59.2260147 C256.918209,55.0285147 252.406085,53.9698382 248.43152,52.2888088 C248.115705,52.1568971 247.29257,52.6033676 247.074187,52.9923382 C246.116663,54.7071912 244.362882,56.0736618 244.692135,58.4007206 C244.752611,58.8133676 244.372961,59.3105735 244.151218,59.7435147 C242.521747,62.89925 241.154335,66.1158676 241.500388,69.6064559 L241.500388,69.6064559 Z M269.594486,69.5523382 C269.594486,71.8624853 269.765832,74.1861618 269.550809,76.4726324 C269.325707,78.8571912 267.719754,80.6464559 265.808065,81.7626324 C260.731507,84.7391029 255.473523,87.3299853 249.392404,87.5329265 C242.599021,87.7561618 237.55942,84.8135147 233.353032,79.5438088 C230.305753,75.72175 229.304552,71.5783676 229.727879,66.9546912 C229.919384,64.8813088 230.399826,62.78425 231.091931,60.8224853 C232.2376,57.5855735 233.524379,54.3824853 235.006022,51.2910147 C236.208806,48.7948382 238.049941,46.8973382 241.204731,47.1848382 C241.624698,47.2220441 242.074902,47.1273382 242.49151,47.0191029 C248.142583,45.5410147 253.726461,46.4339559 259.04828,48.2164559 C261.715909,49.1060147 264.595201,50.5096912 265.633359,53.9055735 C266.214593,55.8233676 267.608883,57.4739559 268.395061,59.3477794 C269.003173,60.7954265 269.41978,62.38175 269.584407,63.9410147 C269.789351,65.7911618 269.634803,67.6818971 269.634803,69.5523382 L269.594486,69.5523382 Z" id="Fill-18" fill="#D9B073"></path>
            <path d="M500.209671,60.4866176 C500.021526,55.5889706 498.896015,52.0611765 497.337098,48.4927941 C496.409811,46.3855882 495.270861,44.6402941 493.839615,42.9626471 C493.64811,42.7360294 493.560757,42.4147059 493.433087,42.1305882 C492.536038,40.1147059 488.907525,39.2352941 487.540113,40.9197059 C486.034952,42.7766176 484.993434,45.0055882 483.602504,46.9673529 C481.932716,49.3180882 480.457793,55.9576471 480.595542,58.4166176 C480.692974,60.1619118 481.304446,61.8767647 481.620261,63.6186765 C482.184696,66.7507353 484.045989,69.3720588 486.871526,69.8760294 C489.545874,70.3597059 493.063516,70.0079412 495.213746,68.54 C498.015764,66.6222059 501.022726,63.8622059 500.209671,60.4866176 M486.6901,32.8730882 C486.589308,32.8730882 486.723697,32.9035294 486.837928,32.8697059 C490.493319,31.7873529 493.987443,32.8798529 497.303501,34.0975 C499.067361,34.7502941 500.643076,36.3467647 501.896257,37.8654412 C503.603002,39.9219118 505.222394,42.0358824 505.679318,44.9548529 C505.995133,46.9605882 507.466697,48.7566176 508.17896,50.7319118 C509.627006,54.7535294 510.433342,58.9679412 509.620286,63.1755882 C509.247356,65.0730882 507.970657,67.0382353 506.576367,68.4419118 C504.473174,70.5626471 501.950013,72.2842647 499.504127,74.0329412 C498.744827,74.5775 497.662992,74.6722059 496.725626,74.9529412 C492.270619,76.2855882 488.030634,77.8347059 483.071666,76.2754412 C479.10382,75.0273529 475.606337,73.4816176 472.90511,70.3698529 C472.061817,69.3991176 471.564576,68.0529412 471.147969,66.8014706 C469.844392,62.9016176 468.977581,58.9747059 470.596973,54.8888235 C471.238682,53.2585294 471.416748,51.4455882 472.004701,49.7916176 C472.65649,47.9719118 473.362034,46.1285294 474.356515,44.4880882 C475.834799,42.0426471 477.628897,39.7933824 479.207972,37.4054412 C479.695133,36.6680882 479.775767,35.6533824 480.279727,34.9397059 C481.815126,32.7817647 484.113184,32.6836765 486.6901,32.8730882" id="Fill-20" fill="#D9B073"></path>
            <path d="M171.503684,54.8746176 C170.374813,54.7731471 169.02084,54.5972647 167.660148,54.533 C164.938763,54.4010882 163.373127,52.3919706 161.750375,50.6771176 C160.346006,49.1855 161.656303,46.5371176 163.651985,46.0027059 C166.000439,45.3702059 168.27162,45.2518235 170.700707,45.6035882 C172.165552,45.8132941 173.942851,45.4852059 175.256507,44.7850588 C177.769588,43.4490294 180.423778,43.6655 183.037652,43.5166765 C186.682963,43.3103529 190.341714,43.3881471 193.997105,43.3272647 C195.44515,43.3035882 198.216931,45.7016765 198.206852,47.1797647 C198.203492,47.7615294 197.793605,48.5428529 197.323242,48.8912353 C195.213329,50.4538824 193.056379,51.9691765 190.835595,53.3660882 C187.717762,55.3244706 187.516177,55.7168235 188.460263,59.3528529 C188.550976,59.7113824 188.547616,60.0935882 188.567774,60.4656471 C188.806315,64.6902059 189.101972,68.9147647 189.266599,73.1460882 C189.451384,77.9287353 189.484982,82.7215294 189.663048,87.5075588 C189.716803,88.8571176 189.985582,90.2134412 190.291318,91.5325588 C190.620572,92.9734412 189.290117,95.2294706 187.583372,95.8822647 C184.089249,97.2250588 182.815909,96.3625588 180.460735,93.3725588 C177.934215,90.1627059 178.498651,86.4827059 178.186195,83.0699118 C177.594882,76.6265294 177.897258,70.1019706 177.695674,63.618 C177.62512,61.3924118 177.11444,59.1837353 176.892698,56.9615294 C176.704553,55.0944706 175.615999,54.5668235 173.95965,54.7021176 C173.220508,54.763 172.478007,54.8035882 171.503684,54.8746176" id="Fill-22" fill="#D9B073"></path>
            <path d="M537.727823,52.5062941 C538.849975,50.8827647 540.17371,49.3573235 541.050601,47.6086471 C542.239947,45.2477647 543.120197,42.7279118 544.067642,40.2520294 C544.585041,38.8855588 545.159556,37.4920294 545.36114,36.0612941 C545.777747,33.1321765 547.178756,30.981 549.567527,29.3168824 C551.307869,28.0992353 554.613848,28.2548235 556.055174,29.8580588 C557.137008,31.0554118 558.816876,31.9449706 558.353232,34.0217353 C558.282678,34.3227647 558.359952,34.6711471 558.239001,34.9417353 C556.932065,37.9723235 555.60161,40.9961471 554.264436,44.0132059 C553.132205,46.5635 552.104126,49.1712941 550.810629,51.6370294 C548.468894,56.0949706 545.955813,60.4514412 541.510884,63.2182059 C539.007882,64.7740882 534.653667,64.5035 532.254816,62.8089412 C528.844686,60.4007059 527.346245,56.8221765 525.89148,53.1320294 C525.222892,51.4374706 524.144418,49.9052647 523.22721,48.3155588 C521.433112,45.2105588 519.69277,42.0717353 517.804599,39.0276176 C516.447267,36.8392353 514.948825,34.7320294 513.403347,32.6755588 C512.049374,30.8761471 512.586932,28.6099706 514.680046,27.8252647 C517.656771,26.7090882 521.218089,27.5479118 523.364959,29.9527647 C525.13218,31.9348235 527.080826,33.8187941 528.491914,36.041 C530.957959,39.9273235 533.135067,44.0064412 535.295376,48.0821765 C535.980762,49.3708529 536.236101,50.8929118 536.682946,52.3067353 L537.727823,52.5062941 Z" id="Fill-24" fill="#D9B073"></path>
            <path d="M626.055238,68.1696324 C623.62615,67.3477206 620.068191,66.1977206 616.553909,64.9191912 C615.53255,64.5505147 614.299527,61.2222794 614.581745,60.1534559 C614.830365,59.19625 616.889883,58.2897794 618.223697,58.5975735 C619.187941,58.8174265 620.273135,58.8918382 621.072752,59.4059559 C624.146909,61.3846324 626.085475,59.2131618 627.92661,57.4475735 C629.320899,56.1115441 630.812621,54.7788971 631.178833,52.4991912 C631.538324,50.2634559 630.738707,48.2847794 628.534722,47.5846324 C627.462966,47.2430147 626.465125,46.6544853 625.426967,46.1978676 C625.033879,46.0253676 624.623991,45.8055147 624.217463,45.7919853 C620.894686,45.7074265 618.079229,44.0771324 615.213375,42.7005147 C613.298327,41.7771324 611.426955,40.6338971 609.773965,39.2944853 C606.192489,36.3822794 605.527261,30.6830147 609.975549,27.8790441 C612.186255,26.4821324 614.188656,24.7402206 616.402721,23.3433088 C618.200179,22.2136029 620.105148,21.18875 622.087392,20.44125 C623.884849,19.7580147 626.169469,20.84375 626.895171,22.3218382 C627.580557,23.7255147 626.854854,25.67375 625.326175,27.0503676 C623.723582,28.4980147 622.030276,29.9186029 620.743498,31.6334559 C618.801571,34.2277206 620.313452,37.1094853 623.478322,37.5153676 C624.775179,37.6844853 626.001482,38.3880147 627.271462,38.8108088 C628.346577,39.1693382 629.428411,39.4872794 630.516965,39.7916912 C630.869737,39.8931618 631.330021,39.7849265 631.598799,39.9777206 C635.059326,42.4536029 639.403462,43.5528676 642.124847,47.2261029 C643.902146,49.6241912 644.335552,53.2331618 642.709441,55.7733088 C640.754075,58.8241912 639.010373,62.12875 636.000051,64.2055147 C633.386178,66.0083088 630.822701,68.2372794 626.055238,68.1696324" id="Fill-26" fill="#D9B073"></path>
            <path d="M210.206143,54.8380882 C210.206143,53.2788235 210.320374,51.7060294 210.175905,50.1602941 C210.001199,48.2830882 209.540916,46.4329412 209.332612,44.5557353 C209.157906,42.9491176 209.288935,41.3019118 209.043675,39.7088235 C208.889127,38.6873529 208.509477,37.5711765 207.884567,36.7661765 C204.874245,32.9136765 204.93472,32.1255882 209.016797,29.5076471 C212.252221,27.4275 217.762185,28.5233824 218.998568,33.3669118 C220.043445,37.4460294 220.829623,41.4744118 221.068164,45.7057353 C221.316784,50.0419118 222.328064,54.3375 222.989932,58.65 C223.084004,59.2622059 223.131041,59.8879412 223.131041,60.5102941 C223.14112,67.3798529 223.14112,74.2494118 223.13776,81.1223529 C223.1344,84.0210294 219.946013,88.0088235 217.177592,88.6447059 C216.646754,88.7664706 216.156232,89.0979412 215.625394,89.1791176 C215.128154,89.2569118 214.378933,89.3414706 214.113514,89.0641176 C211.875931,86.7404412 209.584592,84.4708824 210.12215,80.7029412 C210.555555,77.6419118 210.847852,74.5301471 210.851212,71.4386765 C210.851212,67.9041176 210.421166,64.3695588 210.263258,60.8316176 C210.169186,58.8394118 210.24646,56.8370588 210.24646,54.8380882 L210.206143,54.8380882 Z" id="Fill-28" fill="#D9B073"></path>
            <path d="M162.362855,70.5112353 C162.708907,71.6071176 163.05832,72.6996176 163.404372,73.8022647 C163.511884,74.1540294 163.659712,74.5125588 163.68659,74.8744706 C163.958729,78.5984412 164.466048,82.3325588 164.371976,86.0497647 C164.304781,88.5696176 163.384214,91.0725588 162.836577,93.5788824 C162.651792,94.4143235 162.601396,95.3377059 162.198228,96.0547647 C160.881212,98.3852059 158.485721,99.0853529 156.117109,99.5453529 C154.396925,99.8802059 153.640985,98.4359412 152.727137,97.1641765 C149.962076,93.3184412 151.158141,89.1378529 151.275732,84.9741765 C151.396682,80.7022647 151.29589,76.3897647 150.886003,72.1347647 C150.321567,66.3306471 149.330446,60.5637353 148.611462,54.7697647 C148.325885,52.4528529 149.310287,51.4550588 151.645302,51.3434412 C151.951038,51.3265294 152.263494,51.3163824 152.572589,51.2791765 C156.869689,50.8022647 158.431966,51.7256471 159.591074,56.0246176 C160.454526,59.2277059 160.881212,62.5491765 161.590116,65.7962353 C161.92273,67.3318235 162.463647,68.8132941 162.910492,70.3184412 C162.725706,70.3827059 162.54764,70.4469706 162.362855,70.5112353" id="Fill-30" fill="#D9B073"></path>
            <path d="M807.796032,45.4476618 C809.815232,45.9448676 812.153607,45.1466324 813.057376,47.8897206 C813.823395,50.1964853 812.039376,53.0376618 809.569972,53.02075 C808.148804,53.0106029 806.583168,53.3014853 805.346786,52.7941324 C803.858423,52.1751618 802.312946,51.0928088 801.429336,49.7736912 C800.649877,48.6033971 801.691395,47.09825 802.941216,46.5976618 C804.513572,45.9617794 806.274072,45.7858971 807.796032,45.4476618" id="Fill-32" fill="#D9B073"></path>
        </g>
    </g>
</svg>