<?xml version="1.0" standalone="no"?>
<!DOCTYPE svg PUBLIC "-//W3C//DTD SVG 20010904//EN"
 "http://www.w3.org/TR/2001/REC-SVG-20010904/DTD/svg10.dtd">
<svg version="1.0" xmlns="http://www.w3.org/2000/svg"
 width="1200.000000pt" height="1200.000000pt" viewBox="0 0 1200.000000 1200.000000"
 preserveAspectRatio="xMidYMid meet">
<metadata>
Created by potrace 1.11, written by Peter Selinger 2001-2013
</metadata>
<g transform="translate(0.000000,1200.000000) scale(0.100000,-0.100000)"
fill="#000000" stroke="none">
<path d="M5854 10762 c-10 -2 -39 -11 -64 -22 -36 -15 -220 -58 -370 -86 -14
-3 -63 -14 -110 -24 -47 -11 -128 -27 -180 -35 -143 -24 -267 -52 -355 -81
-44 -14 -87 -27 -95 -29 -35 -9 -352 -115 -382 -128 -31 -14 -70 -29 -75 -28
-2 0 -29 -11 -60 -26 -32 -14 -135 -52 -229 -83 -193 -66 -239 -86 -339 -146
-44 -26 -94 -47 -133 -54 -36 -8 -84 -26 -115 -46 -28 -18 -99 -57 -157 -86
-58 -29 -123 -69 -145 -88 -22 -20 -78 -65 -125 -100 -112 -84 -162 -132 -205
-195 l-36 -51 -48 10 c-123 25 -201 -98 -128 -201 22 -31 24 -40 14 -54 -6 -9
-61 -81 -122 -161 -60 -81 -135 -192 -165 -249 -30 -57 -75 -128 -99 -158 -50
-65 -81 -130 -87 -186 -7 -59 -13 -73 -51 -124 -20 -25 -46 -68 -58 -96 -13
-28 -45 -74 -72 -102 -33 -35 -63 -82 -93 -150 -24 -54 -60 -125 -78 -158 -73
-129 -111 -222 -132 -320 -22 -106 -37 -160 -102 -370 -30 -100 -46 -136 -67
-155 -43 -38 -61 -120 -36 -160 3 -4 -18 -79 -46 -166 -57 -182 -95 -321 -104
-385 -3 -24 -8 -57 -11 -73 -3 -16 -7 -72 -9 -125 -2 -53 -15 -145 -28 -206
-50 -218 -52 -361 -8 -533 35 -137 49 -174 116 -317 77 -164 83 -180 140 -376
30 -103 70 -218 89 -256 51 -100 53 -117 22 -154 -60 -71 -6 -199 85 -199 15
0 28 -19 55 -77 19 -42 46 -92 59 -109 14 -18 27 -52 30 -76 7 -55 47 -137
129 -263 45 -70 65 -110 66 -133 0 -52 24 -95 68 -126 23 -16 66 -59 97 -96
30 -37 94 -108 142 -156 49 -49 129 -136 178 -194 83 -98 336 -357 415 -426
93 -80 215 -176 254 -199 24 -14 81 -42 127 -61 47 -21 168 -92 274 -163 165
-110 377 -228 510 -283 40 -17 172 -72 210 -87 11 -5 67 -31 125 -60 90 -43
115 -51 175 -55 61 -3 78 -8 128 -40 64 -41 195 -106 213 -106 6 0 24 -10 39
-22 23 -18 47 -22 144 -29 64 -4 133 -13 155 -19 21 -6 47 -14 57 -16 11 -2
29 -6 42 -9 12 -3 47 -8 77 -11 30 -3 78 -12 105 -21 33 -10 100 -16 195 -18
131 -3 158 0 275 26 111 26 136 28 173 19 44 -11 270 -22 427 -22 61 0 106 6
135 18 25 9 75 18 111 19 86 3 166 29 220 73 23 18 108 40 188 48 148 14 388
94 606 199 108 53 282 146 345 185 23 15 380 230 432 261 26 16 71 38 100 51
81 34 155 80 244 152 45 36 140 96 213 135 158 83 207 119 257 189 21 28 47
55 58 58 30 10 82 67 119 132 17 31 39 69 47 84 8 14 56 69 107 122 50 53 114
129 142 169 196 282 363 545 443 699 18 35 56 96 85 136 33 46 61 99 73 140
12 37 38 101 60 143 34 66 62 146 89 254 4 17 26 73 48 125 22 52 48 120 58
150 10 30 37 100 61 155 49 115 53 136 58 300 2 66 7 131 10 145 10 38 53 269
60 320 19 130 21 201 21 620 0 433 -1 459 -22 540 -20 80 -25 105 -39 197 -9
64 -34 133 -95 259 -32 67 -61 134 -64 150 -3 16 -7 43 -10 59 -19 102 -119
286 -275 505 -107 149 -138 207 -199 367 -87 230 -162 342 -298 445 -53 40
-69 62 -117 152 -37 69 -83 127 -127 158 -21 15 -50 47 -65 70 -42 66 -95 110
-190 159 -67 33 -107 62 -164 119 -41 41 -87 85 -102 97 -16 13 -28 29 -28 37
0 18 -64 83 -131 134 -30 22 -130 79 -224 127 -93 47 -181 97 -195 110 -14 12
-63 48 -110 78 -87 56 -154 81 -247 91 -63 7 -80 13 -118 41 -16 12 -58 37
-93 54 -35 18 -84 53 -110 79 -68 68 -110 97 -172 121 -47 18 -141 46 -190 56
-8 2 -78 19 -155 38 -77 19 -196 44 -265 56 -69 11 -159 32 -200 47 -138 48
-202 63 -284 69 -45 3 -119 17 -166 30 -47 13 -103 27 -125 31 -38 7 -459 12
-501 6z m-50 -309 c2 -10 7 -40 11 -68 3 -27 11 -81 16 -120 6 -38 13 -83 15
-100 2 -16 20 -109 38 -205 37 -185 62 -329 71 -394 2 -21 7 -55 9 -75 3 -20
8 -61 11 -91 3 -30 8 -73 10 -95 3 -22 8 -58 10 -80 3 -22 8 -62 12 -90 14
-97 7 -392 -12 -525 -4 -27 -11 -108 -21 -235 -3 -44 -7 -91 -9 -105 -3 -14
-7 -45 -10 -70 -9 -76 -34 -200 -60 -300 -14 -52 -28 -103 -30 -114 -2 -10
-11 -42 -19 -70 -18 -67 -25 -105 -31 -196 -8 -116 -15 -190 -24 -252 -4 -32
-9 -113 -10 -180 -1 -68 -6 -150 -11 -183 -32 -209 -19 -198 -125 -103 -49 45
-144 128 -210 186 -66 57 -134 116 -150 131 -17 14 -75 64 -130 111 -55 47
-105 89 -111 95 -6 5 -35 30 -64 55 -121 103 -221 189 -325 279 -60 53 -123
107 -139 121 -16 14 -36 32 -45 41 -16 16 -287 252 -391 340 -76 64 -332 281
-665 561 -267 225 -382 333 -470 443 -22 27 -49 57 -59 66 -19 16 -19 17 0 65
12 30 41 71 79 109 87 87 269 223 350 261 39 18 95 49 125 68 30 20 57 36 60
37 3 0 12 2 20 4 8 2 31 6 50 10 19 3 57 19 85 34 27 15 80 44 117 65 36 20
137 61 225 90 147 50 304 109 381 143 42 18 355 122 493 163 59 17 189 46 290
65 101 19 195 36 209 39 24 5 121 26 300 66 109 24 127 24 134 3z m798 -7 c62
-4 119 -17 209 -47 113 -37 242 -67 359 -84 66 -9 434 -102 477 -120 21 -9 57
-36 80 -60 45 -48 149 -125 168 -125 6 0 42 -20 79 -45 79 -53 126 -71 215
-79 86 -9 149 -40 245 -120 44 -37 113 -76 321 -181 101 -51 151 -92 180 -149
20 -39 80 -96 101 -96 7 0 14 -4 16 -10 2 -5 34 -41 72 -80 53 -53 92 -81 168
-120 87 -45 102 -57 132 -104 18 -29 56 -70 82 -92 61 -49 65 -53 110 -141 43
-84 87 -134 168 -194 39 -29 76 -68 106 -115 46 -71 62 -105 140 -303 46 -118
82 -181 191 -333 66 -91 177 -268 217 -344 11 -20 16 -41 28 -112 9 -54 38
-131 93 -242 43 -89 56 -129 82 -260 17 -85 35 -173 39 -195 11 -51 9 -803 -2
-893 -4 -37 -10 -85 -14 -107 -9 -64 -54 -309 -59 -323 -6 -16 -15 -137 -19
-242 -2 -60 -9 -88 -34 -141 -17 -36 -45 -106 -61 -155 -17 -50 -47 -126 -67
-170 -19 -43 -36 -81 -36 -84 0 -3 -2 -9 -4 -15 -1 -5 -15 -53 -29 -105 -15
-52 -42 -122 -60 -155 -18 -33 -43 -90 -54 -127 -12 -37 -37 -86 -55 -110 -35
-47 -96 -145 -96 -155 0 -25 -279 -465 -414 -653 -64 -89 -73 -101 -184 -218
-39 -41 -89 -109 -113 -152 -29 -54 -50 -81 -66 -85 -33 -8 -89 -60 -104 -97
-19 -48 -59 -79 -183 -143 -119 -62 -175 -97 -246 -155 -75 -61 -147 -107
-197 -126 -27 -10 -133 -69 -238 -132 -437 -264 -619 -363 -795 -435 -91 -37
-226 -82 -294 -97 -38 -8 -58 -11 -168 -26 -75 -9 -121 -25 -194 -65 -64 -35
-78 -38 -141 -38 -52 1 -83 -5 -118 -21 -45 -21 -57 -21 -244 -16 -150 4 -206
9 -236 22 -37 15 -74 15 -140 0 -173 -40 -223 -48 -310 -50 -57 -2 -123 3
-155 11 -57 14 -86 19 -155 27 -22 2 -76 13 -120 24 -103 27 -137 33 -194 33
-60 1 -203 57 -307 121 -93 56 -146 74 -224 77 -42 1 -67 9 -103 31 -27 17
-51 30 -54 30 -3 0 -19 6 -36 14 -18 8 -88 38 -157 66 -218 90 -370 171 -560
299 -102 68 -223 141 -270 163 -150 69 -167 79 -272 166 -138 115 -301 271
-407 392 -17 19 -37 42 -44 50 -34 37 -24 39 40 7 105 -53 200 -86 298 -106
83 -17 152 -19 880 -19 435 0 822 4 860 9 39 5 91 11 116 14 26 3 93 17 150
30 115 27 277 61 471 98 110 22 138 31 206 71 56 33 93 47 132 51 124 14 314
69 380 110 43 26 54 30 157 61 112 32 175 64 268 135 82 62 168 110 265 146
30 12 117 45 193 73 203 76 461 197 522 244 68 54 195 190 270 291 17 22 37
48 46 58 9 10 36 47 60 82 26 39 51 65 62 65 9 0 34 15 54 34 33 29 37 40 39
86 3 53 7 61 75 129 37 38 104 130 127 176 11 22 32 81 47 130 31 103 73 231
86 260 4 11 22 56 39 100 18 44 47 114 66 154 46 99 68 170 99 321 30 145 50
216 110 395 84 249 114 362 133 490 14 97 7 390 -12 491 -2 11 -7 39 -10 64
-10 62 -44 227 -68 330 -11 47 -22 95 -24 108 -12 59 -89 334 -134 477 -28 88
-68 228 -90 311 -49 188 -62 222 -118 307 -25 38 -77 133 -116 211 -109 215
-171 298 -386 516 -47 48 -110 112 -140 144 -70 73 -155 129 -341 224 -81 42
-194 109 -251 149 -57 41 -173 109 -263 153 -281 139 -345 181 -394 251 -19
28 -45 60 -57 72 -30 28 -30 39 0 28 12 -5 61 -12 108 -15z m-482 -71 c10 -5
49 -27 86 -48 87 -47 90 -50 140 -117 23 -30 57 -70 75 -88 45 -45 200 -136
389 -229 85 -41 198 -105 250 -143 100 -70 136 -92 315 -185 149 -78 207 -116
252 -167 21 -23 72 -76 113 -118 214 -215 259 -275 359 -473 43 -85 96 -181
118 -213 52 -78 70 -124 89 -228 3 -16 19 -72 35 -125 26 -87 27 -97 12 -106
-9 -5 -34 -24 -57 -40 -23 -17 -77 -45 -121 -64 -44 -18 -131 -59 -193 -91
-62 -33 -158 -75 -213 -96 -69 -25 -140 -62 -227 -119 -70 -45 -190 -115 -266
-154 -125 -65 -170 -91 -216 -128 -8 -6 -53 -43 -100 -81 -47 -38 -105 -81
-130 -97 -41 -25 -158 -111 -170 -125 -15 -16 -193 -161 -236 -193 -28 -20
-82 -51 -120 -68 -119 -54 -186 -89 -249 -134 l-62 -43 9 47 c4 25 10 55 12
67 9 45 17 156 21 284 3 74 7 146 9 160 9 51 16 117 22 215 3 55 17 143 31
195 40 153 71 282 78 319 3 19 7 37 9 40 2 3 7 26 10 51 3 25 8 54 10 65 5 28
18 132 21 180 2 22 7 78 10 125 4 47 8 99 10 115 1 17 6 64 10 105 4 41 9 89
11 105 5 40 5 305 0 330 -2 11 -7 49 -11 85 -4 36 -8 72 -10 80 -1 8 -6 42 -9
75 -18 162 -16 148 -31 265 -9 66 -28 179 -51 295 -40 204 -64 340 -80 460 -7
47 -6 49 10 35 10 -8 26 -19 36 -25z m-3332 -1417 c94 -110 190 -202 347 -334
72 -60 141 -119 155 -130 14 -12 169 -143 345 -291 176 -147 334 -280 350
-295 17 -14 71 -61 120 -103 50 -43 92 -81 95 -84 3 -3 59 -53 125 -111 66
-57 125 -109 131 -115 6 -6 35 -31 64 -56 29 -24 58 -49 64 -54 9 -9 121 -104
266 -228 62 -53 238 -204 265 -228 184 -160 376 -328 400 -351 26 -24 27 -27
9 -24 -12 3 -39 8 -60 12 -22 3 -183 8 -359 9 -176 1 -331 5 -345 8 -14 3 -56
8 -95 12 -38 3 -115 13 -170 21 -55 8 -119 17 -141 19 -74 7 -170 20 -224 30
-14 2 -43 7 -64 10 -22 3 -73 14 -115 25 -100 25 -170 36 -366 56 -33 3 -80
10 -105 16 -25 5 -54 11 -65 14 -11 2 -40 8 -65 14 -25 5 -56 12 -70 14 -14 3
-50 9 -80 15 -127 24 -276 48 -340 56 -25 3 -62 8 -82 10 -58 8 -108 14 -168
20 -30 4 -66 8 -80 10 -14 2 -68 9 -120 15 -52 6 -110 13 -128 15 -18 3 -76
10 -130 15 -53 6 -115 12 -137 15 -22 2 -81 7 -130 10 -173 12 -190 13 -196
14 -4 1 5 36 18 79 32 95 80 273 100 367 8 41 35 110 64 165 55 106 127 252
143 290 6 14 31 48 57 76 26 28 62 80 79 115 18 35 45 80 60 99 43 55 67 111
75 170 7 59 24 98 50 120 17 14 70 100 129 210 35 65 235 340 247 340 4 0 39
-37 77 -82z m5680 -1133 c40 -151 91 -356 98 -390 4 -22 8 -42 9 -45 1 -3 5
-23 10 -45 5 -22 10 -42 10 -45 3 -11 15 -76 19 -100 2 -14 7 -36 10 -50 16
-73 30 -229 30 -340 0 -87 -11 -206 -19 -219 -2 -4 -7 -21 -9 -38 -7 -36 -56
-206 -61 -212 -8 -7 -722 -6 -800 2 -153 16 -308 42 -362 61 -21 8 -61 27 -88
44 -69 42 -150 63 -258 67 -51 2 -135 7 -187 10 -167 11 -290 15 -474 17
l-180 1 27 21 c15 12 68 39 118 60 126 54 278 157 424 288 55 50 87 74 161
123 44 30 132 96 196 147 76 61 154 113 229 152 177 91 217 115 316 182 81 54
183 104 214 104 5 0 80 35 167 79 145 72 278 131 299 131 5 0 24 11 43 24 19
13 38 21 41 18 3 -4 11 -25 17 -47z m-6643 -1079 c61 -4 121 -9 135 -11 14 -2
56 -7 93 -10 37 -3 82 -7 100 -10 18 -2 55 -7 82 -10 49 -5 184 -21 255 -30
46 -6 182 -22 245 -30 65 -8 113 -14 150 -20 17 -3 48 -7 70 -10 22 -4 78 -13
125 -22 47 -8 96 -17 110 -20 14 -2 86 -17 160 -33 74 -15 162 -31 195 -34 33
-4 74 -9 90 -11 17 -3 55 -7 85 -10 31 -3 100 -16 155 -29 55 -13 118 -27 140
-30 22 -4 67 -11 100 -16 33 -5 83 -12 110 -15 28 -3 66 -8 86 -11 20 -2 54
-7 74 -9 21 -3 50 -7 64 -10 28 -4 176 -22 251 -30 107 -11 242 -17 340 -16
246 3 297 4 330 2 l35 -1 -25 -20 c-14 -11 -28 -20 -31 -20 -3 0 -52 -26 -110
-58 -202 -113 -786 -412 -803 -412 -24 0 -313 -152 -391 -205 -55 -37 -143
-97 -195 -132 -52 -35 -212 -122 -355 -193 -217 -108 -303 -157 -520 -300
-289 -190 -423 -261 -750 -395 -115 -48 -265 -111 -331 -141 -67 -30 -125 -54
-128 -54 -3 0 -6 6 -6 14 0 7 -15 44 -34 82 -19 38 -53 134 -76 214 -58 202
-73 245 -151 410 -40 87 -81 192 -99 260 -29 105 -31 124 -27 225 3 68 15 154
32 225 17 72 28 154 31 220 6 164 25 250 120 560 l48 155 56 -1 c30 -1 105 -5
165 -8z m4985 -471 c25 -2 105 -7 178 -9 106 -4 141 -9 170 -24 127 -66 166
-82 247 -100 84 -20 106 -23 210 -36 22 -3 58 -8 80 -10 131 -17 442 -22 713
-12 70 2 73 1 67 -18 -21 -70 -48 -178 -71 -291 -19 -93 -42 -164 -79 -251
-84 -193 -151 -371 -185 -489 -37 -131 -63 -179 -150 -279 l-65 -75 -70 68
c-38 38 -113 102 -165 143 -52 41 -127 103 -165 139 -131 118 -229 206 -310
275 -44 38 -87 75 -95 84 -8 8 -40 37 -70 64 -107 97 -378 357 -620 596 l-245
241 290 -5 c160 -3 310 -8 335 -11z m-1090 -122 c-4 -27 -19 -86 -33 -133 -24
-78 -38 -135 -50 -200 -11 -55 -38 -163 -81 -316 -56 -205 -66 -270 -70 -479
-2 -134 -7 -187 -24 -250 -31 -119 -32 -127 -32 -294 0 -140 -3 -161 -26 -225
-35 -97 -54 -193 -59 -300 -2 -54 -16 -138 -33 -206 -29 -111 -30 -122 -27
-310 4 -217 -3 -259 -41 -261 -13 -1 -27 -2 -31 -4 -5 -1 -26 -5 -48 -9 -22
-5 -94 -21 -159 -38 -161 -40 -205 -47 -316 -55 -121 -9 -1525 -9 -1605 0 -33
3 -84 13 -113 22 -65 20 -287 117 -420 185 -53 27 -124 59 -157 71 -33 12 -76
32 -95 44 -19 12 -48 26 -64 32 -23 7 -40 29 -79 99 -27 49 -71 120 -96 159
-55 82 -68 112 -74 179 -3 34 -14 61 -36 90 -31 41 -107 185 -100 189 10 6
125 62 129 62 3 1 26 11 52 23 26 12 84 37 130 56 82 33 114 47 173 72 17 7
54 22 84 34 241 94 426 197 740 407 145 97 242 152 436 249 282 139 324 163
517 297 137 94 246 156 388 217 41 18 143 66 225 108 83 41 189 94 236 117
187 94 670 360 718 397 39 30 48 24 41 -29z m575 -329 c264 -259 572 -552 675
-641 19 -17 60 -52 91 -79 30 -27 86 -76 124 -109 38 -33 74 -66 81 -72 44
-44 230 -206 280 -242 71 -54 224 -201 224 -217 0 -14 -114 -167 -185 -249
-133 -153 -150 -165 -342 -253 -98 -44 -216 -95 -263 -112 -320 -119 -381
-148 -500 -235 -121 -89 -125 -91 -229 -120 -51 -14 -132 -46 -180 -69 -71
-37 -107 -50 -161 -61 -3 0 -27 -6 -55 -13 -27 -6 -72 -14 -100 -17 -71 -8
-114 -21 -163 -50 -30 -17 -44 -21 -47 -12 -3 7 -6 77 -8 156 -4 147 2 194 41
341 11 41 20 109 21 150 2 94 15 161 53 274 28 84 30 98 32 270 2 159 6 193
30 284 23 89 27 126 30 290 2 103 6 196 9 207 3 11 10 43 17 70 6 28 25 97 42
155 16 58 32 112 34 120 8 35 56 257 60 278 3 13 16 56 29 96 24 73 41 153 36
171 -1 6 26 -18 61 -52 35 -34 153 -150 263 -259z"/>
</g>
</svg>
