<?xml version="1.0" encoding="UTF-8" standalone="no"?>
<svg width="237px" height="197px" viewBox="0 0 237 197" version="1.1" xmlns="http://www.w3.org/2000/svg" xmlns:xlink="http://www.w3.org/1999/xlink">
    <!-- Generator: Sketch 44.1 (41455) - http://www.bohemiancoding.com/sketch -->
    <title>Page 1</title>
    <desc>Created with Sketch.</desc>
    <defs>
        <polygon id="path-1" points="19.6842414 15.4166667 0.675427586 15.4166667 0.675427586 0.4632175 19.6842414 0.4632175 19.6842414 15.4166667"></polygon>
    </defs>
    <g id="Page-1" stroke="none" stroke-width="1" fill="none" fill-rule="evenodd">
        <g>
            <path d="M149.735484,195.202703 C149.312008,195.202703 149.312008,195.205987 148.890174,195.205987 C148.468339,195.205987 148.468339,195.23882 148.044863,195.23882 C147.621388,195.23882 147.621388,195.161662 147.197912,195.161662 C146.776077,195.161662 146.776077,195.141962 146.352601,195.141962 C145.930767,195.141962 145.930767,195.210912 145.507291,195.210912 C145.083815,195.210912 145.083815,195.237178 144.660339,195.237178 C144.238505,195.237178 144.238505,195.225687 143.81667,195.225687 L142.969719,195.225687 C142.546243,195.225687 142.546243,195.145245 142.122767,195.145245 C141.699291,195.145245 141.699291,195.224045 141.277457,195.224045 C140.853981,195.224045 140.853981,195.128828 140.428863,195.128828 C140.005388,195.128828 140.005388,195.207628 139.58027,195.207628 C139.156794,195.207628 139.156794,195.192853 138.733319,195.192853 C138.462491,195.192853 138.237622,195.054953 138.061994,194.879295 C137.883084,194.700353 137.732077,194.477087 137.732077,194.207853 C137.732077,193.784303 137.697608,193.784303 137.697608,193.359112 C137.697608,192.935562 137.695967,192.935562 137.695967,192.512012 C137.695967,192.088462 137.779677,192.088462 137.779677,191.664912 C137.779677,191.23972 137.717305,191.23972 137.717305,190.81617 C137.717305,190.39262 137.810863,190.39262 137.810863,189.96907 C137.810863,189.54552 137.801015,189.54552 137.801015,189.120328 C137.801015,188.696778 137.773112,188.696778 137.773112,188.271587 C137.773112,187.849678 137.77147,187.849678 137.77147,187.426128 C137.77147,187.002578 137.733719,187.002578 137.733719,186.577387 C137.733719,186.153837 137.715663,186.153837 137.715663,185.728645 C137.715663,185.305095 137.718946,185.305095 137.718946,184.879903 C137.718946,184.456353 137.700891,184.456353 137.700891,184.031162 C137.700891,183.607612 137.733719,183.607612 137.733719,183.180778 C137.733719,182.755587 137.78296,182.755587 137.78296,182.330395 C137.78296,181.969228 137.46125,181.673728 137.101788,181.673728 C136.739043,181.673728 136.469857,181.969228 136.469857,182.330395 L136.45016,182.330395 C136.45016,182.752303 136.468215,182.752303 136.468215,183.174212 C136.468215,183.59612 136.482988,183.59612 136.482988,184.018028 C136.482988,184.438295 136.499401,184.438295 136.499401,184.860203 C136.499401,185.282112 136.409126,185.282112 136.409126,185.70402 C136.409126,186.125928 136.448519,186.125928 136.448519,186.547837 C136.448519,186.969745 136.437029,186.969745 136.437029,187.391653 C136.437029,187.813562 136.41405,187.813562 136.41405,188.23547 C136.41405,188.65902 136.48627,188.65902 136.48627,189.080928 C136.48627,189.501195 136.489553,189.501195 136.489553,189.924745 C136.489553,190.345012 136.46165,190.345012 136.46165,190.76692 C136.46165,191.19047 136.409126,191.19047 136.409126,191.610737 C136.409126,192.032645 136.443594,192.032645 136.443594,192.456195 C136.443594,192.878103 136.446877,192.878103 136.446877,193.301653 C136.446877,193.723562 136.458367,193.723562 136.458367,194.14547 C136.458367,194.56902 136.487912,194.56902 136.487912,194.99257 C136.487912,195.41612 136.45016,195.41612 136.45016,195.83967 C136.45016,196.012045 136.489553,196.207403 136.611015,196.330528 C136.732477,196.452012 136.927801,196.448728 137.101788,196.448728 C137.521981,196.448728 137.521981,196.46022 137.942174,196.46022 C138.362367,196.46022 138.362367,196.463503 138.78256,196.463503 C139.204394,196.463503 139.204394,196.466787 139.626229,196.466787 C140.046422,196.466787 140.046422,196.456937 140.468257,196.456937 C140.886808,196.456937 140.886808,196.46022 141.308643,196.46022 C141.730477,196.46022 141.730477,196.530812 142.15067,196.530812 C142.572505,196.530812 142.572505,196.52917 142.994339,196.52917 C143.412891,196.52917 143.412891,196.481562 143.834726,196.481562 C144.254919,196.481562 144.254919,196.493053 144.676753,196.493053 C145.096946,196.493053 145.096946,196.52917 145.518781,196.52917 C145.938974,196.52917 145.938974,196.506187 146.360808,196.506187 C146.782643,196.506187 146.782643,196.474995 147.202836,196.474995 C147.626312,196.474995 147.626312,196.488128 148.048146,196.488128 C148.469981,196.488128 148.469981,196.511112 148.890174,196.511112 C149.31365,196.511112 149.31365,196.465145 149.735484,196.465145 C150.096588,196.465145 150.342794,196.199195 150.342794,195.83967 C150.342794,195.478503 150.096588,195.202703 149.735484,195.202703" id="Fill-1" fill="#032E4E"></path>
            <g id="Group-5" transform="translate(85.351724, 181.140083)">
                <mask id="mask-2" fill="white">
                    <use xlink:href="#path-1"></use>
                </mask>
                <g id="Clip-4"></g>
                <path d="M19.1031931,0.583059167 C18.683,0.583059167 18.683,0.4878425 18.2628069,0.4878425 C17.8409724,0.4878425 17.8409724,0.597834167 17.4207793,0.597834167 C16.9989448,0.597834167 16.9989448,0.583059167 16.5771103,0.583059167 C16.1552759,0.583059167 16.1552759,0.560075833 15.7350828,0.560075833 C15.3132483,0.560075833 15.3132483,0.489484167 14.8930552,0.489484167 C14.4712207,0.489484167 14.4712207,0.530525833 14.0493862,0.530525833 C13.6275517,0.530525833 13.6275517,0.509184167 13.2057172,0.509184167 C12.7838828,0.509184167 12.7838828,0.481275833 12.3636897,0.481275833 C11.9418552,0.481275833 11.9418552,0.545300833 11.5200207,0.545300833 C11.0965448,0.545300833 11.0965448,0.4632175 10.6747103,0.4632175 C10.2528759,0.4632175 10.2528759,0.5321675 9.83268276,0.5321675 C9.41084828,0.5321675 9.41084828,0.535450833 8.98737241,0.535450833 C8.56553793,0.535450833 8.56553793,0.599475833 8.14370345,0.599475833 C7.72186897,0.599475833 7.72186897,0.604400833 7.30003448,0.604400833 L6.45636552,0.604400833 C6.03453103,0.604400833 6.03453103,0.6011175 5.61269655,0.6011175 C5.19086207,0.6011175 5.19086207,0.496050833 4.76902759,0.496050833 C4.3471931,0.496050833 4.3471931,0.565000833 3.92371724,0.565000833 C3.50024138,0.565000833 3.50024138,0.5863425 3.0784069,0.5863425 C2.65493103,0.5863425 2.65493103,0.5026175 2.23309655,0.5026175 C1.80962069,0.5026175 1.80962069,0.5173925 1.38614483,0.5173925 C1.0234,0.5173925 0.675427586,0.829309167 0.675427586,1.19047583 C0.675427586,1.5516425 1.0234,1.86027583 1.38614483,1.86027583 C1.81454483,1.86027583 1.81454483,1.7781925 2.24294483,1.7781925 C2.66970345,1.7781925 2.66970345,1.85535083 3.09810345,1.85535083 C3.52650345,1.85535083 3.52650345,1.81102583 3.95326207,1.81102583 C4.38002069,1.81102583 4.38002069,1.80445917 4.80842069,1.80445917 C5.23682069,1.80445917 5.23682069,1.88325917 5.66522069,1.88325917 C6.09362069,1.88325917 6.09362069,1.8471425 6.52202069,1.8471425 C6.95206207,1.8471425 6.95206207,1.7732675 7.37882069,1.7732675 C7.80886207,1.7732675 7.80886207,1.88982583 8.23890345,1.88982583 C8.66894483,1.88982583 8.66894483,1.89475083 9.09570345,1.89475083 C9.36981379,1.89475083 9.51753793,2.06548417 9.51753793,2.33800083 C9.51753793,2.75005917 9.56677931,2.75005917 9.56677931,3.1621175 C9.56677931,3.57253417 9.5996069,3.57253417 9.5996069,3.9845925 C9.5996069,4.39665083 9.61437931,4.39665083 9.61437931,4.80870917 C9.61437931,5.21912583 9.57334483,5.21912583 9.57334483,5.63118417 C9.57334483,6.0432425 9.51753793,6.0432425 9.51753793,6.45530083 C9.51753793,6.86735917 9.60453103,6.86735917 9.60453103,7.2794175 C9.60453103,7.69147583 9.5438,7.69147583 9.5438,8.10353417 C9.5438,8.5155925 9.63571724,8.5155925 9.63571724,8.92600917 C9.63571724,9.3380675 9.60781379,9.3380675 9.60781379,9.75012583 C9.60781379,10.1605425 9.639,10.1605425 9.639,10.5726008 C9.639,10.9846592 9.54708276,10.9846592 9.54708276,11.3983592 C9.54708276,11.8087758 9.56349655,11.8087758 9.56349655,12.2208342 C9.56349655,12.6345342 9.56842069,12.6345342 9.56842069,13.0465925 C9.56842069,13.4602925 9.60781379,13.4602925 9.60781379,13.8739925 C9.60781379,14.2860508 9.62751034,14.2860508 9.62751034,14.6997508 C9.62751034,15.0592758 9.88356552,15.4171592 10.244669,15.4171592 C10.6057724,15.4171592 10.8503379,15.0592758 10.8503379,14.6997508 C10.8503379,14.2876925 10.8240759,14.2876925 10.8240759,13.8756342 C10.8240759,13.4652175 10.8519793,13.4652175 10.8519793,13.0531592 C10.8519793,12.6411008 10.9356897,12.6411008 10.9356897,12.2306842 C10.9356897,11.8186258 10.8815241,11.8186258 10.8815241,11.4065675 C10.8815241,10.9945092 10.9668759,10.9945092 10.9668759,10.5824508 C10.9668759,10.1703925 10.911069,10.1703925 10.911069,9.75833417 C10.911069,9.3479175 10.9504621,9.3479175 10.9504621,8.93585917 C10.9504621,8.52380083 10.9521034,8.52380083 10.9521034,8.1117425 C10.9521034,7.69968417 10.9045034,7.69968417 10.9045034,7.2892675 C10.9045034,6.87720917 10.9471793,6.87720917 10.9471793,6.46515083 C10.9471793,6.0530925 10.8273586,6.0530925 10.8273586,5.64103417 C10.8273586,5.22897583 10.9570276,5.22897583 10.9570276,4.8169175 C10.9570276,4.40485917 10.8503379,4.40485917 10.8503379,3.99115917 C10.8503379,3.57745917 10.8946552,3.57745917 10.8946552,3.16540083 C10.8946552,2.75170083 10.9389724,2.75170083 10.9389724,2.33800083 C10.9389724,2.06548417 11.1195241,1.86355917 11.3936345,1.86355917 C11.8203931,1.86355917 11.8203931,1.86027583 12.2487931,1.86027583 C12.6771931,1.86027583 12.6771931,1.79625083 13.1055931,1.79625083 C13.5307103,1.79625083 13.5307103,1.78147583 13.9591103,1.78147583 C14.3875103,1.78147583 14.3875103,1.88818417 14.8159103,1.88818417 C15.242669,1.88818417 15.242669,1.90788417 15.6727103,1.90788417 C16.1011103,1.90788417 16.1011103,1.77655083 16.5295103,1.77655083 C16.9579103,1.77655083 16.9579103,1.91445083 17.3863103,1.91445083 C17.8163517,1.91445083 17.8163517,1.81595083 18.2463931,1.81595083 C18.6747931,1.81595083 18.6747931,1.90952583 19.1031931,1.90952583 C19.4659379,1.90952583 19.6842414,1.5516425 19.6842414,1.19047583 C19.6842414,0.829309167 19.4659379,0.583059167 19.1031931,0.583059167" id="Fill-3" fill="#032E4E" mask="url(#mask-2)"></path>
            </g>
            <path d="M117.388822,191.077687 C117.011305,190.897104 116.999815,190.916804 116.620657,190.736221 C116.239857,190.553996 116.264477,190.498179 115.885319,190.317596 C115.504519,190.135371 115.501236,190.143579 115.118794,189.959712 C114.739636,189.777487 114.739636,189.775846 114.358836,189.593621 C114.16187,189.500046 114.147098,189.239021 114.344063,189.145446 C114.723222,188.963221 114.726505,188.971429 115.105663,188.789204 C115.486463,188.606979 115.50616,188.646379 115.885319,188.464154 C116.266119,188.281929 116.262836,188.277004 116.645277,188.094779 C117.026077,187.912554 117.024436,187.909271 117.406877,187.727046 C117.477457,187.692571 117.554601,187.638396 117.625181,187.672871 C118.004339,187.853454 118.012546,187.837037 118.390063,188.019262 C118.772505,188.201487 118.747884,188.250737 119.128684,188.434604 C119.509484,188.616829 119.532463,188.569221 119.911622,188.751446 C120.294063,188.933671 120.279291,188.964862 120.660091,189.147087 C120.855415,189.240662 120.853774,189.527954 120.65845,189.619887 C120.279291,189.803754 120.274367,189.792262 119.893567,189.974487 C119.514408,190.155071 119.520974,190.168204 119.138532,190.352071 C118.759374,190.534296 118.756091,190.529371 118.376932,190.711596 C117.994491,190.895462 118.001057,190.906954 117.620257,191.089179 C117.549677,191.122012 117.461043,191.112162 117.388822,191.077687 M122.939967,188.797412 C122.572298,188.621754 122.560808,188.643096 122.194781,188.465796 C121.827112,188.290137 121.853374,188.237604 121.484063,188.060304 C121.116394,187.884646 121.113112,187.892854 120.743801,187.715554 C120.376132,187.539896 120.377774,187.538254 120.010105,187.360954 C119.640794,187.185296 119.626022,187.216487 119.258353,187.040829 C118.889043,186.863529 118.892326,186.856962 118.523015,186.678021 C118.153705,186.502362 118.173401,186.462962 117.80245,186.287304 C117.625181,186.200296 117.382257,186.205221 117.203346,186.290587 C116.835677,186.466246 116.837319,186.469529 116.468008,186.645187 C116.101981,186.820846 116.126601,186.876662 115.760574,187.053962 C115.391263,187.229621 115.39947,187.246037 115.03016,187.421696 C114.664132,187.598996 114.639512,187.549746 114.273484,187.723762 C113.904174,187.901062 113.927153,187.948671 113.557843,188.124329 C113.188532,188.301629 113.175401,188.270437 112.80445,188.447737 C112.435139,188.625037 112.433498,188.621754 112.065829,188.797412 C111.837677,188.907404 111.683388,189.132312 111.683388,189.386771 C111.683388,189.637946 111.837677,189.862854 112.065829,189.971204 C112.433498,190.146862 112.430215,190.151787 112.797884,190.327446 C113.167194,190.503104 113.172119,190.491612 113.539788,190.667271 C113.909098,190.842929 113.914022,190.833079 114.281691,191.008737 C114.64936,191.184396 114.644436,191.195887 115.012105,191.373187 C115.379774,191.548846 115.386339,191.535712 115.75565,191.713012 C116.123319,191.888671 116.093774,191.954337 116.463084,192.131637 C116.830753,192.307296 116.834036,192.304012 117.203346,192.479671 C117.380615,192.566679 117.585788,192.491162 117.764698,192.407437 C118.132367,192.230137 118.161912,192.287596 118.527939,192.111937 C118.895608,191.934637 118.882477,191.910012 119.251788,191.732712 C119.617815,191.557054 119.630946,191.584962 120.000257,191.407662 C120.367926,191.232004 120.374491,191.246779 120.74216,191.069479 L121.479139,190.716521 C121.850091,190.540862 121.828753,190.496537 122.198063,190.320879 C122.567374,190.145221 122.56245,190.135371 122.93176,189.958071 C123.159912,189.849721 123.299429,189.637946 123.299429,189.386771 C123.299429,189.132312 123.168119,188.907404 122.939967,188.797412" id="Fill-6" fill="#032E4E"></path>
            <path d="M105.746847,89.00263 C110.575785,86.6599717 120.051468,72.9060883 121.707619,67.71678 C120.187702,67.1618967 120.448681,65.46113 119.675592,64.1248133 C119.168406,64.5516467 118.748212,64.79133 118.487233,65.14593 C117.699371,66.2113717 116.959109,67.31293 116.225412,68.4177717 C114.360806,71.218455 112.501123,74.0224217 110.656212,76.83788 C110.101426,77.6833383 109.694364,78.6420717 109.060792,79.4202217 C107.099343,81.8252633 106.331178,84.7063883 105.638516,87.6219883 C105.549881,87.993005 105.694323,88.4198383 105.746847,89.00263 M68.1133021,69.31248 C67.9819917,69.3239717 67.8506814,69.337105 67.7210124,69.346955 C67.4764469,69.622755 67.217109,69.8870633 66.9873159,70.174355 C63.5207228,74.4820883 60.7632055,79.2297883 58.3027779,84.1597133 C57.9465986,84.8738383 57.5854952,85.6060217 57.363909,86.3693967 C56.7746538,88.4132717 55.983509,90.4275967 56.1689848,92.61758 C56.200171,93.0000883 56.3561021,93.3694633 56.459509,93.7667467 C60.4267228,92.2564133 69.0669434,78.9818967 69.9713434,73.1818883 C68.8601297,72.1903217 67.6684883,71.188905 68.1133021,69.31248 M228.49904,72.4776133 C227.771909,72.9454883 227.264723,73.139205 226.943012,73.5003717 C225.515012,75.089505 223.981964,76.62118 222.790323,78.379405 C221.363964,80.4790967 219.606047,82.260305 217.971233,84.1597133 C217.148902,85.1151633 217.120999,85.0905383 217.953178,86.06733 C218.916668,87.195155 218.898612,87.5185633 217.793964,88.6069883 C217.528061,88.869655 217.18173,89.0781467 216.989688,89.3851383 C216.720502,89.82018 216.39715,90.32253 216.390585,90.7986133 C216.377454,91.9149467 216.434902,93.055905 216.651564,94.1476133 C217.034006,96.04538 219.221964,97.4867633 221.124323,97.1863383 C223.932723,96.7430883 226.114116,95.085005 228.223288,93.361255 C229.972999,91.9297217 230.77235,89.953155 230.81995,87.7155633 C230.844571,86.653405 230.816668,85.5485633 230.554047,84.5290883 C229.792447,81.5724467 229.227812,78.596105 229.078447,75.5393217 C229.03413,74.6528217 228.753454,73.7778133 228.49904,72.4776133 M185.31435,64.047655 C185.033674,64.3250967 184.713606,64.57463 184.477247,64.8881883 C180.990957,69.4388883 178.26955,74.3868717 176.895716,79.98988 C176.344212,82.2422467 176.728295,84.4732717 177.594943,86.5910217 C178.062737,87.7303383 178.583054,87.8616717 179.782902,87.402005 C181.626171,86.6993717 183.128033,85.4648383 184.490378,84.10718 C187.494102,81.107855 190.140006,77.827805 191.971785,73.9534717 C192.474047,72.892955 192.982874,71.819305 193.634502,70.8474383 C195.582819,67.9449717 197.115868,64.825805 198.545509,61.64918 C198.742474,61.2092133 198.921385,60.7610383 199.146254,60.3358467 C199.786392,59.12758 199.802806,57.9275217 199.369481,56.620755 C198.534019,54.0958717 198.486419,51.5266633 199.728943,49.1232633 C200.457716,47.71143 201.45075,46.4276467 202.389619,45.1323717 C203.059302,44.209755 203.991606,43.9355967 205.094612,44.3542217 C205.495109,44.505255 205.907095,44.6201717 206.315799,44.7531467 C207.285854,45.0699883 207.875109,45.74143 207.894806,46.75598 C207.942406,48.9393967 208.11475,51.134305 207.190654,53.2290717 C206.671978,54.3979383 206.28133,55.6242633 205.874268,56.837455 C205.429454,58.1639217 205.647757,59.30488 206.696599,60.353905 C208.017909,61.673805 209.409799,62.9920633 210.41104,64.5467217 C212.067192,67.1241383 213.116033,69.9067633 211.49435,72.99638 C210.402833,75.0763717 209.276847,77.1547217 208.403633,79.3266467 C207.550116,81.4509633 206.942806,83.6819883 206.333854,85.8933133 C206.04333,86.9456217 205.587026,88.0094217 205.797123,89.184855 C206.61453,89.3933467 207.041288,88.83518 207.469688,88.41163 C210.588309,85.313805 213.283454,81.8531717 215.965468,78.3810467 C216.97984,77.069355 217.986006,75.739605 219.125123,74.54283 C221.999178,71.5320133 224.16744,68.0401883 226.189619,64.4432967 C226.388226,64.0903383 226.465371,63.6306717 226.471937,63.2186133 C226.491633,61.8297633 226.468654,60.442555 226.434185,59.053705 C226.407923,57.9225967 226.828116,56.9343133 227.49944,56.0954217 C228.597523,54.7229883 229.841688,53.4671133 230.929923,52.089755 C231.648847,51.17863 232.472819,51.0046133 233.474061,51.3739883 C234.119123,51.6136717 234.787164,51.85828 235.348516,52.24243 C236.395716,52.9581967 236.553288,53.62143 236.203674,54.8658133 C236.088778,55.2745883 236.000143,55.69978 235.977164,56.1200467 C235.819592,58.9716217 234.895495,61.5670967 233.278737,63.8933383 C232.50893,65.003105 232.392392,66.0357133 232.750212,67.347405 C233.751454,71.011605 234.62795,74.7069967 234.716585,78.5484967 C234.739564,79.541705 235.176171,80.52178 235.373137,81.5182717 C235.947619,84.4535717 236.738764,87.3855883 235.988654,90.4078967 C235.327178,93.0772467 234.176571,95.429755 231.686599,96.9105383 C230.037012,97.892255 228.472778,99.0266467 226.780516,99.9279217 C223.763661,101.535113 220.610571,101.41363 217.426295,100.40893 C216.173923,100.016572 215.103743,99.3582633 214.100861,98.5341467 C212.704047,97.38498 211.865302,95.9797133 211.789799,94.13448 C211.760254,93.4072217 211.586268,92.6848883 211.453316,91.7885383 C210.614571,92.287605 209.958019,92.7177217 209.26864,93.0772467 C208.605523,93.42528 207.871826,93.6436217 207.230047,94.0228467 C205.69864,94.9290467 204.134406,94.700855 202.573454,94.2099967 C202.197578,94.0917967 201.833192,93.77003 201.580419,93.449905 C199.973509,91.4142383 199.697757,89.1766467 200.287012,86.6451967 C201.434337,81.708705 203.312074,77.0775633 205.688792,72.6253633 C205.788916,72.4365717 205.872626,72.2395717 205.964543,72.045855 C207.310474,69.1762217 206.806571,66.7055133 204.441343,64.5811967 C203.445026,63.68813 202.970668,63.8194633 202.561964,65.1295133 C201.934957,67.1389133 201.014143,68.9792217 199.746999,70.6799883 C198.955854,71.740505 198.378088,72.9684717 197.76093,74.1504717 C196.326364,76.89698 194.589785,79.4464883 192.830226,81.98943 C190.734185,85.01338 188.331206,87.7188467 185.161702,89.6166133 C183.200254,90.790405 181.217468,91.9740467 178.758681,91.9247967 C177.210861,91.8952467 175.973261,91.2845467 174.825937,90.38163 C174.200571,89.88913 173.649068,89.3014133 172.933426,88.633255 C172.539495,88.99278 172.089757,89.2373883 171.89115,89.61333 C170.976902,91.3600633 169.255095,92.0594133 167.690861,92.95248 C166.491012,93.6386967 165.222226,94.208355 164.020737,94.89293 C161.678488,96.227605 158.948874,95.6677967 157.888543,92.5207217 C156.977578,89.8218217 156.683771,87.0703883 157.831095,84.220455 C159.14584,80.9535383 160.087992,77.5388717 161.209054,74.193155 C161.837702,72.31673 162.522157,70.4583633 163.137674,68.5770133 C163.56115,67.28338 162.556626,65.012955 161.34693,64.46628 C160.851233,64.2413717 160.529523,64.5089633 160.367026,64.9817633 C160.089633,65.7927467 159.912364,66.6496967 159.536488,67.41143 C157.176185,72.2116633 154.717399,76.9347383 151.063688,80.960105 C149.422309,82.7642967 148.242157,84.9821883 146.78133,86.9603967 C144.895385,89.51483 142.364378,91.3157383 139.516585,92.6307133 C137.722557,93.459755 136.187868,92.9705383 134.983095,91.3928967 C134.313412,90.514605 133.735647,89.5657217 132.985537,88.455955 C132.589964,88.771155 132.084419,89.1027717 131.665868,89.519755 C130.104916,91.085905 128.258364,92.090605 126.086819,92.4960967 C124.378143,92.8162217 122.943578,92.2613383 122.109757,90.7772717 C121.569743,89.815255 121.14955,88.8039883 121.165964,87.5973633 C121.188943,85.727505 120.952585,83.8576467 120.854102,81.9861467 C120.814709,81.206355 120.847537,80.42328 120.847537,79.3020217 C120.383026,79.7797467 120.051468,80.014505 119.859426,80.33463 C117.413771,84.4207383 113.806019,87.510355 110.690681,91.016955 C109.807619,92.011805 108.566737,92.5617633 107.335702,93.1412717 C105.316806,94.0885133 102.610171,93.0345633 101.577743,91.292755 C101.336461,90.88398 101.02624,90.51953 100.606047,89.9400217 C99.9970952,90.514605 99.4718538,91.0038217 98.9531779,91.499605 C98.8382814,91.6112383 98.7430814,91.7442133 98.6528055,91.8755467 C97.8780745,92.9836717 96.9851641,93.8915133 95.470171,93.4925883 C93.8123779,93.06083 92.7520469,91.75078 92.6387917,90.0237467 C92.5977572,89.440955 92.5813434,88.8318967 92.6978814,88.26388 C93.21984,85.7537717 93.6646538,83.2141133 94.3901434,80.7598217 C95.1763641,78.09868 96.2744469,75.532755 97.1739228,72.902805 C97.7795917,71.1363717 98.2851366,69.3354633 98.8185848,67.5427633 C98.8563366,67.42128 98.7529297,67.2571133 98.6495228,66.85983 C98.0766814,67.35233 97.5662124,67.7085717 97.157509,68.1583883 C93.9059366,71.730655 91.0121848,75.55738 88.6568055,79.7961633 C87.520971,81.8400383 86.6625297,84.0612133 85.0408469,85.826005 C84.7650952,86.1280717 84.6682538,86.5910217 84.4663641,86.968605 C83.8098124,88.190005 83.1302814,89.3982717 82.4835779,90.6262383 C82.1126262,91.3337967 81.7974814,92.070905 81.4413021,92.7883133 C81.0391641,93.6009383 80.7125297,94.4710217 80.1872883,95.1949967 C79.524171,96.109405 78.7001986,96.1996967 77.7908745,95.6727217 C76.8044055,95.1030633 76.3710814,94.0491133 76.7518814,93.0870967 C76.9242262,92.652055 77.1605848,92.2416383 77.1687917,91.6391467 C76.9488469,91.8656967 76.7141297,92.080755 76.5105986,92.3204383 C75.7178124,93.2561883 75.0267917,94.3002883 74.1289572,95.1178383 C72.6287366,96.4853467 70.3570676,96.4672883 68.8420745,95.1326133 C67.7571228,94.1820883 66.7460331,93.1379883 66.3898538,91.64243 C66.2979366,91.2467883 66.0911228,90.8774133 65.8547641,90.2896967 C65.4230814,90.6639967 65.0931641,90.8921883 64.8338262,91.1827633 C63.7620055,92.3795383 62.7607641,93.64198 61.6380607,94.7878633 C60.7829021,95.6628717 59.8850676,96.5756383 58.8313021,97.1551467 C57.0175779,98.15328 55.2235503,98.414305 53.7545159,96.4410217 C52.2395228,94.405355 51.6748883,92.2990967 52.2378814,89.825105 C53.09304,86.0903133 54.4997021,82.6066967 56.3840055,79.256055 C58.6999917,75.1321883 61.4164745,71.307105 64.3233572,67.6002217 C65.0160193,66.7186467 65.8120883,65.9158717 66.5999503,65.1147383 C68.6483917,63.0363883 70.9151366,63.190705 72.7469159,65.505455 C72.8076469,65.5826133 72.9176193,65.6203717 73.1539779,65.771405 C73.526571,65.229655 73.9024469,64.6764133 74.288171,64.13138 C74.7805848,63.43203 75.2352469,62.6998467 75.7916745,62.0546717 C76.4941848,61.2420467 78.0239503,61.141905 78.8495641,61.7739467 C79.5159641,62.284505 79.6292193,63.0166883 79.3698814,64.0936217 C78.0764745,69.4667967 75.4404193,74.2407633 72.7781021,79.00488 C71.0776331,82.0468883 70.0320745,85.2711217 70.0534124,88.7842883 C70.0583366,89.4196133 70.1305572,90.0894133 70.3554262,90.6754883 C70.5261297,91.12038 70.9266262,91.617805 71.3451779,91.775405 C71.5798952,91.8656967 72.1691503,91.391255 72.4071503,91.0399383 C75.0267917,87.19023 77.7071641,83.3799217 79.8261848,79.21173 C81.8598538,75.207705 84.0297572,71.2660633 85.9961297,67.2275633 C86.9530538,65.2624883 87.589909,63.141455 88.3580745,61.0860883 C88.7963228,59.9139383 88.9374814,59.8154383 90.0995779,60.009155 C90.4656055,60.0698967 90.8349159,60.1355633 91.2058676,60.1848133 C91.5144469,60.2274967 91.8279503,60.25048 92.1348883,60.2833133 C92.4319779,61.1977217 92.3236469,61.98408 91.9970124,62.8278967 C91.1648331,64.9719133 90.4196469,67.150405 89.6580469,69.3239717 C89.5053986,69.7573717 89.4331779,70.2203217 89.5907503,70.8178883 C89.8944055,70.4829883 90.2243228,70.16943 90.4951503,69.8115467 C92.635509,66.9813133 95.041771,64.40718 97.7779503,62.1449633 C99.2387779,60.935055 101.452999,60.82178 102.96635,62.0004967 C103.315964,62.2730133 103.568737,62.9231133 103.53755,63.3794967 C103.443992,64.8143133 103.352074,66.283605 102.969633,67.6593217 C101.666378,72.3479217 100.225247,76.9987633 98.8645434,81.6725883 C98.5100055,82.88578 98.2490262,84.12688 97.8895641,85.5879633 C99.2010262,84.939505 100.261357,84.4781967 101.251109,83.8970467 C101.626985,83.67378 101.937206,83.2141133 102.112833,82.7938467 C104.003702,78.32523 106.810461,74.390155 109.459647,70.3828467 C111.275012,67.633055 113.489233,65.13608 115.634516,62.6210467 C117.090419,60.915355 119.010833,60.4901633 121.182378,61.15668 C121.930847,61.388155 122.511895,61.7460383 123.022364,62.34853 C123.63624,63.06758 124.069564,62.993705 124.420819,62.1400383 C124.785206,61.2518967 125.00515,60.3062967 125.33835,59.40338 C125.945661,57.7502217 126.594006,56.1101967 127.216088,54.4619633 C127.649412,53.31608 128.056474,52.1603467 128.494723,51.016105 C129.14635,49.3235467 129.802902,47.6342717 130.477509,45.9499217 C131.493523,43.4201133 132.637564,40.939555 133.518985,38.36378 C134.730323,34.8243467 136.621192,31.6772717 138.694254,28.61228 C138.845261,28.390655 139.019247,28.1870883 139.171895,27.967105 C140.107481,26.6242217 140.09435,26.65213 141.555178,27.2890967 C142.119812,27.5369883 142.753385,27.62728 143.531399,27.8374133 C143.173578,29.5808633 142.899468,31.26193 142.475992,32.90688 C140.795219,39.4193717 138.042626,45.51488 134.956833,51.449505 C132.711426,55.7720133 130.818916,60.235705 128.891937,64.6961133 C127.470502,67.9843717 126.636681,71.3694883 126.073688,74.8465383 C125.38595,79.08368 125.463095,83.333955 126.149192,87.74183 C126.533274,87.59408 126.81395,87.5661717 126.971523,87.411855 C128.304323,86.0952383 129.620709,84.7605633 130.932171,83.422605 C131.560819,82.7839967 131.910433,82.0321133 131.849702,81.107855 C131.675716,78.4811883 132.470143,76.0219717 133.241592,73.5758883 C133.868599,71.5894717 134.644971,69.6490217 135.367178,67.6937967 C136.196074,65.4430717 137.512461,63.5026217 139.208006,61.8281217 C139.598654,61.44233 140.225661,60.96953 140.67704,61.0302717 C142.088626,61.2174217 143.513343,61.5227717 144.842861,62.018555 C145.720999,62.3452467 146.001674,63.3023383 145.712792,64.2118217 C144.867481,66.8565467 144.304488,69.603055 142.968406,72.075405 C140.985619,75.7428883 139.002833,79.40873 137.033178,83.0844217 C136.885454,83.35858 136.675357,83.737805 136.760709,83.974205 C137.258047,85.3597717 137.251481,86.9324883 138.223178,88.2277633 C139.444364,88.0094217 140.253564,87.1984383 140.977412,86.37268 C142.349606,84.8048883 143.636447,83.16158 144.934778,81.531405 C146.467826,79.60573 147.968047,77.6570717 149.49453,75.7281133 C151.309895,73.434705 152.261895,70.6701383 153.653785,68.1468967 C154.742019,66.1768967 155.720281,64.1691383 156.447412,62.0267633 C157.025178,60.3177883 156.979219,58.8681967 155.712074,57.4153217 C154.275868,55.7670883 154.121578,53.75933 154.641895,51.6694883 C155.185192,49.4959217 156.071537,47.5521883 157.773647,46.0008133 C158.861881,45.007605 159.953399,45.0634217 161.186074,45.549355 C162.364585,46.012305 162.955481,46.7822467 162.947274,48.1087133 C162.937426,49.4368217 163.25093,50.77478 163.18035,52.0963217 C163.103206,53.527855 162.750309,54.9446133 162.510668,56.3679383 C162.440088,56.7898467 162.339964,57.2084717 162.267743,57.63038 C162.139716,58.3609217 162.325192,58.9535633 162.861923,59.5232217 C164.183233,60.9235633 165.41755,62.402705 166.719164,63.8178217 C168.403219,65.64828 168.777454,67.7134967 168.027343,70.0627217 C166.727371,74.1406217 165.461868,78.2300133 164.201288,82.32433 C163.651426,84.10718 163.131109,85.89988 162.648543,87.70243 C162.502461,88.25403 162.530364,88.849955 162.458143,89.65273 C163.016212,89.5460217 163.436406,89.5525883 163.77453,89.3851383 C165.785219,88.3984967 167.300212,86.8930883 168.636295,85.0806883 C170.207095,82.9514467 171.300254,80.753255 171.797592,78.0970383 C172.47384,74.5017883 174.208778,71.2315883 176.052047,68.0976467 C178.17435,64.490905 180.657757,61.1353383 184.155537,58.6810467 C185.650833,57.6336633 187.311909,57.5647133 188.730061,58.610455 C189.033716,58.8353633 189.214268,59.2786133 189.361992,59.654555 C189.795316,60.7364133 190.238488,61.821555 190.565123,62.9378883 C190.739109,63.525605 190.809688,64.205255 190.709564,64.8044633 C190.151495,68.1173467 188.93195,71.18398 186.95573,73.91243 C185.921661,75.3423217 184.798957,76.70983 183.687743,78.0822633 C183.354543,78.4943217 182.960612,78.8784717 182.52893,79.187105 C180.752957,80.4593967 179.205137,79.344705 178.336847,78.024805 C178.015137,77.5405133 178.299095,77.108755 178.658557,76.73938 C179.402102,75.9727217 180.290088,75.2996383 180.856364,74.4180633 C182.269592,72.21823 183.633578,69.9740717 184.820295,67.6461883 C185.340612,66.6217883 185.38493,65.35278 185.644268,64.195405 C185.532654,64.1445133 185.424323,64.0952633 185.31435,64.047655" id="Fill-8" fill="#032E4E"></path>
            <path d="M166.234301,129.276325 C166.193266,128.842925 166.167004,128.309383 166.083294,127.785692 C165.707418,125.401992 164.02008,124.413708 161.810783,125.32155 C161.12797,125.600633 160.446797,125.958517 159.872314,126.413258 C158.386866,127.595258 158.491914,129.5472 160.120163,130.54205 C160.778356,130.942617 161.577708,131.146183 162.337666,131.328408 C163.05659,131.500783 163.809983,131.522125 164.548604,131.618983 C165.810825,131.781508 166.155514,131.490933 166.232659,130.172675 C166.247432,129.908367 166.234301,129.640775 166.234301,129.276325 M119.627335,108.954133 C118.754121,109.134717 118.36019,109.696167 117.97939,110.274033 C116.886232,111.922267 115.934232,113.693625 114.663804,115.192467 C112.356025,117.909425 110.555432,120.935017 108.882866,124.042692 C106.980508,127.573917 105.183197,131.159317 103.374397,134.741433 C102.918094,135.649275 102.466714,136.586667 102.381363,137.916417 C102.863928,137.509283 103.167583,137.300792 103.415432,137.038125 C106.74579,133.485558 110.071225,129.929708 113.391735,126.368933 C113.569004,126.176858 113.662563,125.909267 113.828342,125.704058 C115.487777,123.643767 116.425004,121.177983 117.688866,118.896067 C118.814852,116.862042 119.622411,114.726233 119.975308,112.421333 C120.155859,111.254108 120.139446,110.116433 119.627335,108.954133 M165.382425,135.480183 C164.217046,135.316017 163.386508,135.19125 162.554328,135.081258 C160.576466,134.821875 158.646204,134.478767 157.152549,132.958583 C156.148025,131.937467 155.790204,132.031042 155.269887,133.354225 C154.216121,136.041633 153.011349,138.681433 152.162756,141.432867 C151.409363,143.8691 150.999018,146.418608 150.544356,148.938567 C150.32277,150.171458 150.654328,151.378083 151.269846,152.489492 C151.599763,153.085417 152.134852,153.438375 152.724108,153.129742 C154.278494,152.3204 156.065956,151.678508 157.236259,150.463675 C160.514094,147.058858 163.219087,143.215717 164.438632,138.52055 C164.676632,137.607783 164.996701,136.718 165.382425,135.480183 M120.585901,153.796258 C122.13208,153.477775 123.519046,153.083775 124.612204,152.079075 C125.752963,151.028408 126.816577,149.8973 127.90317,148.789175 C131.284411,145.344958 133.856452,141.37705 135.606163,136.877242 C136.458039,134.685617 137.295142,132.487425 138.171639,130.30565 C138.450673,129.614508 138.78059,128.929933 139.186011,128.304458 C140.090411,126.895908 140.906177,126.708758 142.431018,127.459 C143.699804,128.081192 144.014949,128.854417 143.424052,130.382808 C142.224204,133.474067 140.986604,136.55055 139.70797,139.608975 C138.89877,141.546142 138.238935,143.507933 137.974673,145.599417 C137.754728,147.34615 137.446149,149.07975 137.229487,150.828125 C137.17368,151.268092 137.319763,151.735967 137.388701,152.335175 C137.856494,152.174292 138.194618,152.148025 138.409639,151.970725 C139.89837,150.759175 141.45768,149.624783 142.521294,147.958492 C143.781873,145.980283 145.152425,144.069383 146.368687,142.061625 C146.889004,141.207958 147.130287,140.186842 147.504521,139.241242 C149.336301,134.623233 151.169721,130.003583 153.004783,125.385575 C154.721666,121.0565 156.438549,116.727425 158.160356,112.403275 C159.644163,108.676692 161.126328,104.950108 162.634756,101.233375 C162.903942,100.571783 163.045101,99.7328917 164.025004,99.6737917 C164.852259,99.6245417 166.68568,100.507758 166.91219,101.157858 C167.023804,101.481267 167.005749,101.913025 166.892494,102.243 C166.121046,104.519992 165.334825,106.792058 164.499363,109.046067 C163.311004,112.255525 162.075046,115.448567 160.855501,118.648175 C160.481266,119.62825 160.095542,120.6034 159.665501,121.711525 C160.264604,121.711525 160.645404,121.787042 160.981887,121.700033 C163.286383,121.097542 165.430025,121.77555 167.263446,122.964117 C168.885128,124.018067 169.797735,125.812408 170.084977,127.802108 C170.176894,128.444 170.209721,129.08425 171.105914,129.499592 C171.770673,128.854417 172.560177,128.219092 173.190466,127.454075 C174.651294,125.679433 176.039901,123.840767 177.449846,122.025083 C177.712466,121.688542 177.943901,121.324092 178.19339,120.976058 C178.710425,120.260292 179.304604,119.562583 180.282866,119.790775 C181.246356,120.014042 182.183583,121.642575 181.827404,122.675183 C181.344839,124.075525 180.776921,125.510342 179.933252,126.7104 C178.396921,128.892175 176.798218,131.065742 174.672632,132.741883 C173.799418,133.431383 172.886811,134.120883 171.883928,134.578908 C170.757942,135.097675 170.190025,135.859408 169.799377,137.016783 C168.893335,139.694342 167.98237,142.388317 166.78088,144.937825 C165.715625,147.196758 164.322094,149.314508 162.930204,151.399425 C162.35408,152.2613 161.480866,152.993483 160.602728,153.572992 C158.910466,154.687683 157.124646,155.65955 155.365087,156.670817 C152.67979,158.215625 150.022397,157.081233 148.372811,155.345992 C147.425735,154.3495 146.672342,153.172425 145.78928,152.019975 C144.382618,153.073925 142.851211,154.116383 141.437983,155.300025 C138.980839,157.355392 135.883556,156.413075 134.18637,154.351142 C133.393583,153.390767 132.840439,152.23175 132.077197,150.995575 C131.689832,151.428975 131.133404,151.908342 130.754246,152.500983 C128.92739,155.359125 126.112425,156.472175 122.964259,157.035267 C122.491542,157.120633 122.008977,157.1863 121.54939,157.325842 C120.164066,157.751033 118.970783,157.365242 118.046687,156.344125 C117.163625,155.370617 116.418439,154.2707 115.489418,153.064075 C114.309266,154.313383 113.07659,155.607017 111.858687,156.912142 C111.241528,157.572092 110.703156,158.315767 110.035114,158.918258 C107.891473,160.852142 105.739625,162.777817 103.518839,164.62305 C102.581611,165.404483 101.513073,166.064433 100.418273,166.607825 C99.7929076,166.9181 98.9787834,167.041225 98.2828386,166.965708 C96.964811,166.822883 95.6238041,166.614392 94.3763559,166.1892 C91.3857628,165.171367 88.9811421,161.636858 89.0402317,158.47665 C89.0566455,157.519558 89.1026041,156.509933 89.4144662,155.621792 C90.4961352,152.551875 91.2249076,149.340775 92.9647697,146.522033 C93.4128662,145.796417 93.7444248,144.996925 94.0809076,144.212208 C95.4481766,141.014242 96.6775697,137.75225 98.1859972,134.624875 C99.6681628,131.554958 101.442494,128.624583 103.062535,125.61705 C103.843832,124.165817 104.515156,122.650558 105.327639,121.215742 C106.085956,119.867933 106.891873,118.533258 107.806121,117.287233 C109.926783,114.3979 112.180397,111.603783 114.268232,108.689825 C115.254701,107.310825 116.743432,106.690275 118.020425,105.754525 C118.310949,105.541108 118.900204,105.477083 119.230121,105.624833 C120.142728,106.030325 121.232604,106.388208 121.815294,107.115467 C123.175997,108.811308 123.899846,110.820708 123.528894,113.074717 C123.356549,114.130308 123.236728,115.200675 122.97739,116.236567 C122.721335,117.267533 122.411114,118.300142 121.971225,119.2638 C121.150535,121.061425 120.315073,122.865617 119.305625,124.558175 C118.353625,126.157158 117.227639,127.662567 116.072108,129.125292 C114.517721,131.098575 112.874701,133.00455 111.244811,134.917092 C108.876301,137.699717 106.220549,140.181917 103.320232,142.406375 C102.686659,142.892308 102.062935,143.133633 101.24717,142.843058 C100.475721,142.5689 99.842149,142.887383 99.5663972,143.654042 C98.0760248,147.77955 95.4727972,151.440467 94.5125903,155.779392 C94.2237076,157.079592 94.0201766,158.4077 93.9019972,159.735808 C93.7542731,161.393892 94.7850593,162.393667 96.081749,163.186592 C96.6578731,163.541192 97.2011697,163.439408 97.7428248,163.111075 C100.401859,161.513733 103.106852,160.000117 105.170066,157.577017 C106.312466,156.235775 107.658397,155.070192 108.856604,153.771633 C109.759363,152.791558 110.599749,151.7491 111.417156,150.69515 C112.889473,148.795742 114.360149,146.891408 115.752039,144.931258 C116.269073,144.204 116.626894,143.3372 116.935473,142.491742 C117.826742,140.030883 118.563721,137.510925 119.538701,135.084542 C120.434894,132.8568 121.555956,130.717708 122.586742,128.544142 C123.113625,127.434375 123.696314,126.350875 124.183804,125.22305 C124.868259,123.640483 125.593749,123.356475 127.031597,124.193725 C128.525252,125.067092 128.687749,125.743458 127.963901,127.3802 C126.384894,130.950825 124.689349,134.483692 123.341777,138.141325 C122.087763,141.547783 121.135763,145.072442 120.218232,148.588892 C119.791473,150.225633 119.666728,151.974008 120.585901,153.796258" id="Fill-10" fill="#032E4E"></path>
            <path d="M22.7995793,96.2057708 C22.2119655,96.8936292 21.8295241,97.3106125 21.4799103,97.7505792 C19.648131,100.057121 17.9181172,102.450671 15.9730828,104.653788 C13.8721172,107.030921 11.3443931,108.971371 8.56717931,110.499763 C5.51749655,112.179188 1.76694483,110.509613 0.634393103,107.163896 C-0.125565517,104.914813 -0.18957931,102.646029 0.371772414,100.360829 C1.56177241,95.5244792 2.99305517,90.7669292 4.89869655,86.1538458 C6.94221379,81.2075042 8.73788276,76.1511708 10.9865724,71.3016875 C12.6574966,67.6965875 13.8130276,63.9273208 15.2640069,60.2581958 C16.268531,57.7218208 17.4306276,55.2429042 18.6403241,52.7984625 C19.0276897,52.0137458 19.7367655,51.3455875 20.4162966,50.7627958 C20.9284069,50.3228292 21.6522552,50.3655125 22.1939103,50.8301042 C22.7224345,51.2881292 22.6420069,51.8561458 22.3022414,52.4290875 C19.9058276,56.4560958 18.3941172,60.8541208 16.8331655,65.2439375 C15.4379931,69.1708042 13.7785586,73.0024542 12.2865448,76.8964875 C10.3316621,81.9955042 8.30948276,87.0731792 6.54828276,92.2362208 C5.4108069,95.5688042 4.59996552,99.0228708 3.8318,102.463804 C3.56097241,103.673713 3.6972069,105.036296 3.92371724,106.280679 C4.24871034,108.084871 5.40916552,108.626621 6.9734,107.649829 C8.68864138,106.577821 10.3644897,105.381046 11.8400897,104.006971 C14.3530414,101.669238 16.4047655,98.9128792 18.3711379,96.1023458 C19.1655655,94.9630292 20.097869,93.9222125 20.9678,92.8370708 C21.9903793,91.5631375 22.5747103,90.1447375 22.9161172,88.5112792 C23.7844069,84.3660708 25.0105172,80.3210042 27.406931,76.7470958 C27.6350828,76.4056292 27.9436621,76.0329708 28.3031241,75.8835792 C29.1385862,75.5388292 30.0150828,75.2597458 30.9014276,75.0709542 C31.976531,74.8411208 32.5346,75.3139208 32.5657862,76.4220458 C32.5822,76.9523042 32.5313172,77.5022625 32.3950828,78.0144625 C31.7533034,80.4030875 30.7569862,82.6291875 29.4586552,84.7485792 C28.3737034,86.5248625 27.2674138,88.3471125 26.5960897,90.2941292 C26.1496345,91.5861208 26.3892759,93.1391375 26.4516483,94.5673875 C26.4976069,95.6295458 26.6962138,96.6982708 26.9391379,97.7358042 C27.1196897,98.4991792 27.3855931,99.2789708 27.787731,99.9471292 C28.4820345,101.101221 29.2222966,101.299863 30.5091379,100.823779 C32.3376345,100.149054 33.9724483,99.1509208 35.4086552,97.8310208 C39.8961862,93.7087958 43.6483793,89.0152708 46.6783655,83.7110458 C48.4543379,80.6000875 50.5930552,77.6976208 52.4084207,74.6080042 C53.703469,72.4032458 54.7933448,70.0687958 55.8668069,67.7425542 C57.0781448,65.1208125 58.1237034,62.4251958 59.3186276,59.7952458 C60.8007931,56.5299708 62.3157862,53.2761875 63.1331931,49.7695875 C64.0474414,45.8476458 64.5874552,41.8797375 63.9259793,37.8428792 C63.8554,37.4209708 63.8127241,36.9924958 63.7060345,36.5804375 C63.4155103,35.4838042 63.3022552,35.4099292 62.1582138,35.4164958 C61.0749034,35.4230625 59.9702552,34.6055125 59.7174828,33.6040958 C59.5631931,32.9950375 59.796269,32.5879042 60.3543379,32.2989708 C61.5919379,31.6570792 64.4774828,32.1462958 65.4721586,33.1903958 C66.3470138,34.1113708 66.8345034,35.2227792 67.1414414,36.4392542 C67.6650414,38.5307375 67.8652897,40.6534125 67.7996345,42.8056375 C67.6929448,46.4025292 67.1398,49.9009208 66.0958828,53.3714042 C64.6678828,58.1207458 62.0662966,62.3595292 60.4741586,67.0218625 C59.3087793,70.4299625 57.7199241,73.6295708 55.797869,76.6633708 C54.3124207,79.0093125 52.7366966,81.3010792 51.2315517,83.6371708 C50.826131,84.2626458 50.5470966,84.9669208 50.181069,85.6203042 C47.1116897,91.0788458 43.2298276,95.8954958 38.5486138,100.045629 C36.7857724,101.610138 34.7964207,102.847954 32.6133862,103.823104 C30.379469,104.819596 27.4463241,104.057863 25.9920621,102.407988 C25.4618966,101.807138 24.9744069,101.166888 24.4343931,100.574246 C23.836931,99.9175792 23.5185034,99.1771875 23.4233034,98.2841208 C23.3576483,97.6832708 23.0802552,97.1086875 22.7995793,96.2057708" id="Fill-12" fill="#032E4E"></path>
            <path d="M88.7144179,134.057022 C90.4575628,130.611164 92.1252041,127.388572 93.7091352,124.126581 C94.1211214,123.281122 94.296749,122.312539 94.5298248,121.386639 C94.8548179,120.091364 95.1716041,118.789522 95.4194524,117.476189 C96.057949,114.087789 95.3078386,111.024439 93.2413421,108.253306 C91.8986938,106.457322 87.6229007,104.874756 84.7570524,106.033772 C79.7130938,108.076006 75.4865421,111.081897 72.4368593,115.650656 C70.8036869,118.098381 68.9801145,120.427906 67.4782524,122.951147 C65.6743766,125.978381 64.1429697,129.166497 62.4556317,132.264322 C60.1117421,136.562206 58.4999076,141.144097 57.1178662,145.819564 C56.3907352,148.282064 55.6504731,150.739639 54.9036455,153.195572 C54.0287903,156.071772 54.1633834,159.018564 54.3045421,161.962073 C54.3488593,162.924089 54.4227214,163.891031 54.5704455,164.839914 C54.9364731,167.179289 55.8851903,169.239581 57.7120455,170.804089 C58.1010524,171.137348 58.6492731,171.518214 59.1055766,171.496872 C60.8487214,171.413147 62.6542386,171.578956 64.2693559,170.679323 C65.8073283,169.820731 67.3781283,169.014672 68.8586524,168.072356 C70.9218662,166.757381 72.4155214,164.828422 73.9075352,162.947072 C76.0626662,160.226831 78.1045421,157.419581 80.1890938,154.645164 C81.1476593,153.369589 82.0848869,152.919772 83.1337283,153.259597 C84.3778938,153.665089 84.8571766,154.702622 84.1907766,155.828806 C82.5822248,158.539197 81.1279628,161.384206 79.1993421,163.851631 C77.3445834,166.228764 75.3880593,168.614106 72.7799076,170.308306 C71.8016455,170.943631 70.8594938,171.662681 70.0092593,172.462173 C68.3908593,173.980714 66.3358524,174.425606 64.2956179,174.783489 C62.6739352,175.067498 60.9915214,175.026456 59.3353697,175.106898 C57.3181145,175.203756 55.6849421,174.226964 54.3012593,172.962881 C52.0312317,170.887814 50.5884593,168.274281 50.1141007,165.201081 C49.3311628,160.121764 49.3065421,155.049014 50.7657283,150.082972 C52.0033283,145.873739 53.3295628,141.687489 54.8051628,137.558697 C55.5930248,135.352297 56.7173697,133.255889 57.80068,131.166047 C59.2516593,128.368647 60.7469559,125.590947 62.3456593,122.875631 C63.5635628,120.807131 64.927549,118.819072 66.307949,116.852356 C67.6259766,114.974289 69.08188,113.196364 70.4196041,111.334714 C72.7454386,108.098989 76.0085007,106.091231 79.4570386,104.319872 C80.31548,103.879906 81.185411,103.451431 82.0865283,103.123097 C82.8743903,102.832522 83.7065697,102.581347 84.5371076,102.500906 C87.801811,102.190631 90.7415214,103.239656 93.513811,104.843564 C93.868349,105.048772 94.1654386,105.405014 94.4017972,105.749764 C95.6065697,107.514556 96.9557834,109.208756 97.9258386,111.098314 C99.0797283,113.345756 99.6213834,115.793481 98.9894524,118.375822 C98.6217834,119.879589 98.390349,121.417831 98.0587903,122.933089 C97.9012179,123.661989 97.7469283,124.412231 97.4367076,125.082031 C96.2073145,127.753022 94.9237559,130.397747 93.6401972,133.044114 C93.4317421,133.474231 93.1379352,133.866589 92.8506938,134.250739 C91.2749697,136.356997 89.9388869,136.251931 88.7144179,134.057022" id="Fill-14" fill="#032E4E"></path>
            <path d="M223.087905,47.8664033 C222.902429,48.6724617 222.782608,49.5113533 222.511781,50.2977117 C222.149036,51.3516617 221.687808,52.37442 221.233146,53.3922533 C220.719394,54.5447033 220.325463,54.8352783 219.14367,54.5644033 C218.34596,54.3821783 217.53676,53.9881783 216.899905,53.482545 C216.611022,53.2494283 216.535519,52.4515783 216.681601,52.014895 C217.303684,50.1417533 218.19167,48.3786033 219.47687,46.8617033 C220.097312,46.12952 220.64225,46.1459367 221.413698,46.7041033 C221.884774,47.0422867 222.365698,47.365695 223.087905,47.8664033" id="Fill-16" fill="#032E4E"></path>
            <path d="M45.4117131,114.053971 C45.9041269,114.296937 45.9041269,114.296937 45.7252166,114.777946 C45.1507338,114.692579 45.0686648,114.503787 45.4117131,114.053971" id="Fill-18" fill="#032E4E"></path>
            <path d="M45.4117131,114.053971 L45.1999752,114.482446 C45.3526234,114.557963 45.4494648,114.610496 45.4494648,114.615421 L45.5807752,114.441404 L45.3952993,114.548113 L45.4494648,114.615421 L45.5807752,114.441404 L45.3952993,114.548113 L45.6513545,114.400362 L45.3559062,114.402004 L45.3952993,114.548113 L45.6513545,114.400362 L45.3559062,114.402004 L45.4790097,114.402004 L45.3575476,114.377379 L45.3559062,114.402004 L45.4790097,114.402004 L45.3575476,114.377379 C45.3575476,114.387229 45.3263614,114.479162 45.27712,114.613779 L45.7252166,114.777946 L45.7957959,114.305146 L45.6267338,114.272312 L45.575851,114.254254 L45.549589,114.306787 L45.5856993,114.260821 L45.575851,114.254254 L45.549589,114.306787 L45.5856993,114.260821 L45.4264855,114.472596 L45.6858234,114.472596 L45.5856993,114.260821 L45.4264855,114.472596 L45.6858234,114.472596 L45.5216855,114.472596 L45.6808993,114.515279 L45.6858234,114.472596 L45.5216855,114.472596 L45.6808993,114.515279 L45.6841821,114.508712 L45.7908717,114.344546 L45.4117131,114.053971 L45.1999752,114.482446 L45.4117131,114.053971 L45.0309131,113.763396 C44.8799062,113.973529 44.7436717,114.155754 44.7288993,114.472596 C44.7272579,114.594079 44.7650097,114.733621 44.8388717,114.841971 C44.9504855,115.009421 45.099851,115.093146 45.2311614,115.145679 C45.3657545,115.198212 45.501989,115.229404 45.6529959,115.250746 C45.8778648,115.285221 46.0961683,115.157171 46.1749545,114.943754 C46.2356855,114.759887 46.3013407,114.643329 46.3128303,114.402004 C46.3144717,114.300221 46.2849269,114.172171 46.2258372,114.072029 C46.1322786,113.914429 46.0190234,113.842196 45.9271062,113.784737 C45.8319062,113.727279 45.7383476,113.681312 45.6218097,113.625496 C45.4182786,113.525354 45.1704303,113.582812 45.0309131,113.763396 L45.4117131,114.053971 Z" id="Fill-20" fill="#032E4E"></path>
            <path d="M43.1452966,115.019107 C43.2257241,115.17014 43.3439034,115.314607 43.3685241,115.473848 C43.3849379,115.577273 43.281531,115.723382 43.1945379,115.808748 L42.9450483,115.767707 C42.8761103,115.700398 42.8120966,115.572348 42.8252276,115.482057 C42.8482069,115.322815 42.9335586,115.171782 42.9926483,115.015823 L43.1452966,115.019107 Z" id="Fill-22" fill="#032E4E"></path>
            <path d="M43.1452966,115.019107 L42.7218207,115.240732 C42.7776276,115.34744 42.8317931,115.424598 42.8613379,115.480415 L42.8925241,115.539515 L42.8974483,115.551007 L42.9171448,115.54444 L42.8974483,115.547723 L42.8974483,115.551007 L42.9171448,115.54444 L42.8974483,115.547723 L43.2240828,115.496832 L42.8925241,115.496832 L42.8958069,115.546082 L43.2240828,115.496832 L42.8925241,115.496832 L43.1354483,115.496832 L42.9056552,115.411465 L42.8925241,115.496832 L43.1354483,115.496832 L42.9056552,115.411465 L42.9795172,115.441015 L42.9072966,115.40654 L42.9056552,115.411465 L42.9795172,115.441015 L42.9072966,115.40654 L42.853131,115.47549 L43.1945379,115.808748 L43.2749655,115.33759 L43.0238345,115.296548 L42.9450483,115.767707 L43.2782483,115.424598 L43.2125931,115.493548 L43.2913793,115.439373 L43.2782483,115.424598 L43.2125931,115.493548 L43.2913793,115.439373 L43.281531,115.444298 L43.2913793,115.441015 L43.2913793,115.439373 L43.281531,115.444298 L43.2913793,115.441015 L43.1173931,115.506682 L43.3012276,115.506682 L43.2913793,115.441015 L43.1173931,115.506682 L43.3012276,115.506682 L42.969669,115.506682 L43.2963034,115.56414 L43.3012276,115.506682 L42.969669,115.506682 L43.2963034,115.56414 L43.2979448,115.552648 C43.2995862,115.511607 43.3586759,115.385198 43.4391034,115.188198 L42.9926483,115.015823 L42.9828,115.49519 L43.1370897,115.496832 L43.1452966,115.019107 L42.7218207,115.240732 L43.1452966,115.019107 L43.1551448,114.541382 L43.0008552,114.538098 C42.8006069,114.534815 42.6184138,114.65794 42.5461931,114.846732 C42.5084414,114.958365 42.4001103,115.13074 42.3525103,115.409823 L42.8252276,115.482057 L42.3541517,115.398332 L42.3459448,115.506682 C42.3475862,115.657715 42.3853379,115.76114 42.4296552,115.856357 C42.4772552,115.94829 42.5297793,116.030373 42.6118483,116.110815 C42.6824276,116.178123 42.7694207,116.222448 42.8662621,116.238865 L43.1157517,116.281548 C43.2700414,116.306173 43.4276138,116.256923 43.5359448,116.14529 C43.5999586,116.079623 43.662331,116.005748 43.7230621,115.90889 C43.7772276,115.81039 43.8428828,115.695473 43.8494483,115.496832 L43.8412414,115.401615 C43.7739448,115.056865 43.6065241,114.892698 43.5704138,114.797482 C43.4883448,114.643165 43.329131,114.544665 43.1551448,114.541382 L43.1452966,115.019107 Z" id="Fill-24" fill="#032E4E"></path>
            <path d="M34.4750386,113.008722 C34.6490248,113.031705 34.8262938,113.051405 35.0577283,113.079313 C34.9264179,113.335413 34.7869007,113.468388 34.5817283,113.415855 C34.4996593,113.394513 34.4487766,113.230347 34.3831214,113.130205 L34.4750386,113.008722 Z" id="Fill-26" fill="#032E4E"></path>
            <path d="M34.4750386,113.008722 L34.4175903,113.484805 C34.5932179,113.506147 34.7688455,113.525847 35.00028,113.553755 L35.0577283,113.079313 L34.632611,112.862613 L34.5554662,112.985738 L34.6375352,113.074388 L34.5882938,112.966038 L34.5554662,112.985738 L34.6375352,113.074388 L34.5882938,112.966038 L34.66708,113.14498 L34.66708,112.949622 L34.5882938,112.966038 L34.66708,113.14498 L34.66708,112.949622 L34.66708,113.069463 L34.6966248,112.952905 L34.66708,112.949622 L34.66708,113.069463 L34.6966248,112.952905 L34.6999076,112.952905 L34.6112731,113.300938 L34.8853834,113.061255 C34.8656869,113.043197 34.8131628,112.982455 34.6999076,112.952905 L34.6112731,113.300938 L34.8853834,113.061255 L34.7360179,113.190947 L34.8985145,113.079313 L34.8853834,113.061255 L34.7360179,113.190947 L34.8985145,113.079313 L34.8804593,113.092447 L34.9001559,113.080955 L34.8985145,113.079313 L34.8804593,113.092447 L34.9001559,113.080955 C34.8886662,113.06618 34.85748,112.985738 34.7836179,112.86918 L34.3831214,113.130205 L34.7672041,113.417497 L34.85748,113.296013 L34.4750386,113.008722 L34.4175903,113.484805 L34.4750386,113.008722 L34.0925972,112.723072 L34.00068,112.844555 C33.8808593,113.005438 33.8742938,113.225422 33.9842662,113.392872 L34.0564869,113.532413 L34.1664593,113.691655 C34.2189834,113.752397 34.3092593,113.839405 34.4651903,113.880447 L34.4684731,113.880447 L34.66708,113.905072 C34.8804593,113.909997 35.0856317,113.80493 35.2070938,113.685088 C35.3351214,113.563605 35.4139076,113.432272 35.4844869,113.297655 C35.5550662,113.158113 35.5534248,112.992305 35.4795628,112.854405 C35.4057007,112.716505 35.2711076,112.624572 35.1151766,112.604872 C34.8837421,112.576963 34.7081145,112.555622 34.5324869,112.53428 C34.3634248,112.512938 34.1943628,112.585172 34.0925972,112.723072 L34.4750386,113.008722 Z" id="Fill-28" fill="#032E4E"></path>
            <polygon id="Fill-30" fill="#032E4E" points="39.8881434 110.360221 40.1130124 110.209187 40.19344 110.324104 39.942309 110.450512"></polygon>
            <path d="M39.8881434,110.360221 L40.1573297,110.755862 L40.3821986,110.603187 L40.1130124,110.209187 L39.7190814,110.481704 L39.799509,110.598262 L40.19344,110.324104 L39.9784193,109.897271 L39.7272883,110.023679 L39.942309,110.450512 L40.3526538,110.204262 L40.2984883,110.115612 L39.8881434,110.360221 L40.1573297,110.755862 L39.8881434,110.360221 L39.47944,110.606471 L39.5319641,110.695121 C39.6599917,110.911821 39.9324607,110.990621 40.1573297,110.875704 L40.4068193,110.750937 C40.5315641,110.688554 40.62184,110.575279 40.656309,110.442304 C40.6907779,110.307687 40.6645159,110.164862 40.5857297,110.051587 L40.5053021,109.935029 C40.3559366,109.719971 40.0604883,109.665796 39.8454676,109.813546 L39.6205986,109.964579 C39.4105021,110.107404 39.3481297,110.388129 39.47944,110.606471 L39.8881434,110.360221 Z" id="Fill-32" fill="#032E4E"></path>
            <polygon id="Fill-34" fill="#032E4E" points="42.0777434 120.245517 42.2385986 120.143733 42.3846814 120.296408 42.2697848 120.391625"></polygon>
            <path d="M42.0777434,120.245517 L42.3387228,120.646083 L42.4979366,120.5443 L42.2385986,120.143733 L41.8906262,120.470425 L42.036709,120.624742 L42.3846814,120.296408 L42.0777434,119.930317 L41.9661297,120.02225 L42.2697848,120.391625 L42.5586676,120.007475 L42.3666262,119.86465 L42.0777434,120.245517 L42.3387228,120.646083 L42.0777434,120.245517 L41.7905021,120.628025 L41.9825434,120.772492 C42.1598124,120.905467 42.4060193,120.8989 42.5767228,120.757717 L42.6883366,120.665783 C42.7901021,120.580417 42.8524745,120.457292 42.8606814,120.325958 C42.8672469,120.196267 42.8212883,120.064933 42.7310124,119.968075 L42.586571,119.813758 C42.4273572,119.646308 42.1713021,119.615117 41.9759779,119.739883 L41.8184055,119.84495 C41.6870952,119.930317 41.6066676,120.073142 41.6001021,120.2291 C41.5951779,120.385058 41.6657572,120.53445 41.7905021,120.628025 L42.0777434,120.245517 Z" id="Fill-36" fill="#032E4E"></path>
            <path d="M48.0277434,124.538967 L47.9932745,124.837751 L47.8685297,124.822976 C47.8783779,124.722834 47.8898676,124.624334 47.8997159,124.524192 L48.0277434,124.538967 Z" id="Fill-38" fill="#032E4E"></path>
            <path d="M48.0277434,124.538967 L47.5533848,124.486434 C47.5418952,124.583292 47.5304055,124.683434 47.5189159,124.781934 L47.9932745,124.837751 L48.0490814,124.361667 L47.9243366,124.346892 L47.8685297,124.822976 L48.3445297,124.868942 L48.3740745,124.571801 L47.8997159,124.524192 L47.8455503,124.998634 L47.9735779,125.013409 L48.0277434,124.538967 L47.5533848,124.486434 L48.0277434,124.538967 L48.081909,124.062884 L47.95224,124.048109 C47.8258538,124.033334 47.6978262,124.072734 47.5977021,124.153176 C47.4992193,124.231976 47.4352055,124.350176 47.4237159,124.478226 C47.4138676,124.576726 47.4040193,124.676867 47.3925297,124.777009 C47.3695503,125.036392 47.5566676,125.266226 47.8160055,125.297417 L47.9407503,125.312192 C48.0671366,125.325326 48.1935228,125.289209 48.2920055,125.210409 C48.3921297,125.129967 48.4561434,125.016692 48.4709159,124.890284 L48.5037434,124.591501 C48.5332883,124.328834 48.3445297,124.094076 48.081909,124.062884 L48.0277434,124.538967 Z" id="Fill-40" fill="#032E4E"></path>
            <path d="M122.731348,3.09404917 C122.713292,3.07599083 122.696879,3.0579325 122.678823,3.03987417 C122.624658,3.08584083 122.565568,3.12852417 122.514686,3.17941583 C122.501554,3.19254917 122.513044,3.22702417 122.513044,3.29104917 C122.604961,3.20732417 122.667334,3.1515075 122.731348,3.09404917 M121.991086,2.90197417 C122.542589,2.46364917 123.041568,2.0729325 123.215554,1.4031325 C123.238534,1.3144825 123.284492,1.20777417 123.195858,1.16837417 C123.121996,1.13554083 123.008741,1.16837417 122.923389,1.2012075 C122.867582,1.2209075 122.826548,1.28821583 122.787154,1.3440325 C122.578699,1.62804083 122.343982,1.89891583 122.178203,2.2108325 C122.081361,2.38977417 121.918865,2.57856583 121.991086,2.90197417 M102.008934,16.5278075 C102.251858,16.2618575 102.486575,15.9630742 102.76561,15.7151825 C103.05121,15.4623658 103.164465,15.0979158 103.427086,14.8253992 C103.688065,14.5561658 103.743872,14.1539575 103.93263,13.8305492 C104.101692,13.5366908 104.111541,13.1902992 104.267472,12.8833075 C104.469361,12.4794575 104.579334,12.0263575 104.710644,11.5913158 C104.802561,11.2761158 104.960134,10.9822575 104.976548,10.6440742 C104.988037,10.3452908 105.022506,10.0465075 105.048768,9.74936583 C105.109499,9.03031583 105.178437,8.3129075 105.011017,7.5987825 C104.989679,7.50849083 104.938796,7.35909917 104.89612,7.3574575 C104.786148,7.35089083 104.659761,7.3919325 104.571127,7.4559575 C104.475927,7.52326583 104.42012,7.6431075 104.344617,7.73504083 C104.014699,8.13724917 103.656879,8.52139917 103.358148,8.94494917 C103.046286,9.38819917 102.816492,9.88726583 102.502989,10.3255908 C102.156658,10.8082408 101.949844,11.3516325 101.700354,11.8786075 C101.624851,12.0427742 101.592023,12.2299242 101.55263,12.4105075 C101.455789,12.8406242 101.391775,13.2805908 101.273596,13.7057825 C101.07663,14.4133408 101.117665,15.1143325 101.276879,15.8103992 C101.358948,16.1732075 101.454148,16.5704908 102.008934,16.5278075 M124.446589,17.2567075 C124.172479,17.5538492 123.932837,17.8263658 123.680065,18.0824658 C123.391182,18.3746825 123.107223,18.6718242 122.787154,18.9295658 C122.358754,19.2759575 121.894244,19.5780242 121.455996,19.9129242 C120.876589,20.3545325 120.279127,20.3807992 119.627499,20.0836575 C119.18761,19.8833742 118.924989,19.5468325 118.709968,19.1298492 C118.524492,18.7686825 118.567168,18.4107992 118.662368,18.0627658 C118.760851,17.7147325 118.93812,17.3896825 119.082561,17.0547825 C119.192534,16.8019658 119.294299,16.5442242 119.415761,16.2996158 C119.706286,15.7184658 120.023072,15.1520908 120.300465,14.5660158 C120.553237,14.0275492 120.778106,13.4759492 121.002975,12.9259908 C121.108023,12.6715325 121.201582,12.4121492 121.27052,12.1461992 C121.395265,11.6766825 121.49703,11.2005992 121.60372,10.7261575 C121.618492,10.6621325 121.618492,10.5931825 121.61521,10.5275158 C121.607003,10.3764825 121.538065,10.3223075 121.398548,10.3814075 C121.188451,10.4700575 120.979996,10.5504992 120.784672,10.6966075 C120.453113,10.9461408 120.067389,11.1217992 119.716134,11.3450658 C119.494548,11.4878908 119.276244,11.6471325 119.090768,11.8326408 C118.654161,12.2742492 118.222479,12.7224242 117.817058,13.1935825 C117.538023,13.5202742 117.306589,13.8863658 117.053817,14.2343992 C116.761651,14.6366075 116.472768,15.0437408 116.172396,15.4410242 C115.583141,16.2158908 115.044768,17.0268742 114.593389,17.8920325 C114.496548,18.0775408 114.434175,18.2811075 114.343899,18.4698992 C113.869541,19.4516158 113.40503,20.4398992 112.901127,21.4051992 C112.758327,21.6793575 112.577775,21.9502325 112.31023,22.1570825 C112.136244,22.2900575 112.031196,22.5198908 111.913017,22.7168908 C111.840796,22.8334492 111.775141,22.9844825 111.629058,22.9582158 C111.361513,22.9089658 111.253182,23.0813408 111.126796,23.2471492 C111.105458,23.2734158 111.082479,23.2963992 111.051292,23.3308742 C111.003692,23.2438658 110.982354,23.1470075 110.919982,23.0928325 C110.64423,22.8580742 110.660644,22.5560075 110.742713,22.2654325 C110.888796,21.7466658 111.164548,21.2771492 111.361513,20.7797242 C111.660244,20.0327658 112.121472,19.3760992 112.494065,18.6701825 C112.700879,18.2811075 112.974989,17.9182992 113.137486,17.5111658 C113.446065,16.7527158 113.905651,16.0714242 114.217513,15.3195408 C114.434175,14.7925658 114.719775,14.3017075 114.952851,13.7878658 C115.105499,13.4480408 115.220396,13.0885158 115.392741,12.7536158 C115.588065,12.3727492 115.78503,11.9918825 115.963941,11.6028075 C116.164189,11.1726908 116.348023,10.7343658 116.540065,10.3009658 C116.599154,10.1712742 116.659886,10.0399408 116.720617,9.91024917 C117.047251,9.21089917 117.365679,8.5049825 117.705444,7.8105575 C117.913899,7.3820825 118.161748,6.97494917 118.383334,6.55304083 C118.47361,6.3773825 118.552396,6.19351583 118.618051,6.00472417 C118.678782,5.83727417 118.621334,5.75847417 118.442423,5.73877417 C118.199499,5.71579083 117.951651,5.66161583 117.71201,5.6878825 C117.359113,5.72564083 117.030837,5.6337075 116.697637,5.55819083 C116.461279,5.50401583 116.205223,5.48924083 115.991844,5.3874575 C115.717734,5.2594075 115.430492,5.20194917 115.144892,5.12314917 C114.782148,5.02629083 114.425968,4.90644917 114.068148,4.8013825 C113.708686,4.69631583 113.344299,4.5994575 112.986479,4.49274917 C112.134603,4.23172417 111.267954,4.22187417 110.386534,4.2990325 C109.826823,4.34992417 109.317996,4.56334083 108.794396,4.7275075 C108.446423,4.83749917 108.09681,4.95077417 107.773458,5.11494083 C107.41892,5.29552417 107.095568,5.53192417 106.760727,5.74862417 C106.509596,5.91114917 106.26503,6.08024083 106.013899,6.24276583 C105.790672,6.3872325 105.747996,6.4906575 105.834989,6.73854917 C105.864534,6.82227417 105.897361,6.90107417 105.933472,6.98151583 C106.301141,7.83846583 106.399623,8.74466583 106.338892,9.6574325 C106.271596,10.6818325 106.204299,11.7160825 105.775899,12.6764575 C105.644589,12.9686742 105.496865,13.2510408 105.358989,13.5366908 C105.326161,13.6056408 105.28841,13.6762325 105.268713,13.7501075 C105.114423,14.3394658 104.773017,14.8286825 104.45623,15.3375992 C104.129596,15.8662158 103.719251,16.3308075 103.282644,16.7625658 C102.864092,17.1828325 102.333927,17.4372908 101.71841,17.2961075 C101.216148,17.1811908 100.784465,16.9234492 100.508713,16.4604992 C100.293692,16.0976908 100.072106,15.7365242 100.091803,15.2916325 C100.093444,15.2686492 100.08852,15.2440242 100.080313,15.2259658 C99.8472372,14.7351075 99.8538028,14.2130575 99.9079683,13.6926492 C99.9276648,13.4972908 99.9572097,13.2986492 100.016299,13.1147825 C100.139403,12.7306325 100.164023,12.3349908 100.206699,11.9409908 C100.223113,11.7998075 100.264148,11.6619075 100.305182,11.5256492 C100.52841,10.7819742 100.879665,10.0990408 101.296575,9.4456575 C101.506672,9.12224917 101.672451,8.76764917 101.880906,8.44259917 C102.13532,8.0420325 102.415996,7.6578825 102.686823,7.26716583 C102.785306,7.1259825 102.88543,6.9880825 103.021665,6.79436583 C102.890354,6.80257417 102.829623,6.78944083 102.788589,6.8107825 C102.453748,6.98151583 102.125472,7.16374083 101.79063,7.33447417 C101.324479,7.5741575 100.920699,7.90084917 100.520203,8.23082417 C100.075389,8.59527417 99.6486303,8.98106583 99.2169476,9.36029083 C98.7934717,9.7313075 98.4175959,10.1450075 98.0646993,10.5816908 C97.6215269,11.1283658 97.2637062,11.7210075 97.0913614,12.4121492 C96.9912372,12.8094325 96.89932,13.2099992 96.7844234,13.6039992 C96.7515959,13.7254825 96.6580372,13.8272658 96.5956648,13.9356158 C96.3461752,13.8666658 96.1606993,13.7665242 96.0047683,13.5925075 C95.7782579,13.3380492 95.7897476,13.0359825 95.85212,12.7503325 C95.9407545,12.3546908 96.0720648,11.9656158 96.2115821,11.5847492 C96.3428924,11.2235825 96.4791269,10.8656992 96.6580372,10.5193075 C97.1406028,9.58027417 97.8611683,8.84316583 98.6063545,8.12904083 C98.9641752,7.78757417 99.3761614,7.50192417 99.7782993,7.2097075 C100.180437,6.9142075 100.589141,6.6285575 101.012617,6.36424917 C101.65932,5.96039917 102.332286,5.59266583 103.102092,5.48431583 C103.425444,5.43999083 103.752079,5.3480575 104.091844,5.44327417 C104.354465,5.51714917 104.584258,5.45804917 104.827182,5.27089917 C105.350782,4.86376583 105.900644,4.48289917 106.475127,4.14964083 C107.105417,3.77862417 107.786589,3.5011825 108.480892,3.2647825 C109.555996,2.8954075 110.659003,2.87242417 111.768575,2.93809083 C112.085361,2.95614917 112.398865,3.05136583 112.710727,3.12852417 C113.063623,3.21717417 113.411596,3.33044917 113.764492,3.4273075 C114.063223,3.5110325 114.365237,3.5849075 114.662327,3.67191583 C114.97583,3.76056583 115.286051,3.8705575 115.599554,3.95756583 C115.85561,4.0281575 116.114948,4.09382417 116.375927,4.13814917 C117.298382,4.29082417 118.227403,4.3039575 119.153141,4.1660575 C119.410837,4.12829917 119.597954,3.9986075 119.704644,3.7425075 C119.972189,3.0973325 120.297182,2.4817075 120.71081,1.9153325 C120.976713,1.55252417 121.217996,1.17001583 121.487182,0.808849167 C121.633265,0.6151325 121.808892,0.441115833 121.982879,0.2703825 C122.130603,0.1275575 122.304589,0.0536825 122.522892,0.0553241667 C122.742837,0.0586075 122.964423,-0.00705916667 123.181086,0.00114916667 C123.492948,0.0126408333 123.796603,0.0733825 123.998492,0.360674167 C124.095334,0.500215833 124.213513,0.6249825 124.307072,0.766165833 C124.730548,1.41462417 124.704286,2.10084083 124.359596,2.74437417 C123.893444,3.61281583 123.204065,4.2744075 122.28161,4.67004917 C121.772782,4.88674917 121.275444,5.12314917 120.773182,5.34969917 C120.612327,5.4219325 120.510561,5.53192417 120.438341,5.69937417 C120.180644,6.28544917 119.908175,6.86824083 119.635706,7.44774917 C119.453513,7.83846583 119.268037,8.22589917 119.072713,8.60676583 C119.003775,8.74466583 118.883954,8.85794083 118.819941,8.9974825 C118.59343,9.4899825 118.376768,9.98412417 118.166672,10.4831908 C118.14041,10.5422908 118.17652,10.6276575 118.186368,10.7524242 C118.332451,10.6588492 118.437499,10.5898992 118.544189,10.5225908 C119.144934,10.1499325 119.73583,9.75429083 120.352989,9.40789917 C120.835554,9.13866583 121.357513,8.9433075 121.928713,8.93509917 C122.335775,8.93017417 122.906975,9.30611583 123.046492,9.69026583 C123.190934,10.0842658 123.197499,10.4766242 123.061265,10.8886825 C122.906975,11.3483492 122.823265,11.8326408 122.68703,12.3005158 C122.550796,12.7700325 122.411279,13.2395492 122.229086,13.6910075 C121.99601,14.2770825 121.743237,14.8582325 121.454354,15.4180408 C121.252465,15.8021908 121.088327,16.2060408 120.874948,16.5869075 C120.66321,16.9612075 120.453113,17.3387908 120.246299,17.7163742 C120.103499,17.9773992 119.947568,18.2351408 119.837596,18.5109408 C119.785072,18.6406325 119.788354,18.8261408 119.840879,18.9558325 C119.896686,19.0904492 120.082161,19.1413408 120.221679,19.0937325 C120.42521,19.0214992 120.622175,18.9180742 120.804368,18.7998742 C121.124437,18.5979492 121.442865,18.3943825 121.73503,18.1579825 C121.981237,17.9576992 122.196258,17.7130908 122.416203,17.4816158 C122.632865,17.2501408 122.839679,17.0071742 123.054699,16.7707742 C123.51921,16.2569325 123.98372,15.7381658 124.458079,15.2341742 C124.605803,15.0765742 124.640272,14.8828575 124.694437,14.6940658 C124.932437,13.8962158 125.296823,13.1623908 125.726865,12.4466242 C126.035444,11.9377075 126.44743,11.5190825 126.769141,11.0298658 C126.987444,10.6998908 127.20903,10.3715575 127.451954,10.0596408 C127.904975,9.47849083 128.456479,9.0024075 129.049017,8.56244083 C129.334617,8.35066583 129.610368,8.1257575 129.946851,8.00099083 C130.370327,7.8450325 130.793803,7.67101583 131.232051,7.56759083 C131.665375,7.46252417 132.110189,7.47401583 132.527099,7.7022075 C132.784796,7.84339083 133.058906,7.95666583 133.326451,8.07979083 C133.745003,8.2735075 133.973154,8.60676583 134.040451,9.05822417 C134.163554,9.89547417 133.97972,10.6621325 133.525058,11.3729742 C133.375692,11.6077325 133.249306,11.8523408 133.104865,12.0887408 C133.047417,12.1839575 132.98012,12.2742492 132.904617,12.3546908 C132.500837,12.7798825 132.110189,13.2198492 131.68343,13.6204158 C131.205789,14.0718742 130.646079,14.4133408 130.06503,14.7170492 C129.830313,14.8401742 129.60052,14.9764325 129.378934,15.1225408 C129.091692,15.3113325 128.771623,15.3835658 128.440065,15.4081908 C128.206989,15.4262492 127.97063,15.4410242 127.790079,15.2341742 C127.745761,15.1832825 127.64892,15.1832825 127.578341,15.1553742 C127.361679,15.0650825 127.189334,14.7777908 127.228727,14.5775075 C127.271403,14.3690158 127.368244,14.2770825 127.583265,14.2458908 C127.671899,14.2327575 127.762175,14.2097742 127.847527,14.2245492 C128.272644,14.2984242 128.627182,14.1129158 128.983361,13.9339742 C129.32641,13.7599575 129.682589,13.6039992 129.997734,13.3889408 C130.376892,13.1246325 130.728148,12.8192825 131.02852,12.4597575 C131.374851,12.0427742 131.711334,11.6225075 131.973954,11.1447825 C132.110189,10.8968908 132.290741,10.6736242 132.446672,10.4355825 C132.487706,10.3715575 132.520534,10.2993242 132.543513,10.2254492 C132.609168,10.0038242 132.697803,9.78384083 132.717499,9.5589325 C132.735554,9.35536583 132.691237,9.13866583 132.633789,8.94002417 C132.579623,8.75287417 132.379375,8.6428825 132.180768,8.68064083 C131.79012,8.75779917 131.410961,8.8694325 131.044934,9.04016583 C130.549237,9.27656583 130.130686,9.61639083 129.721982,9.96934917 C129.360879,10.2812658 129.019472,10.6128825 128.747003,11.0068825 C128.591072,11.2317908 128.467968,11.4813242 128.308754,11.7062325 C128.067472,12.0460575 127.793361,12.3645408 127.557003,12.7092908 C127.17292,13.2723825 126.767499,13.8289075 126.537706,14.4773658 C126.330892,15.0568742 126.129003,15.6445908 125.992768,16.2437992 C125.895927,16.6771992 125.968148,17.1352242 126.206148,17.5308658 C126.45892,17.9511325 126.726465,18.3697575 127.151582,18.6324242 C127.442106,18.8113658 127.758892,18.9558325 128.074037,19.0855242 C128.853692,19.4056492 129.666175,19.5665325 130.509844,19.4992242 C130.820065,19.4762408 131.127003,19.4171408 131.430658,19.3498325 C131.818023,19.2628242 132.20703,19.1823825 132.555003,18.9591158 C132.714217,18.8573325 132.94401,18.8704658 133.129486,18.8031575 C133.589072,18.6406325 134.050299,18.4731825 134.462286,18.2023075 C135.115554,17.7754742 135.781954,17.3650575 136.423734,16.9185242 C136.975237,16.5327325 137.485706,16.0927658 137.905899,15.5559408 C138.176727,15.2079075 138.457403,14.8680825 138.72823,14.5216908 C138.821789,14.4018492 138.905499,14.2754408 138.984286,14.1457492 C139.110672,13.9438242 139.209154,13.7254825 139.353596,13.5383325 C139.762299,13.0129992 140.016713,12.4039408 140.180851,11.7784658 C140.440189,10.7803325 140.601044,9.7559325 140.530465,8.7167575 C140.507486,8.39827417 140.420492,8.08307417 140.343348,7.77279917 C140.261279,7.4313325 140.172644,7.0915075 139.997017,6.77794917 C139.630989,6.12784917 139.148423,5.6140075 138.404879,5.42029083 C138.017513,5.31686583 137.621941,5.2594075 137.231292,5.17732417 C136.756934,5.07554083 136.277651,4.9836075 135.811499,4.8506325 C135.683472,4.8161575 135.573499,4.66019917 135.49143,4.5354325 C135.427417,4.43529083 135.580065,4.2497825 135.749127,4.2005325 C135.832837,4.1759075 135.921472,4.1660575 136.010106,4.15456583 C136.441789,4.08561583 136.858699,3.9641325 137.313361,3.98711583 C138.065113,4.02487417 138.75121,4.23336583 139.379858,4.63229083 C139.94121,4.99017417 140.436906,5.43834917 140.87023,5.94069917 C141.241182,6.37574083 141.554686,6.84854083 141.704051,7.42804917 C141.891168,8.14874083 142.096341,8.86286583 142.097982,9.6131075 C142.097982,10.3223075 142.053665,11.0298658 141.863265,11.7193658 C141.772989,12.0509825 141.718823,12.3924492 141.608851,12.7158575 C141.443072,13.2099992 141.231334,13.6795158 140.921113,14.1096325 C140.553444,14.6185492 140.249789,15.1701492 139.888686,15.6839908 C139.443872,16.3209575 138.93012,16.9037492 138.314603,17.3831158 C137.70401,17.8575575 137.081927,18.3172242 136.446713,18.7621158 C136.006823,19.0674658 135.543954,19.3416242 135.079444,19.6141408 C134.912023,19.7109992 134.716699,19.7668158 134.527941,19.8209908 C133.953458,19.9851575 133.42001,20.2412575 132.886561,20.5039242 C132.689596,20.6007825 132.474575,20.6910742 132.259554,20.7173408 C131.312479,20.8355408 130.357196,20.9520992 129.406837,20.7665908 C128.778189,20.6418242 128.170879,20.4366158 127.566851,20.2084242 C126.711692,19.8817325 126.017389,19.3563992 125.451113,18.6554075 C125.160589,18.2958825 124.920948,17.8953158 124.655044,17.5144492 C124.60252,17.4372908 124.540148,17.3683408 124.446589,17.2567075" id="Fill-42" fill="#032E4E"></path>
            <path d="M98.9216634,25.4793233 C98.60816,25.4185817 98.2224359,25.3496317 97.8416359,25.2708317 C97.5494703,25.21009 97.2589462,25.1394983 96.9717048,25.067265 C96.6861048,24.9950317 96.4497462,24.83579 96.2314428,24.6371483 C95.9277876,24.3613483 95.6077186,24.1036067 95.2991393,23.836015 C94.9659393,23.54544 94.7328634,23.185915 94.5933462,22.772215 C94.4571117,22.368365 94.3175945,21.9628733 94.27656,21.53604 C94.2585048,21.3620233 94.3602703,21.2668067 94.5375393,21.3012817 C94.6983945,21.3357567 94.8411945,21.3850067 94.9708634,21.511415 C95.3221186,21.85124 95.6635255,22.1894233 95.9146566,22.6178983 C96.1723531,23.0562233 96.5400221,23.3993317 96.9355945,23.7342317 C97.5724497,24.2677733 98.2831669,24.4188067 99.0677462,24.3104567 C99.6750566,24.22509 100.279084,24.09704 100.855208,23.8770567 C101.383732,23.6767733 101.902408,23.4551483 102.329167,23.0512983 C102.534339,22.85594 102.790394,22.713115 103.033319,22.56044 C103.794919,22.0712233 104.400588,21.4096317 105.032519,20.7743067 C105.316477,20.4902983 105.59387,20.1997233 105.853208,19.8927317 C105.999291,19.718715 106.096132,19.5036567 106.219236,19.30994 C106.483498,18.9044483 106.751043,18.5005983 107.015305,18.0951067 C107.036643,18.05899 107.036643,18.00974 107.056339,17.9719817 C107.153181,17.7913983 107.192574,17.57634 107.401029,17.4663483 C107.453553,17.4400817 107.502794,17.364565 107.50936,17.305465 C107.571732,16.8146067 107.950891,16.4846317 108.141291,16.05944 C108.415401,15.4470983 108.791277,14.8840067 109.081801,14.27659 C109.42485,13.5608233 109.863098,12.8893817 110.188091,12.1670483 C110.667374,11.1032483 111.297663,10.124815 111.79336,9.07414833 C112.065829,8.49464 112.326808,7.91020667 112.641953,7.35532333 C112.853691,6.98430667 113.073636,6.61657333 113.355953,6.28167333 C113.80405,5.74649 114.636229,5.95498167 114.903774,6.52299833 C115.020312,6.77089 115.007181,6.94654833 114.823346,7.18130667 C114.435981,7.67709 114.122477,8.22540667 113.868063,8.80819833 C113.598877,9.42710667 113.334615,10.05094 113.032601,10.6550733 C112.771622,11.1754817 112.453194,11.671265 112.167594,12.1801817 C112.087167,12.3246483 112.033001,12.4855317 111.960781,12.6349233 C111.648919,13.2702483 111.346905,13.9104983 111.015346,14.5359733 C110.787194,14.96609 110.513084,15.3682983 110.268519,15.7902067 C110.104381,16.074215 109.966505,16.3713567 109.808932,16.6586483 C109.654643,16.9328067 109.487222,17.2003983 109.324726,17.4696317 C109.201622,17.67484 109.073594,17.8800483 108.945567,18.0852567 C108.778146,18.3577733 108.61565,18.6335733 108.441663,18.9028067 C108.190532,19.2885983 107.944326,19.6760317 107.675139,20.0454067 C107.456836,20.349115 107.220477,20.63969 106.969346,20.9171317 C106.645994,21.2766567 106.324284,21.6460317 105.961539,21.9661567 C105.441222,22.427465 104.89136,22.85594 104.341498,23.2827733 C103.924588,23.6061817 103.49947,23.91974 103.061222,24.2135983 C102.621332,24.5123817 102.145332,24.74714 101.625015,24.8883233 C101.432974,24.939215 101.254063,25.03279 101.065305,25.0902483 C100.884753,25.1444233 100.700919,25.1838233 100.517084,25.2215817 C100.210146,25.283965 99.9032083,25.3414233 99.5929876,25.392315 C99.3960221,25.4251483 99.1974152,25.4448483 98.9216634,25.4793233" id="Fill-44" fill="#032E4E"></path>
        </g>
    </g>
</svg>